<svg width="163" height="188" viewBox="0 0 163 188" fill="none" xmlns="http://www.w3.org/2000/svg">
<g filter="url(#filter0_i_297_63)">
<path d="M0.5 180.173V180.673H1H72.4134C122.347 180.673 162.5 140.262 162.5 90.5867C162.5 40.9108 122.347 0.5 72.4134 0.5H1H0.5V1V180.173ZM143.583 90.5867C143.583 138.689 104.642 177.882 56.5437 177.882H19.1614V3.29174H56.5437C104.643 3.29174 143.583 42.2291 143.583 90.5867Z" fill="#E4E4E4" stroke="#E4E4E4"/>
<path d="M5.83435 9.19911C20.3389 7.49278 34.3145 14.0657 44.2286 21.9972C65.5588 39.0617 78.3569 75.7496 88.5953 114.144C98.8338 152.538 119.311 178.134 149.173 179.84" stroke="#E4E4E4" stroke-width="15"/>
</g>
<defs>
<filter id="filter0_i_297_63" x="0" y="0" width="163" height="191.328" filterUnits="userSpaceOnUse" color-interpolation-filters="sRGB">
<feFlood flood-opacity="0" result="BackgroundImageFix"/>
<feBlend mode="normal" in="SourceGraphic" in2="BackgroundImageFix" result="shape"/>
<feColorMatrix in="SourceAlpha" type="matrix" values="0 0 0 0 0 0 0 0 0 0 0 0 0 0 0 0 0 0 127 0" result="hardAlpha"/>
<feOffset dy="4"/>
<feGaussianBlur stdDeviation="2"/>
<feComposite in2="hardAlpha" operator="arithmetic" k2="-1" k3="1"/>
<feColorMatrix type="matrix" values="0 0 0 0 0 0 0 0 0 0 0 0 0 0 0 0 0 0 0.25 0"/>
<feBlend mode="normal" in2="shape" result="effect1_innerShadow_297_63"/>
</filter>
</defs>
</svg>
