<svg width="1925" height="532" viewBox="0 0 1925 532" fill="none" xmlns="http://www.w3.org/2000/svg">
<path d="M176.998 16.5601C111.465 -7.99858 36.449 6.32735 3.00514 16.5601L3 529.5L960.604 529.5L960.603 21.4328C865.987 21.4328 864.713 77.4699 758.666 73.0843C652.16 68.6798 650.714 11.2 552.288 11.2C491.842 11.2 445.161 66.7496 359.245 66.7496C283.044 66.7496 258.914 47.2585 176.998 16.5601Z" fill="#F5EEE3"/>
<path d="M1748.01 16.5623C1813.54 -7.99641 1888.56 6.32951 1922 16.5623V529.5L964.405 529.5L964.405 21.4351C1059.02 21.4352 1060.29 77.4719 1166.34 73.0863C1272.84 68.6818 1274.29 11.2023 1372.72 11.2023C1433.16 11.2023 1479.84 66.7515 1565.76 66.7515C1641.96 66.7515 1666.09 47.2607 1748.01 16.5623Z" fill="#F5EEE3"/>
<path d="M176.998 16.5601C111.465 -7.99858 36.449 6.32735 3.00514 16.5601L3 529.5L960.604 529.5L960.603 21.4328C865.987 21.4328 864.713 77.4699 758.666 73.0843C652.16 68.6798 650.714 11.2 552.288 11.2C491.842 11.2 445.161 66.7496 359.245 66.7496C283.044 66.7496 258.914 47.2585 176.998 16.5601Z" stroke="#F5EEE3" stroke-width="5"/>
<path d="M1748.01 16.5623C1813.54 -7.99641 1888.56 6.32951 1922 16.5623V529.5L964.405 529.5L964.405 21.4351C1059.02 21.4352 1060.29 77.4719 1166.34 73.0863C1272.84 68.6818 1274.29 11.2023 1372.72 11.2023C1433.16 11.2023 1479.84 66.7515 1565.76 66.7515C1641.96 66.7515 1666.09 47.2607 1748.01 16.5623Z" stroke="#F5EEE3" stroke-width="5"/>
</svg>
