<svg width="97" height="113" viewBox="0 0 97 113" fill="none" xmlns="http://www.w3.org/2000/svg">
<path d="M0.666992 106.15V106.65H1.16699H43.017C72.3941 106.65 96.017 82.8751 96.017 53.6499C96.017 24.4247 72.3941 0.649902 43.017 0.649902H1.16699H0.666992V1.1499V106.15ZM84.517 53.6499C84.517 81.7257 61.789 104.6 33.717 104.6H12.017V2.69991H33.717C61.7899 2.69991 84.517 25.4251 84.517 53.6499Z" fill="black" stroke="black"/>
<path d="M4 7.15932C12.5 6.15937 20.6901 10.0113 26.5 14.6593C39 24.6595 46.5 46.1595 52.5 68.6595C58.5 91.1595 70.5 106.159 88 107.159" stroke="black" stroke-width="10"/>
</svg>
