<svg width="1489" height="179" viewBox="0 0 1489 179" fill="none" xmlns="http://www.w3.org/2000/svg">
<path d="M69.9156 3.75524C118.531 3.75524 157.623 43.0601 157.623 91.3776C157.623 139.695 118.531 179 69.9156 179H0V3.75524H69.9156ZM54.3788 177.248C101.741 177.248 140.082 138.694 140.082 91.3776C140.082 43.8112 101.741 5.5077 54.3788 5.5077H17.291V177.248H54.3788Z" fill="#012C3F"/>
<path d="M356.538 68.5958C368.316 112.407 344.509 157.47 302.911 173.242C300.154 174.243 297.398 174.994 294.641 175.996C291.634 176.747 288.878 177.248 286.121 177.748C242.267 185.008 198.915 157.72 187.387 113.909C175.609 70.0979 199.165 25.035 241.014 9.51328C243.52 8.5119 246.277 7.5105 249.284 6.75944C252.04 6.00839 255.048 5.25735 257.804 4.75664C301.658 -2.25315 344.76 24.7846 356.538 68.5958ZM294.14 174.243C333.483 163.729 350.774 114.159 339.748 73.1021C328.722 32.2951 289.128 -2.25315 249.785 8.26154C210.191 19.0266 193.151 68.5958 204.177 109.403C215.203 150.46 254.797 184.758 294.14 174.243Z" fill="#012C3F"/>
<path d="M621.09 3.75524L563.203 165.731C563.454 165.731 563.705 165.731 563.705 165.731V179C533.132 179 523.359 145.203 513.335 109.403C509.576 96.3846 505.817 83.6168 501.056 71.8503L458.455 178.75H440.914L370.998 3.75524H388.289L457.703 176.747L500.304 69.5972C490.531 46.565 476.498 28.7902 450.687 28.7902V15.772C479.004 15.772 495.543 31.5441 506.82 52.8238L519.099 22.2811H520.853L507.822 54.8266C515.591 70.3483 520.853 88.3734 525.865 105.648C534.636 136.691 542.404 163.729 561.449 165.481L619.336 3.75524H621.09Z" fill="#012C3F"/>
<path d="M783.947 3.75524H785.701V178.75H784.198V179C738.84 179 724.807 136.19 711.525 94.8825C699.246 57.8308 687.97 22.7818 655.643 14.7706V178.75H653.889V14.5203C650.13 13.7692 645.87 13.2685 641.61 13.2685V0C694.234 0 710.022 48.3175 723.804 90.8769C736.835 130.933 748.112 165.481 783.947 165.731V3.75524Z" fill="#012C3F"/>
<path d="M1064.13 3.75524L1006.25 165.731C1006.5 165.731 1006.75 165.731 1006.75 165.731V179C976.174 179 966.401 145.203 956.377 109.403C952.618 96.3846 948.859 83.6168 944.098 71.8503L901.497 178.75H883.955L814.04 3.75524H831.331L900.745 176.747L943.346 69.5972C933.573 46.565 919.54 28.7902 893.729 28.7902V15.772C922.046 15.772 938.585 31.5441 949.861 52.8238L962.141 22.2811H963.895L950.864 54.8266C958.632 70.3483 963.895 88.3734 968.907 105.648C977.677 136.691 985.446 163.729 1004.49 165.481L1062.38 3.75524H1064.13Z" fill="#012C3F"/>
<path d="M1109.96 178.75H1092.67V3.75524H1109.96V178.75Z" fill="#012C3F"/>
<path d="M1286.75 3.75524H1288.5V178.75H1287V179C1241.64 179 1227.61 136.19 1214.33 94.8825C1202.05 57.8308 1190.77 22.7818 1158.45 14.7706V178.75H1156.69V14.5203C1152.93 13.7692 1148.67 13.2685 1144.41 13.2685V0C1197.04 0 1212.82 48.3175 1226.61 90.8769C1239.64 130.933 1250.91 165.481 1286.75 165.731V3.75524Z" fill="#012C3F"/>
<path d="M1401.29 3.75524C1449.91 3.75524 1489 43.0601 1489 91.3776C1489 139.695 1449.91 179 1401.29 179H1331.38V3.75524H1401.29ZM1385.76 177.248C1433.12 177.248 1471.46 138.694 1471.46 91.3776C1471.46 43.8112 1433.12 5.5077 1385.76 5.5077H1348.67V177.248H1385.76Z" fill="#012C3F"/>
</svg>
