<svg width="1181" height="127" viewBox="0 0 1181 127" fill="none" xmlns="http://www.w3.org/2000/svg">
<g filter="url(#filter0_i_294_62)">
<path d="M49.6092 2.66433C84.1045 2.66433 111.843 30.551 111.843 64.8322C111.843 99.1133 84.1045 127 49.6092 127H0V2.66433H49.6092ZM38.585 125.757C72.1912 125.757 99.3963 98.4028 99.3963 64.8322C99.3963 31.0839 72.1912 3.90769 38.585 3.90769H12.2689V125.757H38.585Z" fill="#AFA69A"/>
<path d="M270.766 48.6685C279.123 79.7524 262.231 111.724 232.714 122.915C230.758 123.625 228.802 124.158 226.846 124.869C224.713 125.401 222.757 125.757 220.801 126.112C189.684 131.263 158.923 111.902 150.743 80.8182C142.386 49.7343 159.1 17.7622 188.795 6.74965C190.573 6.03917 192.529 5.32868 194.663 4.79581C196.618 4.26294 198.752 3.73007 200.708 3.37482C231.825 -1.5986 262.408 17.5846 270.766 48.6685ZM226.491 123.625C254.407 116.165 266.676 80.9958 258.852 51.8657C251.029 22.9133 222.934 -1.5986 195.018 5.86154C166.924 13.4993 154.833 48.6685 162.657 77.621C170.48 106.751 198.574 131.085 226.491 123.625Z" fill="#AFA69A"/>
<path d="M476.262 2.66433L435.188 117.586C435.366 117.586 435.543 117.586 435.543 117.586V127C413.851 127 406.916 103.021 399.803 77.621C397.136 68.3846 394.469 59.3259 391.091 50.9776L360.863 126.822H348.416L298.807 2.66433H311.076L360.329 125.401L390.557 49.379C383.623 33.0378 373.665 20.4266 355.351 20.4266V11.1902C375.443 11.1902 387.179 22.3804 395.18 37.4783L403.893 15.8084H405.138L395.892 38.8993C401.404 49.9119 405.138 62.7007 408.694 74.9566C414.917 96.9818 420.43 116.165 433.943 117.408L475.017 2.66433H476.262Z" fill="#AFA69A"/>
<path d="M609.599 2.66433H610.844V126.822H609.777V127C577.593 127 567.636 96.6266 558.212 67.3189C549.499 41.0308 541.498 16.1636 518.56 10.4797V126.822H517.316V10.3021C514.648 9.76923 511.626 9.41399 508.603 9.41399V0C545.943 0 557.145 34.2811 566.925 64.4769C576.171 92.8965 584.172 117.408 609.599 117.586V2.66433Z" fill="#AFA69A"/>
<path d="M826.188 2.66433L785.114 117.586C785.292 117.586 785.47 117.586 785.47 117.586V127C763.777 127 756.842 103.021 749.73 77.621C747.062 68.3846 744.395 59.3259 741.017 50.9776L710.789 126.822H698.342L648.733 2.66433H661.002L710.256 125.401L740.483 49.379C733.549 33.0378 723.591 20.4266 705.277 20.4266V11.1902C725.37 11.1902 737.105 22.3804 745.107 37.4783L753.819 15.8084H755.064L745.818 38.8993C751.33 49.9119 755.064 62.7007 758.62 74.9566C764.844 96.9818 770.356 116.165 783.869 117.408L824.944 2.66433H826.188Z" fill="#AFA69A"/>
<path d="M876.488 126.822H864.219V2.66433H876.488V126.822Z" fill="#AFA69A"/>
<path d="M1019.71 2.66433H1020.96V126.822H1019.89V127C987.704 127 977.747 96.6266 968.323 67.3189C959.61 41.0308 951.609 16.1636 928.671 10.4797V126.822H927.427V10.3021C924.759 9.76923 921.737 9.41399 918.714 9.41399V0C956.054 0 967.256 34.2811 977.036 64.4769C986.282 92.8965 994.283 117.408 1019.71 117.586V2.66433Z" fill="#AFA69A"/>
<path d="M1118.77 2.66433C1153.26 2.66433 1181 30.551 1181 64.8322C1181 99.1133 1153.26 127 1118.77 127H1069.16V2.66433H1118.77ZM1107.74 125.757C1141.35 125.757 1168.55 98.4028 1168.55 64.8322C1168.55 31.0839 1141.35 3.90769 1107.74 3.90769H1081.43V125.757H1107.74Z" fill="#AFA69A"/>
</g>
<defs>
<filter id="filter0_i_294_62" x="0" y="0" width="1181" height="131" filterUnits="userSpaceOnUse" color-interpolation-filters="sRGB">
<feFlood flood-opacity="0" result="BackgroundImageFix"/>
<feBlend mode="normal" in="SourceGraphic" in2="BackgroundImageFix" result="shape"/>
<feColorMatrix in="SourceAlpha" type="matrix" values="0 0 0 0 0 0 0 0 0 0 0 0 0 0 0 0 0 0 127 0" result="hardAlpha"/>
<feOffset dy="4"/>
<feGaussianBlur stdDeviation="2"/>
<feComposite in2="hardAlpha" operator="arithmetic" k2="-1" k3="1"/>
<feColorMatrix type="matrix" values="0 0 0 0 0 0 0 0 0 0 0 0 0 0 0 0 0 0 0.15 0"/>
<feBlend mode="normal" in2="shape" result="effect1_innerShadow_294_62"/>
</filter>
</defs>
</svg>
