<svg width="863" height="109" viewBox="0 0 863 109" fill="none" xmlns="http://www.w3.org/2000/svg">
<g filter="url(#filter0_i_300_69)">
<path d="M41.9174 3.1499C71.0174 3.1499 94.4174 26.6999 94.4174 55.6499C94.4174 84.5999 71.0174 108.15 41.9174 108.15H0.0673828V3.1499H41.9174ZM32.6174 107.1C60.9674 107.1 83.9174 83.9999 83.9174 55.6499C83.9174 27.1499 60.9674 4.1999 32.6174 4.1999H10.4174V107.1H32.6174Z" fill="#998A77"/>
<path d="M201.483 41.9999C208.533 68.2499 194.283 95.2499 169.383 104.7C167.733 105.3 166.083 105.75 164.433 106.35C162.633 106.8 160.983 107.1 159.333 107.4C133.083 111.75 107.133 95.3999 100.233 69.1499C93.1834 42.8999 107.283 15.8999 132.333 6.5999C133.833 5.99991 135.483 5.39991 137.283 4.9499C138.933 4.4999 140.733 4.04991 142.383 3.7499C168.633 -0.450099 194.433 15.7499 201.483 41.9999ZM164.133 105.3C187.683 98.9999 198.033 69.2999 191.433 44.6999C184.833 20.2499 161.133 -0.450098 137.583 5.8499C113.883 12.2999 103.683 41.9999 110.283 66.4499C116.883 91.0499 140.583 111.6 164.133 105.3Z" fill="#998A77"/>
<path d="M347.839 3.1499L313.189 100.2C313.339 100.2 313.489 100.2 313.489 100.2V108.15C295.189 108.15 289.339 87.8999 283.339 66.4499C281.089 58.6499 278.839 50.9999 275.989 43.9499L250.489 108H239.989L198.139 3.1499H208.489L250.039 106.8L275.539 42.5999C269.689 28.7999 261.289 18.1499 245.839 18.1499V10.3499C262.789 10.3499 272.689 19.7999 279.439 32.5499L286.789 14.2499H287.839L280.039 33.7499C284.689 43.0499 287.839 53.8499 290.839 64.1999C296.089 82.7999 300.739 98.9999 312.139 100.05L346.789 3.1499H347.839Z" fill="#998A77"/>
<path d="M433.321 3.1499H434.371V108H433.471V108.15C406.321 108.15 397.921 82.4999 389.971 57.7499C382.621 35.5499 375.871 14.5499 356.521 9.7499V108H355.471V9.59991C353.221 9.1499 350.671 8.84991 348.121 8.84991V0.899902C379.621 0.899902 389.071 29.8499 397.321 55.3499C405.121 79.3499 411.871 100.05 433.321 100.2V3.1499Z" fill="#998A77"/>
<path d="M644.3 3.1499L609.65 100.2C609.8 100.2 609.95 100.2 609.95 100.2V108.15C591.65 108.15 585.8 87.8999 579.8 66.4499C577.55 58.6499 575.3 50.9999 572.45 43.9499L546.95 108H536.45L494.6 3.1499H504.95L546.5 106.8L572 42.5999C566.15 28.7999 557.75 18.1499 542.3 18.1499V10.3499C559.25 10.3499 569.15 19.7999 575.9 32.5499L583.25 14.2499H584.3L576.5 33.7499C581.15 43.0499 584.3 53.8499 587.3 64.1999C592.55 82.7999 597.2 98.9999 608.6 100.05L643.25 3.1499H644.3Z" fill="#998A77"/>
<path d="M659.732 108H649.382V3.1499H659.732V108Z" fill="#998A77"/>
<path d="M753.554 3.1499H754.604V108H753.704V108.15C726.554 108.15 718.154 82.4999 710.204 57.7499C702.854 35.5499 696.104 14.5499 676.754 9.7499V108H675.704V9.59991C673.454 9.1499 670.904 8.84991 668.354 8.84991V0.899902C699.854 0.899902 709.304 29.8499 717.554 55.3499C725.354 79.3499 732.104 100.05 753.554 100.2V3.1499Z" fill="#998A77"/>
<path d="M810.117 3.1499C839.217 3.1499 862.617 26.6999 862.617 55.6499C862.617 84.5999 839.217 108.15 810.117 108.15H768.267V3.1499H810.117ZM800.817 107.1C829.167 107.1 852.117 83.9999 852.117 55.6499C852.117 27.1499 829.167 4.1999 800.817 4.1999H778.617V107.1H800.817Z" fill="#998A77"/>
</g>
<defs>
<filter id="filter0_i_300_69" x="0.0673828" y="0.899902" width="862.549" height="111.25" filterUnits="userSpaceOnUse" color-interpolation-filters="sRGB">
<feFlood flood-opacity="0" result="BackgroundImageFix"/>
<feBlend mode="normal" in="SourceGraphic" in2="BackgroundImageFix" result="shape"/>
<feColorMatrix in="SourceAlpha" type="matrix" values="0 0 0 0 0 0 0 0 0 0 0 0 0 0 0 0 0 0 127 0" result="hardAlpha"/>
<feOffset dy="4"/>
<feGaussianBlur stdDeviation="2"/>
<feComposite in2="hardAlpha" operator="arithmetic" k2="-1" k3="1"/>
<feColorMatrix type="matrix" values="0 0 0 0 0 0 0 0 0 0 0 0 0 0 0 0 0 0 0.25 0"/>
<feBlend mode="normal" in2="shape" result="effect1_innerShadow_300_69"/>
</filter>
</defs>
</svg>
