<svg width="1442" height="186" viewBox="0 0 1442 186" fill="none" xmlns="http://www.w3.org/2000/svg">
<mask id="path-1-outside-1_275_47" maskUnits="userSpaceOnUse" x="0" y="0" width="1442" height="186" fill="black">
<rect fill="white" width="1442" height="186"/>
<path d="M72.8469 4.86014C122.805 4.86014 162.977 45.2629 162.977 94.9301C162.977 144.597 122.805 185 72.8469 185H1V4.86014H72.8469ZM56.8809 183.199C105.551 183.199 144.951 143.568 144.951 94.9301C144.951 46.035 105.551 6.66154 56.8809 6.66154H18.7686V183.199H56.8809Z"/>
<path d="M354.511 71.5119C366.614 116.547 342.15 162.869 299.402 179.081C296.57 180.11 293.737 180.883 290.904 181.912C287.814 182.684 284.982 183.199 282.149 183.713C237.084 191.176 192.533 163.126 180.688 118.091C168.584 73.0559 192.791 26.7343 235.796 10.779C238.371 9.74966 241.204 8.72029 244.294 7.94825C247.127 7.17622 250.217 6.4042 253.05 5.88951C298.115 -1.31609 342.408 26.4769 354.511 71.5119ZM290.389 180.11C330.819 169.302 348.588 118.348 337.257 76.1441C325.927 34.1972 285.239 -1.31608 244.809 9.4923C204.122 20.558 186.611 71.5119 197.941 113.459C209.272 155.663 249.959 190.919 290.389 180.11Z"/>
<path d="M613.495 4.86014L554.009 171.361C554.267 171.361 554.524 171.361 554.524 171.361V185C523.107 185 513.064 150.259 502.763 113.459C498.901 100.077 495.038 86.9524 490.145 74.8573L446.367 184.743H428.341L356.494 4.86014H374.263L445.595 182.684L489.373 72.5413C479.33 48.8657 464.909 30.5944 438.385 30.5944V17.2126C467.484 17.2126 484.48 33.4252 496.068 55.2993L508.686 23.9035H510.489L497.098 57.358C505.081 73.3133 510.489 91.842 515.639 109.599C524.652 141.509 532.635 169.302 552.207 171.103L611.693 4.86014H613.495Z"/>
<path d="M767.975 4.86014H769.777V184.743H768.232V185C721.622 185 707.201 140.994 693.552 98.5329C680.934 60.4462 669.346 24.4182 636.126 16.1832V184.743H634.324V15.9259C630.461 15.1538 626.083 14.6392 621.706 14.6392V1C675.784 1 692.007 50.6671 706.171 94.4154C719.562 135.59 731.15 171.103 767.975 171.361V4.86014Z"/>
<path d="M1043.02 4.86014L983.537 171.361C983.795 171.361 984.052 171.361 984.052 171.361V185C952.636 185 942.592 150.259 932.292 113.459C928.429 100.077 924.566 86.9524 919.673 74.8573L875.896 184.743H857.87L786.023 4.86014H803.791L875.123 182.684L918.901 72.5413C908.858 48.8657 894.437 30.5944 867.913 30.5944V17.2126C897.012 17.2126 914.008 33.4252 925.596 55.2993L938.215 23.9035H940.017L926.626 57.358C934.609 73.3133 940.017 91.842 945.168 109.599C954.181 141.509 962.164 169.302 981.735 171.103L1041.22 4.86014H1043.02Z"/>
<path d="M1077.24 184.743H1059.47V4.86014H1077.24V184.743Z"/>
<path d="M1246.04 4.86014H1247.84V184.743H1246.3V185C1199.69 185 1185.26 140.994 1171.62 98.5329C1159 60.4462 1147.41 24.4182 1114.19 16.1832V184.743H1112.39V15.9259C1108.53 15.1538 1104.15 14.6392 1099.77 14.6392V1C1153.85 1 1170.07 50.6671 1184.23 94.4154C1197.63 135.59 1209.21 171.103 1246.04 171.361V4.86014Z"/>
<path d="M1350.87 4.86014C1400.83 4.86014 1441 45.2629 1441 94.9301C1441 144.597 1400.83 185 1350.87 185H1279.02V4.86014H1350.87ZM1334.9 183.199C1383.57 183.199 1422.97 143.568 1422.97 94.9301C1422.97 46.035 1383.57 6.66154 1334.9 6.66154H1296.79V183.199H1334.9Z"/>
</mask>
<path d="M72.8469 4.86014C122.805 4.86014 162.977 45.2629 162.977 94.9301C162.977 144.597 122.805 185 72.8469 185H1V4.86014H72.8469ZM56.8809 183.199C105.551 183.199 144.951 143.568 144.951 94.9301C144.951 46.035 105.551 6.66154 56.8809 6.66154H18.7686V183.199H56.8809Z" fill="black"/>
<path d="M354.511 71.5119C366.614 116.547 342.15 162.869 299.402 179.081C296.57 180.11 293.737 180.883 290.904 181.912C287.814 182.684 284.982 183.199 282.149 183.713C237.084 191.176 192.533 163.126 180.688 118.091C168.584 73.0559 192.791 26.7343 235.796 10.779C238.371 9.74966 241.204 8.72029 244.294 7.94825C247.127 7.17622 250.217 6.4042 253.05 5.88951C298.115 -1.31609 342.408 26.4769 354.511 71.5119ZM290.389 180.11C330.819 169.302 348.588 118.348 337.257 76.1441C325.927 34.1972 285.239 -1.31608 244.809 9.4923C204.122 20.558 186.611 71.5119 197.941 113.459C209.272 155.663 249.959 190.919 290.389 180.11Z" fill="black"/>
<path d="M613.495 4.86014L554.009 171.361C554.267 171.361 554.524 171.361 554.524 171.361V185C523.107 185 513.064 150.259 502.763 113.459C498.901 100.077 495.038 86.9524 490.145 74.8573L446.367 184.743H428.341L356.494 4.86014H374.263L445.595 182.684L489.373 72.5413C479.33 48.8657 464.909 30.5944 438.385 30.5944V17.2126C467.484 17.2126 484.48 33.4252 496.068 55.2993L508.686 23.9035H510.489L497.098 57.358C505.081 73.3133 510.489 91.842 515.639 109.599C524.652 141.509 532.635 169.302 552.207 171.103L611.693 4.86014H613.495Z" fill="black"/>
<path d="M767.975 4.86014H769.777V184.743H768.232V185C721.622 185 707.201 140.994 693.552 98.5329C680.934 60.4462 669.346 24.4182 636.126 16.1832V184.743H634.324V15.9259C630.461 15.1538 626.083 14.6392 621.706 14.6392V1C675.784 1 692.007 50.6671 706.171 94.4154C719.562 135.59 731.15 171.103 767.975 171.361V4.86014Z" fill="black"/>
<path d="M1043.02 4.86014L983.537 171.361C983.795 171.361 984.052 171.361 984.052 171.361V185C952.636 185 942.592 150.259 932.292 113.459C928.429 100.077 924.566 86.9524 919.673 74.8573L875.896 184.743H857.87L786.023 4.86014H803.791L875.123 182.684L918.901 72.5413C908.858 48.8657 894.437 30.5944 867.913 30.5944V17.2126C897.012 17.2126 914.008 33.4252 925.596 55.2993L938.215 23.9035H940.017L926.626 57.358C934.609 73.3133 940.017 91.842 945.168 109.599C954.181 141.509 962.164 169.302 981.735 171.103L1041.22 4.86014H1043.02Z" fill="black"/>
<path d="M1077.24 184.743H1059.47V4.86014H1077.24V184.743Z" fill="black"/>
<path d="M1246.04 4.86014H1247.84V184.743H1246.3V185C1199.69 185 1185.26 140.994 1171.62 98.5329C1159 60.4462 1147.41 24.4182 1114.19 16.1832V184.743H1112.39V15.9259C1108.53 15.1538 1104.15 14.6392 1099.77 14.6392V1C1153.85 1 1170.07 50.6671 1184.23 94.4154C1197.63 135.59 1209.21 171.103 1246.04 171.361V4.86014Z" fill="black"/>
<path d="M1350.87 4.86014C1400.83 4.86014 1441 45.2629 1441 94.9301C1441 144.597 1400.83 185 1350.87 185H1279.02V4.86014H1350.87ZM1334.9 183.199C1383.57 183.199 1422.97 143.568 1422.97 94.9301C1422.97 46.035 1383.57 6.66154 1334.9 6.66154H1296.79V183.199H1334.9Z" fill="black"/>
<path d="M72.8469 4.86014C122.805 4.86014 162.977 45.2629 162.977 94.9301C162.977 144.597 122.805 185 72.8469 185H1V4.86014H72.8469ZM56.8809 183.199C105.551 183.199 144.951 143.568 144.951 94.9301C144.951 46.035 105.551 6.66154 56.8809 6.66154H18.7686V183.199H56.8809Z" stroke="black" stroke-width="2" mask="url(#path-1-outside-1_275_47)"/>
<path d="M354.511 71.5119C366.614 116.547 342.15 162.869 299.402 179.081C296.57 180.11 293.737 180.883 290.904 181.912C287.814 182.684 284.982 183.199 282.149 183.713C237.084 191.176 192.533 163.126 180.688 118.091C168.584 73.0559 192.791 26.7343 235.796 10.779C238.371 9.74966 241.204 8.72029 244.294 7.94825C247.127 7.17622 250.217 6.4042 253.05 5.88951C298.115 -1.31609 342.408 26.4769 354.511 71.5119ZM290.389 180.11C330.819 169.302 348.588 118.348 337.257 76.1441C325.927 34.1972 285.239 -1.31608 244.809 9.4923C204.122 20.558 186.611 71.5119 197.941 113.459C209.272 155.663 249.959 190.919 290.389 180.11Z" stroke="black" stroke-width="2" mask="url(#path-1-outside-1_275_47)"/>
<path d="M613.495 4.86014L554.009 171.361C554.267 171.361 554.524 171.361 554.524 171.361V185C523.107 185 513.064 150.259 502.763 113.459C498.901 100.077 495.038 86.9524 490.145 74.8573L446.367 184.743H428.341L356.494 4.86014H374.263L445.595 182.684L489.373 72.5413C479.33 48.8657 464.909 30.5944 438.385 30.5944V17.2126C467.484 17.2126 484.48 33.4252 496.068 55.2993L508.686 23.9035H510.489L497.098 57.358C505.081 73.3133 510.489 91.842 515.639 109.599C524.652 141.509 532.635 169.302 552.207 171.103L611.693 4.86014H613.495Z" stroke="black" stroke-width="2" mask="url(#path-1-outside-1_275_47)"/>
<path d="M767.975 4.86014H769.777V184.743H768.232V185C721.622 185 707.201 140.994 693.552 98.5329C680.934 60.4462 669.346 24.4182 636.126 16.1832V184.743H634.324V15.9259C630.461 15.1538 626.083 14.6392 621.706 14.6392V1C675.784 1 692.007 50.6671 706.171 94.4154C719.562 135.59 731.15 171.103 767.975 171.361V4.86014Z" stroke="black" stroke-width="2" mask="url(#path-1-outside-1_275_47)"/>
<path d="M1043.02 4.86014L983.537 171.361C983.795 171.361 984.052 171.361 984.052 171.361V185C952.636 185 942.592 150.259 932.292 113.459C928.429 100.077 924.566 86.9524 919.673 74.8573L875.896 184.743H857.87L786.023 4.86014H803.791L875.123 182.684L918.901 72.5413C908.858 48.8657 894.437 30.5944 867.913 30.5944V17.2126C897.012 17.2126 914.008 33.4252 925.596 55.2993L938.215 23.9035H940.017L926.626 57.358C934.609 73.3133 940.017 91.842 945.168 109.599C954.181 141.509 962.164 169.302 981.735 171.103L1041.22 4.86014H1043.02Z" stroke="black" stroke-width="2" mask="url(#path-1-outside-1_275_47)"/>
<path d="M1077.24 184.743H1059.47V4.86014H1077.24V184.743Z" stroke="black" stroke-width="2" mask="url(#path-1-outside-1_275_47)"/>
<path d="M1246.04 4.86014H1247.84V184.743H1246.3V185C1199.69 185 1185.26 140.994 1171.62 98.5329C1159 60.4462 1147.41 24.4182 1114.19 16.1832V184.743H1112.39V15.9259C1108.53 15.1538 1104.15 14.6392 1099.77 14.6392V1C1153.85 1 1170.07 50.6671 1184.23 94.4154C1197.63 135.59 1209.21 171.103 1246.04 171.361V4.86014Z" stroke="black" stroke-width="2" mask="url(#path-1-outside-1_275_47)"/>
<path d="M1350.87 4.86014C1400.83 4.86014 1441 45.2629 1441 94.9301C1441 144.597 1400.83 185 1350.87 185H1279.02V4.86014H1350.87ZM1334.9 183.199C1383.57 183.199 1422.97 143.568 1422.97 94.9301C1422.97 46.035 1383.57 6.66154 1334.9 6.66154H1296.79V183.199H1334.9Z" stroke="black" stroke-width="2" mask="url(#path-1-outside-1_275_47)"/>
</svg>
