<svg width="1354" height="173" viewBox="0 0 1354 173" fill="none" xmlns="http://www.w3.org/2000/svg">
<path d="M67.556 3.62937C114.531 3.62937 152.304 41.6168 152.304 88.3147C152.304 135.013 114.531 173 67.556 173H0V3.62937H67.556ZM52.5436 171.306C98.3074 171.306 135.354 134.045 135.354 88.3147C135.354 42.3427 98.3074 5.32308 52.5436 5.32308H16.7074V171.306H52.5436Z" fill="#012C3F"/>
<path d="M332.398 66.2965C343.779 108.639 320.776 152.192 280.581 167.435C277.918 168.403 275.254 169.129 272.591 170.096C269.685 170.822 267.022 171.306 264.358 171.79C221.984 178.807 180.095 152.434 168.956 110.091C157.576 67.7483 180.337 24.1958 220.774 9.1944C223.195 8.22658 225.858 7.25875 228.764 6.53287C231.428 5.80699 234.333 5.08112 236.997 4.5972C279.37 -2.17762 321.018 23.9539 332.398 66.2965ZM272.106 168.403C310.122 158.241 326.829 110.333 316.175 70.6517C305.521 31.2126 267.264 -2.17762 229.248 7.98461C190.991 18.3888 174.525 66.2965 185.179 105.736C195.833 145.417 234.091 178.565 272.106 168.403Z" fill="#012C3F"/>
<path d="M575.916 3.62937L519.982 160.176C520.224 160.176 520.466 160.176 520.466 160.176V173C490.926 173 481.482 140.336 471.797 105.736C468.165 93.1538 464.533 80.814 459.932 69.442L418.769 172.758H401.82L334.264 3.62937H350.971L418.043 170.822L459.206 67.2643C449.763 45.0042 436.203 27.8252 411.263 27.8252V15.2434C438.624 15.2434 454.605 30.4867 465.501 51.0531L477.366 21.5343H479.061L466.47 52.9888C473.976 67.9902 479.061 85.4112 483.904 102.106C492.379 132.109 499.885 158.241 518.287 159.934L574.221 3.62937H575.916Z" fill="#012C3F"/>
<path d="M721.169 3.62937H722.864V172.758H721.411V173C677.585 173 664.025 131.625 651.192 91.7021C639.327 55.8923 628.431 22.0182 597.195 14.2755V172.758H595.5V14.0336C591.868 13.3077 587.752 12.8238 583.636 12.8238V0C634.484 0 649.739 46.6979 663.056 87.8308C675.647 126.544 686.544 159.934 721.169 160.176V3.62937Z" fill="#012C3F"/>
<path d="M979.792 3.62937L923.858 160.176C924.1 160.176 924.342 160.176 924.342 160.176V173C894.802 173 885.358 140.336 875.673 105.736C872.041 93.1538 868.409 80.814 863.808 69.442L822.645 172.758H805.696L738.139 3.62937H754.847L821.919 170.822L863.082 67.2643C853.639 45.0042 840.079 27.8252 815.139 27.8252V15.2434C842.5 15.2434 858.481 30.4867 869.377 51.0531L881.242 21.5343H882.937L870.346 52.9888C877.852 67.9902 882.937 85.4112 887.78 102.106C896.255 132.109 903.761 158.241 922.163 159.934L978.097 3.62937H979.792Z" fill="#012C3F"/>
<path d="M1011.97 172.758H995.26V3.62937H1011.97V172.758Z" fill="#012C3F"/>
<path d="M1170.68 3.62937H1172.38V172.758H1170.92V173C1127.1 173 1113.54 131.625 1100.7 91.7021C1088.84 55.8923 1077.94 22.0182 1046.71 14.2755V172.758H1045.01V14.0336C1041.38 13.3077 1037.26 12.8238 1033.15 12.8238V0C1084 0 1099.25 46.6979 1112.57 87.8308C1125.16 126.544 1136.06 159.934 1170.68 160.176V3.62937Z" fill="#012C3F"/>
<path d="M1269.25 3.62937C1316.23 3.62937 1354 41.6168 1354 88.3147C1354 135.013 1316.23 173 1269.25 173H1201.7V3.62937H1269.25ZM1254.24 171.306C1300 171.306 1337.05 134.045 1337.05 88.3147C1337.05 42.3427 1300 5.32308 1254.24 5.32308H1218.4V171.306H1254.24Z" fill="#012C3F"/>
</svg>
