<svg width="97" height="112" viewBox="0 0 97 112" fill="none" xmlns="http://www.w3.org/2000/svg">
<g filter="url(#filter0_i_275_40)">
<path d="M0.5 106V106.5H1H42.85C72.2271 106.5 95.85 82.7252 95.85 53.5C95.85 24.2748 72.2271 0.5 42.85 0.5H1H0.5V1V106ZM84.35 53.5C84.35 81.5758 61.622 104.45 33.55 104.45H11.85V2.55H33.55C61.6229 2.55 84.35 25.2752 84.35 53.5Z" fill="#AFA69A" stroke="#AFA69A"/>
<path d="M3.83301 7.00941C12.333 6.00947 20.5231 9.86135 26.333 14.5094C38.833 24.5096 46.333 46.0096 52.333 68.5096C58.333 91.0096 70.333 106.009 87.833 107.009" stroke="#AFA69A" stroke-width="10"/>
</g>
<defs>
<filter id="filter0_i_275_40" x="0" y="0" width="96.3501" height="116.001" filterUnits="userSpaceOnUse" color-interpolation-filters="sRGB">
<feFlood flood-opacity="0" result="BackgroundImageFix"/>
<feBlend mode="normal" in="SourceGraphic" in2="BackgroundImageFix" result="shape"/>
<feColorMatrix in="SourceAlpha" type="matrix" values="0 0 0 0 0 0 0 0 0 0 0 0 0 0 0 0 0 0 127 0" result="hardAlpha"/>
<feOffset dy="4"/>
<feGaussianBlur stdDeviation="2"/>
<feComposite in2="hardAlpha" operator="arithmetic" k2="-1" k3="1"/>
<feColorMatrix type="matrix" values="0 0 0 0 0 0 0 0 0 0 0 0 0 0 0 0 0 0 0.15 0"/>
<feBlend mode="normal" in2="shape" result="effect1_innerShadow_275_40"/>
</filter>
</defs>
</svg>
