<svg width="655" height="101" viewBox="0 0 655 101" fill="none" xmlns="http://www.w3.org/2000/svg">
<path d="M39.3207 2.11888C66.6619 2.11888 88.6477 24.2965 88.6477 51.5594C88.6477 78.8224 66.6619 101 39.3207 101H0V2.11888H39.3207ZM30.5828 100.011C57.2193 100.011 78.7823 78.2573 78.7823 51.5594C78.7823 24.7203 57.2193 3.10769 30.5828 3.10769H9.72447V100.011H30.5828Z" fill="#BFD0DB"/>
<path d="M228.682 2.11888L196.127 93.5133C196.268 93.5133 196.409 93.5133 196.409 93.5133V101C179.215 101 173.718 81.9301 168.081 61.7301C165.967 54.3846 163.853 47.1804 161.175 40.5413L137.216 100.859H127.351L88.03 2.11888H97.7545L136.793 99.7287L160.752 39.2699C155.256 26.2741 147.363 16.2448 132.847 16.2448V8.8993C148.773 8.8993 158.074 17.7986 164.416 29.8056L171.322 12.572H172.309L164.98 30.9357C169.349 39.6937 172.309 49.8643 175.127 59.6112C180.06 77.1273 184.429 92.3832 195.14 93.372L227.696 2.11888H228.682Z" fill="#BFD0DB"/>
<path d="M313.227 2.11888H314.213V100.859H313.367V101C287.858 101 279.966 76.8448 272.497 53.5371C265.591 32.6308 259.249 12.8545 241.068 8.33427V100.859H240.082V8.19301C237.968 7.76923 235.572 7.48672 233.176 7.48672V0C262.772 0 271.651 27.2629 279.402 51.2769C286.731 73.8783 293.073 93.372 313.227 93.5133V2.11888Z" fill="#BFD0DB"/>
<path d="M463.757 2.11888L431.201 93.5133C431.342 93.5133 431.483 93.5133 431.483 93.5133V101C414.289 101 408.792 81.9301 403.155 61.7301C401.041 54.3846 398.927 47.1804 396.249 40.5413L372.29 100.859H362.425L323.104 2.11888H332.829L371.867 99.7287L395.826 39.2699C390.33 26.2741 382.437 16.2448 367.921 16.2448V8.8993C383.847 8.8993 393.148 17.7986 399.491 29.8056L406.396 12.572H407.383L400.054 30.9357C404.423 39.6937 407.383 49.8643 410.202 59.6112C415.134 77.1273 419.503 92.3832 430.214 93.372L462.77 2.11888H463.757Z" fill="#BFD0DB"/>
<path d="M548.301 2.11888H549.287V100.859H548.442V101C522.932 101 515.04 76.8448 507.571 53.5371C500.665 32.6308 494.323 12.8545 476.142 8.33427V100.859H475.156V8.19301C473.042 7.76923 470.646 7.48672 468.25 7.48672V0C497.846 0 506.725 27.2629 514.476 51.2769C521.805 73.8783 528.147 93.372 548.301 93.5133V2.11888Z" fill="#BFD0DB"/>
<path d="M605.673 2.11888C633.014 2.11888 655 24.2965 655 51.5594C655 78.8224 633.014 101 605.673 101H566.352V2.11888H605.673ZM596.935 100.011C623.572 100.011 645.135 78.2573 645.135 51.5594C645.135 24.7203 623.572 3.10769 596.935 3.10769H576.077V100.011H596.935Z" fill="#BFD0DB"/>
</svg>
