<svg width="2071" height="651" viewBox="0 0 2071 651" fill="none" xmlns="http://www.w3.org/2000/svg">
<g filter="url(#filter0_d_339_143)">
<mask id="path-1-outside-1_339_143" maskUnits="userSpaceOnUse" x="6" y="0" width="2059" height="639" fill="black">
<rect fill="white" x="6" width="2059" height="639"/>
<path d="M173.184 422.122H77.7021C82.9536 389.658 82.9536 339.053 82.9536 302.769C82.9536 266.963 82.9536 221.132 77.7021 188.191L167.933 183.416V245.957H170.32C176.526 208.242 198.487 176.733 243.364 176.733C301.131 176.733 318.318 206.332 322.614 245.957H325.956C332.162 208.242 354.123 176.733 399 176.733C468.225 176.733 479.205 219.7 479.205 270.783V354.807C479.205 402.071 481.115 440.264 484.457 470.818C512.624 464.134 542.224 459.838 574.21 459.838C611.926 459.838 657.28 471.296 657.28 522.379C657.28 568.688 609.061 590.648 557.978 590.648C497.824 590.648 445.786 563.913 417.142 505.669C317.84 551.023 224.745 636.48 111.598 636.48C40.464 636.48 8 596.855 8 550.546C8 509.488 29.0061 472.25 83.9084 472.25C115.895 472.25 137.856 498.508 137.856 516.65C92.0244 509.489 84.8633 574.416 138.811 574.416C242.409 574.416 323.092 527.63 411.89 493.734C399.955 464.134 392.794 427.851 392.794 383.452V270.783C392.794 234.499 380.858 227.338 367.491 227.338C336.459 227.338 324.524 254.073 323.569 297.995C323.569 335.711 324.524 385.839 327.388 422.122H231.906C237.158 377.246 237.158 307.066 237.158 270.783C237.158 234.499 225.222 227.338 211.855 227.338C179.868 227.338 167.933 255.983 167.933 302.769C167.933 339.053 167.933 389.181 173.184 422.122ZM485.889 482.753C495.915 559.617 516.921 582.532 548.43 582.532C580.894 582.532 591.874 560.572 591.874 539.565C591.874 499.94 571.346 478.457 527.901 478.457C513.579 478.457 499.734 479.889 485.889 482.753Z"/>
<path d="M562.361 164.32C528.464 164.32 506.981 147.133 506.981 121.83C506.981 96.0501 528.942 78.3859 560.928 78.3859C593.87 78.3859 613.921 96.0501 613.921 121.83C613.921 147.133 593.392 164.32 562.361 164.32ZM608.192 422.122H512.71C517.961 391.09 517.961 342.872 517.961 308.498C517.961 274.125 517.961 225.906 512.71 192.965L608.192 183.416C602.941 216.358 602.941 266.486 602.941 302.769C602.941 339.053 602.941 389.181 608.192 422.122Z"/>
<path d="M642.763 299.427C642.763 239.751 667.589 178.642 762.116 178.642C817.496 178.642 844.744 195.352 856.679 217.233C856.679 217.233 864.636 241.104 836.787 251.05C854.69 221.212 807.948 187.395 762.116 187.395C737.768 187.395 715.807 208.242 715.807 266.963C715.807 332.846 736.813 367.697 796.49 367.697C876.218 367.697 894.837 303.247 894.837 285.582C915.843 284.15 936.849 294.653 936.849 328.072C936.849 388.703 880.514 441.219 796.967 441.219C685.73 441.219 642.763 374.381 642.763 299.427Z"/>
<path d="M1049.09 296.563V302.769C1049.09 339.053 1049.09 389.181 1054.34 422.122H958.862C964.114 389.658 964.114 339.053 964.114 302.769C964.114 266.963 964.114 225.906 958.862 192.965L1049.09 183.416V250.731H1051C1064.37 204.423 1086.81 178.642 1123.57 178.642C1157.94 178.642 1174.65 195.352 1174.65 224.474C1174.65 270.783 1146.01 288.447 1119.75 288.447C1107.34 288.447 1095.4 284.628 1087.29 277.944C1109.25 267.918 1119.75 203.945 1095.4 204.423C1078.21 204.423 1051.48 246.435 1049.09 296.563Z"/>
<path d="M1315.1 426.896C1229.64 426.896 1189.06 368.652 1189.06 298.473C1189.06 228.293 1230.12 176.733 1315.1 176.733C1399.6 176.733 1439.71 228.293 1439.71 299.905C1439.71 370.562 1399.6 426.896 1315.1 426.896ZM1338.97 415.438C1356.16 415.438 1358.55 384.407 1358.55 366.742C1358.55 289.402 1322.74 188.668 1288.84 188.668C1271.66 188.668 1268.31 218.267 1268.31 236.887C1268.31 301.814 1306.51 415.438 1338.97 415.438Z"/>
<path d="M1471.31 339.053V183.416C1397.79 158.114 1338.59 64.0635 1246.92 64.0635C1192.98 64.0635 1200.14 128.991 1245.97 121.83C1245.97 139.972 1224.01 166.23 1192.02 166.23C1137.12 166.23 1116.11 128.991 1116.11 87.9341C1116.11 41.6252 1148.58 2 1219.71 2C1340.02 2 1393.49 138.54 1483.72 174.823L1551.99 126.127H1557.24V183.416H1604.51V192.965H1557.24V336.665C1557.24 354.807 1563.45 371.994 1584.93 371.994C1589.23 371.994 1594.48 371.517 1600.69 369.607C1593.52 402.071 1573.47 426.896 1536.71 426.896C1481.81 426.896 1471.31 382.02 1471.31 339.053Z"/>
<path d="M1678.96 164.32C1645.07 164.32 1623.58 147.133 1623.58 121.83C1623.58 96.0501 1645.54 78.3859 1677.53 78.3859C1710.47 78.3859 1730.52 96.0501 1730.52 121.83C1730.52 147.133 1709.99 164.32 1678.96 164.32ZM1724.79 422.122H1629.31C1634.56 391.09 1634.56 342.872 1634.56 308.498C1634.56 274.125 1634.56 225.906 1629.31 192.965L1724.79 183.416C1719.54 216.358 1719.54 266.486 1719.54 302.769C1719.54 339.053 1719.54 389.181 1724.79 422.122Z"/>
<path d="M1768.06 304.202C1768.06 244.525 1792.88 183.416 1887.41 183.416C1942.79 183.416 1970.04 200.126 1981.97 222.008C1981.97 222.008 1989.93 245.878 1962.08 255.824C1979.98 225.986 1933.24 192.169 1887.41 192.169C1863.06 192.169 1841.1 213.016 1841.1 271.738C1841.1 337.62 1862.11 372.471 1921.78 372.471C2001.51 372.471 2020.13 308.021 2020.13 290.357C2041.14 288.924 2062.14 299.427 2062.14 332.846C2062.14 393.478 2005.81 445.993 1922.26 445.993C1811.02 445.993 1768.06 379.155 1768.06 304.202Z"/>
</mask>
<path d="M173.184 422.122H77.7021C82.9536 389.658 82.9536 339.053 82.9536 302.769C82.9536 266.963 82.9536 221.132 77.7021 188.191L167.933 183.416V245.957H170.32C176.526 208.242 198.487 176.733 243.364 176.733C301.131 176.733 318.318 206.332 322.614 245.957H325.956C332.162 208.242 354.123 176.733 399 176.733C468.225 176.733 479.205 219.7 479.205 270.783V354.807C479.205 402.071 481.115 440.264 484.457 470.818C512.624 464.134 542.224 459.838 574.21 459.838C611.926 459.838 657.28 471.296 657.28 522.379C657.28 568.688 609.061 590.648 557.978 590.648C497.824 590.648 445.786 563.913 417.142 505.669C317.84 551.023 224.745 636.48 111.598 636.48C40.464 636.48 8 596.855 8 550.546C8 509.488 29.0061 472.25 83.9084 472.25C115.895 472.25 137.856 498.508 137.856 516.65C92.0244 509.489 84.8633 574.416 138.811 574.416C242.409 574.416 323.092 527.63 411.89 493.734C399.955 464.134 392.794 427.851 392.794 383.452V270.783C392.794 234.499 380.858 227.338 367.491 227.338C336.459 227.338 324.524 254.073 323.569 297.995C323.569 335.711 324.524 385.839 327.388 422.122H231.906C237.158 377.246 237.158 307.066 237.158 270.783C237.158 234.499 225.222 227.338 211.855 227.338C179.868 227.338 167.933 255.983 167.933 302.769C167.933 339.053 167.933 389.181 173.184 422.122ZM485.889 482.753C495.915 559.617 516.921 582.532 548.43 582.532C580.894 582.532 591.874 560.572 591.874 539.565C591.874 499.94 571.346 478.457 527.901 478.457C513.579 478.457 499.734 479.889 485.889 482.753Z" fill="white"/>
<path d="M562.361 164.32C528.464 164.32 506.981 147.133 506.981 121.83C506.981 96.0501 528.942 78.3859 560.928 78.3859C593.87 78.3859 613.921 96.0501 613.921 121.83C613.921 147.133 593.392 164.32 562.361 164.32ZM608.192 422.122H512.71C517.961 391.09 517.961 342.872 517.961 308.498C517.961 274.125 517.961 225.906 512.71 192.965L608.192 183.416C602.941 216.358 602.941 266.486 602.941 302.769C602.941 339.053 602.941 389.181 608.192 422.122Z" fill="white"/>
<path d="M642.763 299.427C642.763 239.751 667.589 178.642 762.116 178.642C817.496 178.642 844.744 195.352 856.679 217.233C856.679 217.233 864.636 241.104 836.787 251.05C854.69 221.212 807.948 187.395 762.116 187.395C737.768 187.395 715.807 208.242 715.807 266.963C715.807 332.846 736.813 367.697 796.49 367.697C876.218 367.697 894.837 303.247 894.837 285.582C915.843 284.15 936.849 294.653 936.849 328.072C936.849 388.703 880.514 441.219 796.967 441.219C685.73 441.219 642.763 374.381 642.763 299.427Z" fill="white"/>
<path d="M1049.09 296.563V302.769C1049.09 339.053 1049.09 389.181 1054.34 422.122H958.862C964.114 389.658 964.114 339.053 964.114 302.769C964.114 266.963 964.114 225.906 958.862 192.965L1049.09 183.416V250.731H1051C1064.37 204.423 1086.81 178.642 1123.57 178.642C1157.94 178.642 1174.65 195.352 1174.65 224.474C1174.65 270.783 1146.01 288.447 1119.75 288.447C1107.34 288.447 1095.4 284.628 1087.29 277.944C1109.25 267.918 1119.75 203.945 1095.4 204.423C1078.21 204.423 1051.48 246.435 1049.09 296.563Z" fill="white"/>
<path d="M1315.1 426.896C1229.64 426.896 1189.06 368.652 1189.06 298.473C1189.06 228.293 1230.12 176.733 1315.1 176.733C1399.6 176.733 1439.71 228.293 1439.71 299.905C1439.71 370.562 1399.6 426.896 1315.1 426.896ZM1338.97 415.438C1356.16 415.438 1358.55 384.407 1358.55 366.742C1358.55 289.402 1322.74 188.668 1288.84 188.668C1271.66 188.668 1268.31 218.267 1268.31 236.887C1268.31 301.814 1306.51 415.438 1338.97 415.438Z" fill="white"/>
<path d="M1471.31 339.053V183.416C1397.79 158.114 1338.59 64.0635 1246.92 64.0635C1192.98 64.0635 1200.14 128.991 1245.97 121.83C1245.97 139.972 1224.01 166.23 1192.02 166.23C1137.12 166.23 1116.11 128.991 1116.11 87.9341C1116.11 41.6252 1148.58 2 1219.71 2C1340.02 2 1393.49 138.54 1483.72 174.823L1551.99 126.127H1557.24V183.416H1604.51V192.965H1557.24V336.665C1557.24 354.807 1563.45 371.994 1584.93 371.994C1589.23 371.994 1594.48 371.517 1600.69 369.607C1593.52 402.071 1573.47 426.896 1536.71 426.896C1481.81 426.896 1471.31 382.02 1471.31 339.053Z" fill="white"/>
<path d="M1678.96 164.32C1645.07 164.32 1623.58 147.133 1623.58 121.83C1623.58 96.0501 1645.54 78.3859 1677.53 78.3859C1710.47 78.3859 1730.52 96.0501 1730.52 121.83C1730.52 147.133 1709.99 164.32 1678.96 164.32ZM1724.79 422.122H1629.31C1634.56 391.09 1634.56 342.872 1634.56 308.498C1634.56 274.125 1634.56 225.906 1629.31 192.965L1724.79 183.416C1719.54 216.358 1719.54 266.486 1719.54 302.769C1719.54 339.053 1719.54 389.181 1724.79 422.122Z" fill="white"/>
<path d="M1768.06 304.202C1768.06 244.525 1792.88 183.416 1887.41 183.416C1942.79 183.416 1970.04 200.126 1981.97 222.008C1981.97 222.008 1989.93 245.878 1962.08 255.824C1979.98 225.986 1933.24 192.169 1887.41 192.169C1863.06 192.169 1841.1 213.016 1841.1 271.738C1841.1 337.62 1862.11 372.471 1921.78 372.471C2001.51 372.471 2020.13 308.021 2020.13 290.357C2041.14 288.924 2062.14 299.427 2062.14 332.846C2062.14 393.478 2005.81 445.993 1922.26 445.993C1811.02 445.993 1768.06 379.155 1768.06 304.202Z" fill="white"/>
<path d="M173.184 422.122H77.7021C82.9536 389.658 82.9536 339.053 82.9536 302.769C82.9536 266.963 82.9536 221.132 77.7021 188.191L167.933 183.416V245.957H170.32C176.526 208.242 198.487 176.733 243.364 176.733C301.131 176.733 318.318 206.332 322.614 245.957H325.956C332.162 208.242 354.123 176.733 399 176.733C468.225 176.733 479.205 219.7 479.205 270.783V354.807C479.205 402.071 481.115 440.264 484.457 470.818C512.624 464.134 542.224 459.838 574.21 459.838C611.926 459.838 657.28 471.296 657.28 522.379C657.28 568.688 609.061 590.648 557.978 590.648C497.824 590.648 445.786 563.913 417.142 505.669C317.84 551.023 224.745 636.48 111.598 636.48C40.464 636.48 8 596.855 8 550.546C8 509.488 29.0061 472.25 83.9084 472.25C115.895 472.25 137.856 498.508 137.856 516.65C92.0244 509.489 84.8633 574.416 138.811 574.416C242.409 574.416 323.092 527.63 411.89 493.734C399.955 464.134 392.794 427.851 392.794 383.452V270.783C392.794 234.499 380.858 227.338 367.491 227.338C336.459 227.338 324.524 254.073 323.569 297.995C323.569 335.711 324.524 385.839 327.388 422.122H231.906C237.158 377.246 237.158 307.066 237.158 270.783C237.158 234.499 225.222 227.338 211.855 227.338C179.868 227.338 167.933 255.983 167.933 302.769C167.933 339.053 167.933 389.181 173.184 422.122ZM485.889 482.753C495.915 559.617 516.921 582.532 548.43 582.532C580.894 582.532 591.874 560.572 591.874 539.565C591.874 499.94 571.346 478.457 527.901 478.457C513.579 478.457 499.734 479.889 485.889 482.753Z" stroke="#840303" stroke-width="4" mask="url(#path-1-outside-1_339_143)"/>
<path d="M562.361 164.32C528.464 164.32 506.981 147.133 506.981 121.83C506.981 96.0501 528.942 78.3859 560.928 78.3859C593.87 78.3859 613.921 96.0501 613.921 121.83C613.921 147.133 593.392 164.32 562.361 164.32ZM608.192 422.122H512.71C517.961 391.09 517.961 342.872 517.961 308.498C517.961 274.125 517.961 225.906 512.71 192.965L608.192 183.416C602.941 216.358 602.941 266.486 602.941 302.769C602.941 339.053 602.941 389.181 608.192 422.122Z" stroke="#840303" stroke-width="4" mask="url(#path-1-outside-1_339_143)"/>
<path d="M642.763 299.427C642.763 239.751 667.589 178.642 762.116 178.642C817.496 178.642 844.744 195.352 856.679 217.233C856.679 217.233 864.636 241.104 836.787 251.05C854.69 221.212 807.948 187.395 762.116 187.395C737.768 187.395 715.807 208.242 715.807 266.963C715.807 332.846 736.813 367.697 796.49 367.697C876.218 367.697 894.837 303.247 894.837 285.582C915.843 284.15 936.849 294.653 936.849 328.072C936.849 388.703 880.514 441.219 796.967 441.219C685.73 441.219 642.763 374.381 642.763 299.427Z" stroke="#840303" stroke-width="4" mask="url(#path-1-outside-1_339_143)"/>
<path d="M1049.09 296.563V302.769C1049.09 339.053 1049.09 389.181 1054.34 422.122H958.862C964.114 389.658 964.114 339.053 964.114 302.769C964.114 266.963 964.114 225.906 958.862 192.965L1049.09 183.416V250.731H1051C1064.37 204.423 1086.81 178.642 1123.57 178.642C1157.94 178.642 1174.65 195.352 1174.65 224.474C1174.65 270.783 1146.01 288.447 1119.75 288.447C1107.34 288.447 1095.4 284.628 1087.29 277.944C1109.25 267.918 1119.75 203.945 1095.4 204.423C1078.21 204.423 1051.48 246.435 1049.09 296.563Z" stroke="#840303" stroke-width="4" mask="url(#path-1-outside-1_339_143)"/>
<path d="M1315.1 426.896C1229.64 426.896 1189.06 368.652 1189.06 298.473C1189.06 228.293 1230.12 176.733 1315.1 176.733C1399.6 176.733 1439.71 228.293 1439.71 299.905C1439.71 370.562 1399.6 426.896 1315.1 426.896ZM1338.97 415.438C1356.16 415.438 1358.55 384.407 1358.55 366.742C1358.55 289.402 1322.74 188.668 1288.84 188.668C1271.66 188.668 1268.31 218.267 1268.31 236.887C1268.31 301.814 1306.51 415.438 1338.97 415.438Z" stroke="#840303" stroke-width="4" mask="url(#path-1-outside-1_339_143)"/>
<path d="M1471.31 339.053V183.416C1397.79 158.114 1338.59 64.0635 1246.92 64.0635C1192.98 64.0635 1200.14 128.991 1245.97 121.83C1245.97 139.972 1224.01 166.23 1192.02 166.23C1137.12 166.23 1116.11 128.991 1116.11 87.9341C1116.11 41.6252 1148.58 2 1219.71 2C1340.02 2 1393.49 138.54 1483.72 174.823L1551.99 126.127H1557.24V183.416H1604.51V192.965H1557.24V336.665C1557.24 354.807 1563.45 371.994 1584.93 371.994C1589.23 371.994 1594.48 371.517 1600.69 369.607C1593.52 402.071 1573.47 426.896 1536.71 426.896C1481.81 426.896 1471.31 382.02 1471.31 339.053Z" stroke="#840303" stroke-width="4" mask="url(#path-1-outside-1_339_143)"/>
<path d="M1678.96 164.32C1645.07 164.32 1623.58 147.133 1623.58 121.83C1623.58 96.0501 1645.54 78.3859 1677.53 78.3859C1710.47 78.3859 1730.52 96.0501 1730.52 121.83C1730.52 147.133 1709.99 164.32 1678.96 164.32ZM1724.79 422.122H1629.31C1634.56 391.09 1634.56 342.872 1634.56 308.498C1634.56 274.125 1634.56 225.906 1629.31 192.965L1724.79 183.416C1719.54 216.358 1719.54 266.486 1719.54 302.769C1719.54 339.053 1719.54 389.181 1724.79 422.122Z" stroke="#840303" stroke-width="4" mask="url(#path-1-outside-1_339_143)"/>
<path d="M1768.06 304.202C1768.06 244.525 1792.88 183.416 1887.41 183.416C1942.79 183.416 1970.04 200.126 1981.97 222.008C1981.97 222.008 1989.93 245.878 1962.08 255.824C1979.98 225.986 1933.24 192.169 1887.41 192.169C1863.06 192.169 1841.1 213.016 1841.1 271.738C1841.1 337.62 1862.11 372.471 1921.78 372.471C2001.51 372.471 2020.13 308.021 2020.13 290.357C2041.14 288.924 2062.14 299.427 2062.14 332.846C2062.14 393.478 2005.81 445.993 1922.26 445.993C1811.02 445.993 1768.06 379.155 1768.06 304.202Z" stroke="#840303" stroke-width="4" mask="url(#path-1-outside-1_339_143)"/>
</g>
<defs>
<filter id="filter0_d_339_143" x="0" y="0" width="2070.14" height="650.48" filterUnits="userSpaceOnUse" color-interpolation-filters="sRGB">
<feFlood flood-opacity="0" result="BackgroundImageFix"/>
<feColorMatrix in="SourceAlpha" type="matrix" values="0 0 0 0 0 0 0 0 0 0 0 0 0 0 0 0 0 0 127 0" result="hardAlpha"/>
<feOffset dy="6"/>
<feGaussianBlur stdDeviation="3"/>
<feComposite in2="hardAlpha" operator="out"/>
<feColorMatrix type="matrix" values="0 0 0 0 0 0 0 0 0 0 0 0 0 0 0 0 0 0 0.25 0"/>
<feBlend mode="normal" in2="BackgroundImageFix" result="effect1_dropShadow_339_143"/>
<feBlend mode="normal" in="SourceGraphic" in2="effect1_dropShadow_339_143" result="shape"/>
</filter>
</defs>
</svg>
