<svg width="444" height="50" viewBox="0 0 444 50" fill="none" xmlns="http://www.w3.org/2000/svg">
<path d="M0.418701 33.25C0.418701 23.66 6.5087 16.45 16.3787 16.45C23.3787 16.45 28.2787 19.6 30.7287 24.71C34.9287 22.19 39.1987 19.67 43.3987 17.22H44.0987V22.26C46.6187 18.48 49.9787 16.66 55.1587 16.52C62.9987 16.31 66.9187 20.44 67.0587 26.11L67.2687 44.52C67.3387 48.02 69.3687 48.79 70.5587 48.79V49H58.7987V48.79C60.1987 48.79 62.0187 48.02 62.0187 44.52L61.8087 26.46C61.8087 24.36 61.6687 17.36 54.1787 17.36C48.7887 17.36 44.6587 22.61 44.6587 27.72L44.7287 44.52C44.7287 48.02 46.8287 48.79 47.9487 48.79V49H36.2587V48.79C37.6587 48.79 39.4087 48.02 39.4087 44.52V23.73C39.4087 22.4 39.4787 21.07 38.6387 21.07C38.4287 21.07 38.2187 21.14 37.8687 21.35C32.0587 24.85 24.0787 30.17 17.0787 30.38C11.2687 30.59 8.6787 27.3 8.6787 24.01C8.6787 21.7 9.7987 19.53 11.9687 18.13C7.4187 20.02 5.7387 25.55 5.7387 30.73C5.7387 37.59 8.3987 48.93 17.0787 48.93C24.6387 48.93 27.2287 42.77 27.2287 36.19C27.2287 34.16 26.9487 31.36 26.3887 28.84L31.3587 26.18C32.0587 28.28 32.4787 30.73 32.4787 33.25C32.4787 43.12 26.4587 49.77 16.4487 49.77C6.4387 49.77 0.418701 43.12 0.418701 33.25ZM15.8887 17.5C11.4787 17.78 9.5887 21.07 9.5187 23.73C9.5187 26.88 12.1087 29.82 17.0787 29.68C20.0187 29.54 23.0287 28.63 25.9687 27.23C24.4287 22.12 21.4187 17.22 15.8887 17.5Z" fill="#15303F"/>
<path d="M73.9439 5.74L81.6439 0H81.9239V23.24C83.9539 19.11 87.8739 16.73 92.5639 16.52C102.714 16.1 107.404 22.82 107.404 32.41C107.404 42.77 101.594 49.77 90.8839 49.77C86.8939 49.77 83.4639 48.44 81.0139 45.29L76.6739 49.21V8.33C76.6739 6.44 76.6039 5.81 74.2939 5.88H73.9439V5.74ZM81.9239 29.33V44.59C83.6039 47.53 86.8939 49 90.1139 49C98.9339 49 101.804 40.6 101.804 33.18C101.804 26.88 100.124 17.5 91.5139 17.5C85.4239 17.5 81.9239 23.73 81.9239 29.33Z" fill="#15303F"/>
<path d="M128.832 49.77C118.822 49.77 112.802 43.12 112.802 33.25C112.802 23.66 118.892 16.45 128.762 16.45C139.122 16.45 144.862 23.24 144.862 33.25C144.862 43.12 138.842 49.77 128.832 49.77ZM118.122 30.73C118.122 37.59 120.782 48.93 129.462 48.93C137.022 48.93 139.612 42.77 139.612 36.19C139.612 29.26 137.022 17.43 128.132 17.43C120.642 17.43 118.122 24.29 118.122 30.73Z" fill="#15303F"/>
<path d="M149.369 43.26C149.299 40.53 150.629 37.59 152.729 35.91C155.879 33.39 158.959 32.2 161.829 31.01C167.849 28.56 170.229 26.88 170.159 22.4C170.089 19.25 167.849 16.52 162.669 17.22C158.119 17.85 153.779 22.33 150.559 27.72V21.98C153.359 18.34 158.469 16.66 162.739 16.52C170.369 16.31 174.919 19.6 174.919 27.65V40.6C177.579 38.92 183.319 34.3 185.559 31.29V24.22C185.559 22.26 185.489 21.77 183.179 21.77H182.829V21.63L189.969 17.22H190.389V25.13C192.839 21.21 196.479 16.52 201.729 16.52C203.269 16.52 205.509 16.8 206.419 18.2V24.29C205.999 22.89 203.689 20.37 200.329 20.37C197.739 20.37 194.379 21.35 190.669 26.11C186.749 31.92 180.799 37.45 174.989 41.3C168.199 45.78 166.239 49.98 157.419 49.77C153.289 49.63 149.579 47.88 149.369 43.26ZM169.669 28.35C163.229 30.66 154.899 34.37 154.899 42C154.899 46.55 157.699 48.72 160.709 48.79C162.669 48.86 164.559 48.09 166.449 46.9C167.639 46.13 168.759 45.22 169.879 44.31L169.669 28.35ZM182.409 48.79C183.809 48.79 185.559 48.02 185.559 44.52V33.53L190.809 27.37V44.52C190.809 48.02 192.979 48.79 194.099 48.79V49H182.409V48.79ZM174.219 49.35C171.349 49.35 170.229 47.25 169.879 45.78L174.919 42.14V43.47C174.919 45.29 175.199 47.18 177.649 47.11C178.209 47.11 178.909 46.9 179.469 46.34V46.69C178.629 48.16 176.669 49.35 174.219 49.35Z" fill="#15303F"/>
<path d="M209.934 33.88C209.934 23.52 215.744 16.52 226.454 16.52C229.884 16.52 233.034 17.57 235.414 19.88V8.33C235.344 6.44 235.344 5.74 233.034 5.88H232.684V5.74L240.174 0H240.664V44.24C240.664 46.27 240.874 46.48 243.744 46.48H244.094V46.76L236.184 49.35H235.414V43.05C233.384 47.18 229.394 49.56 224.774 49.77C214.554 50.19 209.934 43.47 209.934 33.88ZM227.224 17.29C218.404 17.29 215.534 25.69 215.534 33.11C215.534 39.41 217.144 48.79 225.754 48.79C231.914 48.79 235.414 42.56 235.414 36.96V21.7C233.664 18.76 230.444 17.29 227.224 17.29Z" fill="#15303F"/>
<path d="M260.903 17.22H265.243V11.41C265.243 4.48 270.003 0 277.213 0C280.783 0 286.873 1.12 290.023 4.76V13.44C286.593 7.35 283.933 1.19 276.093 0.910001C271.193 0.699999 267.693 4.06 267.693 9.03C267.693 15.12 272.383 17.22 277.633 17.22V17.85H270.493V44.52C270.493 48.02 272.663 48.79 273.783 48.79V49H262.093V48.79C263.493 48.79 265.243 48.02 265.243 44.52V21.77C265.243 19.39 265.523 17.85 260.903 17.85V17.22ZM281.693 49V48.79C283.093 48.79 284.843 48.02 284.843 44.52V24.22C284.843 22.26 284.843 21.77 282.463 21.77H282.113V21.63L289.673 17.22H290.093L290.163 44.52C290.163 48.02 292.263 48.79 293.383 48.79V49H281.693Z" fill="#15303F"/>
<path d="M294.569 17.85V17.22C301.499 16.52 304.299 13.09 304.999 7.14H305.489L305.419 17.22H312.489V17.85H305.419V41.23C305.419 44.8 307.169 47.11 310.739 47.11C312.209 47.11 313.749 46.69 314.659 46.13V46.34C313.259 48.3 310.179 49.35 306.959 49.35C303.599 49.35 300.169 47.46 300.169 41.65V21.14C300.169 18.69 299.889 17.85 297.159 17.85H294.569Z" fill="#15303F"/>
<path d="M316.97 48.79C318.37 48.79 320.12 48.02 320.12 44.52V24.22C320.12 22.26 320.05 21.77 317.74 21.77H317.39V21.63L324.39 17.22H324.81V22.26C327.33 18.48 330.69 16.66 335.87 16.52C343.71 16.31 347.63 20.44 347.77 26.11L347.98 44.52C348.05 48.02 350.08 48.79 351.27 48.79V49H339.51V48.79C340.91 48.79 342.73 48.02 342.73 44.52L342.52 26.46C342.52 24.36 342.38 17.36 334.89 17.36C329.5 17.36 325.37 22.61 325.37 27.72L325.44 44.52C325.44 48.02 327.54 48.79 328.66 48.79V49H316.97V48.79Z" fill="#15303F"/>
<path d="M356.027 33.11C356.027 23.73 362.537 16.52 372.267 16.52C381.857 16.52 385.917 23.24 384.797 30.24L361.557 33.95C362.327 41.37 366.317 47.95 374.647 47.95C379.057 47.95 382.067 45.57 384.517 42.56L384.867 42.84C382.627 46.48 378.217 49.77 371.777 49.77C361.697 49.77 356.027 42.84 356.027 33.11ZM364.567 21.07C362.117 23.94 361.207 28.63 361.487 33.18L374.157 30.8C375.557 30.52 376.607 30.03 377.587 29.54C379.827 28.42 380.807 26.46 380.737 24.5C380.597 19.46 377.027 17.29 373.107 17.29C369.957 17.29 366.597 18.69 364.567 21.07Z" fill="#15303F"/>
<path d="M409.309 43.4C409.309 34.79 390.129 35.98 390.199 25.55C390.269 19.04 396.499 16.52 402.099 16.52C404.339 16.52 409.519 17.08 412.179 18.83V25.55C411.549 24.5 410.639 17.22 401.959 17.22C398.669 17.22 394.749 18.97 394.609 22.75C394.189 31.43 414.069 30.1 414.069 40.81C414.069 47.81 407.839 49.77 402.099 49.77C399.859 49.77 394.119 49.21 390.829 47.25L390.759 40.6C391.319 42.14 393.699 48.79 402.099 49.07C406.579 49.21 409.309 47.18 409.309 43.4Z" fill="#15303F"/>
<path d="M438.635 43.4C438.635 34.79 419.455 35.98 419.525 25.55C419.595 19.04 425.825 16.52 431.425 16.52C433.665 16.52 438.845 17.08 441.505 18.83V25.55C440.875 24.5 439.965 17.22 431.285 17.22C427.995 17.22 424.075 18.97 423.935 22.75C423.515 31.43 443.395 30.1 443.395 40.81C443.395 47.81 437.165 49.77 431.425 49.77C429.185 49.77 423.445 49.21 420.155 47.25L420.085 40.6C420.645 42.14 423.025 48.79 431.425 49.07C435.905 49.21 438.635 47.18 438.635 43.4Z" fill="#15303F"/>
</svg>
