<svg width="1418" height="456" viewBox="0 0 1418 456" fill="none" xmlns="http://www.w3.org/2000/svg">
<g filter="url(#filter0_d_394_210)">
<path d="M4 440V438.2C6.8 438.2 9.8 437.8 13 437C16.2 435.8 19.2 434 22 431.6C24.8 428.8 27 425 28.6 420.2C30.2 415.4 31 409.2 31 401.6V91.4C31 83.4 30 77.8 28 74.6C26.4 71.4 20.6 70 10.6 70.4H7.6V69.2L72.4 20H76V401.6C76 409.2 77 415.4 79 420.2C81 425 83.4 428.8 86.2 431.6C89.4 434 92.6 435.8 95.8 437C99 437.8 101.8 438.2 104.2 438.2V440H4Z" fill="#A20E0E"/>
<path d="M153.419 236C165.019 212.4 181.819 194.2 203.819 181.4C225.819 168.2 250.419 161.6 277.619 161.6C298.019 161.6 315.619 165 330.419 171.8C345.219 178.2 357.019 187 365.819 198.2C374.619 209 380.619 221.6 383.819 236C387.019 250 387.419 264.4 385.019 279.2L185.819 311C187.019 323 189.219 334.6 192.419 345.8C195.619 356.6 199.419 366.4 203.819 375.2C214.619 395.2 228.419 409.6 245.219 418.4C262.419 426.8 280.019 431 298.019 431C317.219 431 333.419 426.6 346.619 417.8C360.219 408.6 372.219 397.6 382.619 384.8L385.619 387.2C376.019 402.8 361.819 416.6 343.019 428.6C324.219 440.6 301.019 446.6 273.419 446.6C253.419 446.6 234.419 443.2 216.419 436.4C198.819 429.2 183.819 418.4 171.419 404C161.019 392.4 152.819 378.4 146.819 362C141.219 345.2 138.419 325.8 138.419 303.8C138.419 278.6 143.419 256 153.419 236ZM185.219 304.4L293.819 284C299.819 282.8 305.019 281.2 309.419 279.2C314.219 277.2 318.819 275.2 323.219 273.2C332.819 268.4 339.819 262.2 344.219 254.6C348.619 246.6 350.619 238.4 350.219 230C349.819 210.4 344.219 195.8 333.419 186.2C322.619 176.2 309.819 170.4 295.019 168.8C280.219 167.2 265.019 169.2 249.419 174.8C233.819 180.4 221.219 189 211.619 200.6C201.219 213 193.819 228.6 189.419 247.4C185.419 265.8 184.019 284.8 185.219 304.4Z" fill="#A20E0E"/>
<path d="M412.83 169.4V167.6H523.23V169.4C518.03 170.6 513.83 172.4 510.63 174.8C507.83 177.2 505.83 180 504.63 183.2C503.43 186.4 503.03 189.8 503.43 193.4C503.83 196.6 504.63 199.4 505.83 201.8L577.23 352.4C584.03 366.4 588.83 373.4 591.63 373.4C594.83 373.4 599.63 366.4 606.03 352.4L670.83 208.4C672.03 204 671.83 199.6 670.23 195.2C668.63 190.4 666.23 186.2 663.03 182.6C659.83 179 656.23 176 652.23 173.6C648.23 170.8 644.43 169.4 640.83 169.4V167.6H724.83V169.4C715.63 171 706.63 175.8 697.83 183.8C689.43 191.8 682.23 201.2 676.23 212L571.23 443L453.63 198.8C451.23 194.4 448.23 190.4 444.63 186.8C441.03 183.2 437.23 180.2 433.23 177.8C429.63 175 425.83 173 421.83 171.8C418.23 170.2 415.23 169.4 412.83 169.4Z" fill="#A20E0E"/>
<path d="M772.192 125.4C763.792 125.4 756.592 122.4 750.592 116.4C744.592 110.4 741.592 103.2 741.592 94.8C741.592 94 741.592 93.4 741.592 93C741.992 92.6 742.192 92 742.192 91.2C742.192 76.4 744.992 63.4 750.592 52.2C756.192 40.6 763.592 31 772.792 23.4C781.992 15.8 792.192 9.99999 803.392 5.99999C814.992 2 826.792 0 838.792 0C850.392 0 861.592 1.8 872.392 5.4C883.592 8.60001 893.392 13.6 901.792 20.4C910.192 27.2 916.792 36 921.592 46.8C926.792 57.2 929.392 69.2 929.392 82.8L928.792 168H989.392V173.4H928.792V373.8C928.792 383.4 930.392 392.2 933.592 400.2C936.792 407.8 942.192 413.8 949.792 418.2C953.792 420.6 958.392 422.2 963.592 423C968.792 423.8 973.992 424 979.192 423.6C984.792 423.2 989.992 422.4 994.792 421.2C999.992 419.6 1004.39 417.8 1007.99 415.8V417.6C1001.99 426 992.992 432.4 980.992 436.8C968.992 441.2 955.992 443.4 941.992 443.4C934.792 443.4 927.592 442.4 920.392 440.4C913.592 438 907.392 434.2 901.792 429C896.192 423.8 891.792 417 888.592 408.6C885.392 400.2 883.792 389.8 883.792 377.4V201.6C883.792 191.2 882.392 184 879.592 180C876.792 175.6 869.592 173.4 857.992 173.4H835.192V168C854.792 167.2 870.992 162.6 883.792 154.2C896.592 145.4 905.992 135 911.992 123C918.392 111 921.592 98.2 921.592 84.6C921.592 70.6 918.392 57.8 911.992 46.2C905.592 34.6 896.192 25 883.792 17.4C871.792 9.79999 856.792 5.99999 838.792 5.99999C828.792 5.99999 818.992 7.6 809.392 10.8C799.792 13.6 790.992 18 782.992 24C774.992 29.6 767.992 36.6 761.992 45C756.392 53.4 752.392 63.2 749.992 74.4C756.392 68 763.792 64.8 772.192 64.8C780.992 64.8 788.192 67.8 793.792 73.8C799.792 79.8 802.792 86.8 802.792 94.8C802.792 103.2 799.792 110.4 793.792 116.4C788.192 122.4 780.992 125.4 772.192 125.4ZM724.792 438.6C727.592 438.6 730.592 438.2 733.792 437.4C736.992 436.2 739.992 434.4 742.792 432C745.592 429.2 747.792 425.4 749.392 420.6C750.992 415.8 751.792 409.6 751.792 402V228C751.792 219.6 750.792 214 748.792 211.2C747.192 208.4 741.392 207 731.392 207H728.392V205.8L793.192 168H796.792L797.392 402C797.392 409.6 798.392 415.8 800.392 420.6C802.392 425.4 804.792 429.2 807.592 432C810.392 434.4 813.392 436.2 816.592 437.4C819.792 438.2 822.592 438.6 824.992 438.6V440.4H724.792V438.6Z" fill="#E77100"/>
<path d="M1062.59 328.2C1076.19 317.4 1089.39 309 1102.19 303C1115.39 297 1128.19 291.4 1140.59 286.2C1153.39 281 1164.39 276 1173.59 271.2C1182.79 266.4 1190.19 261.4 1195.79 256.2C1201.39 250.6 1205.39 244.4 1207.79 237.6C1210.59 230.4 1211.99 222 1211.99 212.4C1211.99 205.6 1210.59 199.2 1207.79 193.2C1205.39 187.2 1201.59 182.2 1196.39 178.2C1191.19 173.8 1184.59 170.6 1176.59 168.6C1168.59 166.6 1158.99 166.4 1147.79 168C1128.19 170.8 1109.39 180.8 1091.39 198C1073.79 214.8 1057.99 234.8 1043.99 258V208.8C1049.99 201.2 1056.99 194.6 1064.99 189C1073.39 183 1082.19 178.2 1091.39 174.6C1100.59 170.6 1109.99 167.6 1119.59 165.6C1129.59 163.6 1139.19 162.4 1148.39 162C1181.19 161.2 1206.79 168.2 1225.19 183C1243.59 197.8 1252.79 222.6 1252.79 257.4V393C1252.79 401 1253.99 408.4 1256.39 415.2C1259.19 421.6 1265.79 424.6 1276.19 424.2C1278.59 424.2 1281.19 423.8 1283.99 423C1286.79 421.8 1289.39 420 1291.79 417.6V420.6C1288.19 427 1282.39 432.4 1274.39 436.8C1266.39 441.2 1257.19 443.4 1246.79 443.4C1239.59 443.4 1233.59 442 1228.79 439.2C1223.99 436.4 1219.99 433 1216.79 429C1213.99 425 1211.99 421 1210.79 417C1209.59 412.6 1208.99 409 1208.99 406.2C1202.99 413 1196.59 419 1189.79 424.2C1183.39 429 1175.99 433.2 1167.59 436.8C1159.59 440.4 1150.19 443 1139.39 444.6C1128.99 446.6 1116.79 447.4 1102.79 447C1092.39 446.6 1082.79 445 1073.99 442.2C1065.19 439.8 1057.99 436.2 1052.39 431.4C1046.39 426.2 1041.79 420.2 1038.59 413.4C1035.79 406.6 1034.19 399.2 1033.79 391.2C1033.39 379.6 1035.79 368 1040.99 356.4C1046.19 344.8 1053.39 335.4 1062.59 328.2ZM1081.19 380.4C1081.19 400 1086.19 414.6 1096.19 424.2C1106.59 433.4 1118.19 438.2 1130.99 438.6C1138.99 439 1147.39 437.8 1156.19 435C1165.39 431.8 1173.79 427.8 1181.39 423C1188.99 418.2 1195.19 412.6 1199.99 406.2C1205.19 399.4 1207.79 392.6 1207.79 385.8V263.4C1193.79 268.2 1179.39 274 1164.59 280.8C1149.79 287.6 1136.19 295.6 1123.79 304.8C1111.39 314 1101.19 324.8 1093.19 337.2C1085.19 349.6 1081.19 364 1081.19 380.4Z" fill="#E77100"/>
<path d="M1313.7 440.4V438.6C1316.5 438.6 1319.5 438.2 1322.7 437.4C1325.9 436.2 1328.9 434.4 1331.7 432C1334.5 429.2 1336.7 425.4 1338.3 420.6C1339.9 415.8 1340.7 409.6 1340.7 402V91.8C1340.7 83.8 1339.7 78.2 1337.7 75C1336.1 71.8 1330.3 70.4 1320.3 70.8H1317.3V69.6L1382.1 20.4H1385.7V402C1385.7 409.6 1386.7 415.8 1388.7 420.6C1390.7 425.4 1393.1 429.2 1395.9 432C1399.1 434.4 1402.3 436.2 1405.5 437.4C1408.7 438.2 1411.5 438.6 1413.9 438.6V440.4H1313.7Z" fill="#E77100"/>
</g>
<defs>
<filter id="filter0_d_394_210" x="0" y="0" width="1417.9" height="455.1" filterUnits="userSpaceOnUse" color-interpolation-filters="sRGB">
<feFlood flood-opacity="0" result="BackgroundImageFix"/>
<feColorMatrix in="SourceAlpha" type="matrix" values="0 0 0 0 0 0 0 0 0 0 0 0 0 0 0 0 0 0 127 0" result="hardAlpha"/>
<feOffset dy="4"/>
<feGaussianBlur stdDeviation="2"/>
<feComposite in2="hardAlpha" operator="out"/>
<feColorMatrix type="matrix" values="0 0 0 0 0 0 0 0 0 0 0 0 0 0 0 0 0 0 0.25 0"/>
<feBlend mode="normal" in2="BackgroundImageFix" result="effect1_dropShadow_394_210"/>
<feBlend mode="normal" in="SourceGraphic" in2="effect1_dropShadow_394_210" result="shape"/>
</filter>
</defs>
</svg>
