<svg width="504" height="380" viewBox="0 0 504 380" fill="none" xmlns="http://www.w3.org/2000/svg">
<path d="M23.1094 378.471H5.48263C5.07742 378.471 4.87481 378.216 4.87481 377.707L5.17872 270.142C5.17872 269.734 5.38133 269.53 5.78654 269.53H24.7809C25.1862 269.53 25.5407 269.734 25.8446 270.142L40.0524 290.783L54.1843 270.142C54.4882 269.734 54.8681 269.53 55.3239 269.53H74.3943C74.8502 269.53 75.0781 269.734 75.0781 270.142L75.382 377.707C75.382 378.216 75.1794 378.471 74.7742 378.471H57.1474C56.7422 378.471 56.5396 378.216 56.5396 377.707L56.3876 297.817L40.0524 321.669L23.8692 297.817L23.7173 377.707C23.7173 378.216 23.5146 378.471 23.1094 378.471Z" fill="#301D79"/>
<path d="M130.787 380C125.316 380 120.251 378.573 115.591 375.719C110.931 372.865 107.208 369.042 104.422 364.251C101.687 359.41 100.32 354.135 100.32 348.426L100.624 270.142C100.624 269.734 100.826 269.53 101.231 269.53H118.706C119.112 269.53 119.314 269.734 119.314 270.142V348.426C119.314 351.943 120.428 354.95 122.657 357.447C124.886 359.894 127.596 361.117 130.787 361.117C134.13 361.117 136.916 359.894 139.144 357.447C141.373 354.95 142.487 351.943 142.487 348.426V270.142C142.487 269.734 142.69 269.53 143.095 269.53H160.57C160.975 269.53 161.178 269.734 161.178 270.142L161.482 348.426C161.482 354.186 160.114 359.486 157.379 364.328C154.593 369.119 150.895 372.941 146.286 375.795C141.677 378.598 136.51 380 130.787 380Z" fill="#301D79"/>
<path d="M213.847 380C208.326 380 203.236 378.573 198.576 375.719C193.966 372.865 190.269 369.068 187.483 364.328C184.748 359.537 183.38 354.287 183.38 348.579V341.393C183.38 340.832 183.634 340.552 184.14 340.552H201.615C202.02 340.552 202.223 340.832 202.223 341.393V348.579C202.223 351.994 203.362 354.95 205.642 357.447C207.921 359.894 210.656 361.117 213.847 361.117C217.089 361.117 219.85 359.868 222.129 357.371C224.408 354.823 225.548 351.892 225.548 348.579C225.548 344.757 223.066 341.418 218.102 338.564C217.292 338.055 216.228 337.443 214.911 336.73C213.645 335.965 212.125 335.099 210.352 334.13C208.579 333.162 206.857 332.219 205.186 331.302C203.514 330.333 201.893 329.416 200.323 328.549C194.65 325.186 190.421 320.981 187.635 315.935C184.9 310.839 183.532 305.13 183.532 298.811C183.532 293 184.95 287.751 187.787 283.062C190.623 278.424 194.321 274.754 198.88 272.053C203.489 269.301 208.478 267.925 213.847 267.925C219.368 267.925 224.433 269.301 229.043 272.053C233.652 274.856 237.324 278.577 240.06 283.215C242.845 287.853 244.238 293.051 244.238 298.811V311.654C244.238 312.062 244.036 312.266 243.63 312.266H226.156C225.75 312.266 225.548 312.062 225.548 311.654L225.396 298.811C225.396 295.141 224.256 292.159 221.977 289.866C219.698 287.573 216.988 286.426 213.847 286.426C210.656 286.426 207.921 287.649 205.642 290.095C203.362 292.542 202.223 295.447 202.223 298.811C202.223 302.225 202.932 305.079 204.35 307.373C205.819 309.666 208.478 311.858 212.328 313.948C212.733 314.151 213.67 314.661 215.139 315.477C216.608 316.292 218.229 317.209 220.001 318.229C221.825 319.197 223.471 320.089 224.94 320.905C226.409 321.669 227.295 322.128 227.599 322.281C232.766 325.186 236.843 328.753 239.832 332.984C242.871 337.214 244.39 342.412 244.39 348.579C244.39 354.542 243.023 359.894 240.287 364.634C237.502 369.374 233.804 373.12 229.195 375.872C224.585 378.624 219.47 380 213.847 380Z" fill="#301D79"/>
<path d="M319.777 378.471H269.48C269.075 378.471 268.872 378.216 268.872 377.707L269.024 270.142C269.024 269.734 269.227 269.53 269.632 269.53H319.625C320.03 269.53 320.233 269.785 320.233 270.295V287.802C320.233 288.21 320.03 288.413 319.625 288.413H287.715V312.877H319.625C320.03 312.877 320.233 313.081 320.233 313.489L320.385 331.225C320.385 331.633 320.182 331.837 319.777 331.837H287.715V359.206H319.777C320.182 359.206 320.385 359.461 320.385 359.97V377.859C320.385 378.267 320.182 378.471 319.777 378.471Z" fill="#301D79"/>
<path d="M376.549 380C371.079 380 366.014 378.573 361.354 375.719C356.694 372.865 352.971 369.042 350.185 364.251C347.45 359.41 346.082 354.135 346.082 348.426L346.386 270.142C346.386 269.734 346.589 269.53 346.994 269.53H364.469C364.874 269.53 365.077 269.734 365.077 270.142V348.426C365.077 351.943 366.191 354.95 368.42 357.447C370.648 359.894 373.358 361.117 376.549 361.117C379.892 361.117 382.678 359.894 384.907 357.447C387.136 354.95 388.25 351.943 388.25 348.426V270.142C388.25 269.734 388.453 269.53 388.858 269.53H406.333C406.738 269.53 406.94 269.734 406.94 270.142L407.244 348.426C407.244 354.186 405.877 359.486 403.142 364.328C400.356 369.119 396.658 372.941 392.049 375.795C387.44 378.598 382.273 380 376.549 380Z" fill="#301D79"/>
<path d="M451.404 378.471H433.778C433.372 378.471 433.17 378.216 433.17 377.707L433.474 270.142C433.474 269.734 433.676 269.53 434.081 269.53H453.076C453.481 269.53 453.836 269.734 454.14 270.142L468.347 290.783L482.479 270.142C482.783 269.734 483.163 269.53 483.619 269.53H502.689C503.145 269.53 503.373 269.734 503.373 270.142L503.677 377.707C503.677 378.216 503.474 378.471 503.069 378.471H485.442C485.037 378.471 484.834 378.216 484.834 377.707L484.683 297.817L468.347 321.669L452.164 297.817L452.012 377.707C452.012 378.216 451.81 378.471 451.404 378.471Z" fill="#301D79"/>
<path d="M35.159 229.5C29.8105 229.5 24.8791 228.117 20.3647 225.352C15.8995 222.587 12.3174 218.909 9.61866 214.317C6.96894 209.676 5.64408 204.591 5.64408 199.061V192.099C5.64408 191.556 5.88943 191.284 6.38012 191.284H23.3089C23.7014 191.284 23.8977 191.556 23.8977 192.099V199.061C23.8977 202.369 25.0018 205.232 27.2099 207.652C29.418 210.022 32.0677 211.207 35.159 211.207C38.2994 211.207 40.9737 209.997 43.1818 207.578C45.3899 205.109 46.4939 202.27 46.4939 199.061C46.4939 195.358 44.0895 192.124 39.2808 189.359C38.4957 188.865 37.4652 188.273 36.1895 187.581C34.9627 186.841 33.4907 186.001 31.7733 185.063C30.0558 184.125 28.3875 183.212 26.7682 182.323C25.149 181.385 23.5788 180.496 22.0576 179.657C16.5619 176.398 12.4647 172.325 9.76587 167.437C7.11615 162.499 5.79129 156.97 5.79129 150.847C5.79129 145.219 7.16522 140.133 9.91307 135.591C12.6609 131.098 16.243 127.543 20.6592 124.926C25.1244 122.26 29.9577 120.927 35.159 120.927C40.5075 120.927 45.4144 122.26 49.8797 124.926C54.3449 127.642 57.9024 131.246 60.5522 135.739C63.2509 140.232 64.6003 145.268 64.6003 150.847V163.289C64.6003 163.684 64.4041 163.882 64.0115 163.882H47.0827C46.6902 163.882 46.4939 163.684 46.4939 163.289L46.3467 150.847C46.3467 147.292 45.2427 144.404 43.0346 142.182C40.8265 139.96 38.2013 138.85 35.159 138.85C32.0677 138.85 29.418 140.034 27.2099 142.404C25.0018 144.774 23.8977 147.589 23.8977 150.847C23.8977 154.155 24.5847 156.92 25.9586 159.142C27.3816 161.364 29.9577 163.487 33.6869 165.511C34.0795 165.709 34.9873 166.202 36.4103 166.992C37.8333 167.782 39.4035 168.671 41.1209 169.659C42.8874 170.597 44.4821 171.461 45.9051 172.251C47.3281 172.991 48.1868 173.436 48.4812 173.584C53.4862 176.398 57.4363 179.854 60.3313 183.952C63.2755 188.05 64.7475 193.086 64.7475 199.061C64.7475 204.837 63.4227 210.022 60.773 214.613C58.0742 219.205 54.4921 222.834 50.0269 225.5C45.5616 228.166 40.6057 229.5 35.159 229.5Z" fill="#301D79"/>
<path d="M115.761 229.5C110.314 229.5 105.333 228.117 100.819 225.352C96.3538 222.587 92.7963 218.884 90.1466 214.243C87.5459 209.553 86.2456 204.344 86.2456 198.616L86.3928 151.292C86.3928 145.663 87.6686 140.578 90.2202 136.035C92.7718 131.443 96.2802 127.765 100.745 125C105.26 122.186 110.265 120.779 115.761 120.779C121.354 120.779 126.335 122.137 130.702 124.852C135.118 127.568 138.627 131.246 141.227 135.887C143.877 140.479 145.202 145.614 145.202 151.292V158.253C145.202 158.648 145.006 158.846 144.613 158.846H127.684C127.292 158.846 127.095 158.648 127.095 158.253V151.292C127.095 147.934 126.016 145.046 123.857 142.627C121.698 140.207 118.999 138.998 115.761 138.998C112.178 138.998 109.431 140.232 107.517 142.701C105.603 145.169 104.646 148.033 104.646 151.292V198.616C104.646 202.319 105.726 205.356 107.885 207.726C110.044 210.046 112.669 211.207 115.761 211.207C118.999 211.207 121.698 209.923 123.857 207.355C126.016 204.739 127.095 201.826 127.095 198.616V191.581C127.095 191.186 127.292 190.988 127.684 190.988H144.76C145.153 190.988 145.349 191.186 145.349 191.581V198.616C145.349 204.294 144.024 209.479 141.374 214.169C138.676 218.81 135.118 222.538 130.702 225.352C126.286 228.117 121.305 229.5 115.761 229.5Z" fill="#301D79"/>
<path d="M186.941 228.018H169.865C169.374 228.018 169.129 227.771 169.129 227.278L169.276 123.075C169.276 122.68 169.472 122.482 169.865 122.482H186.794C187.186 122.482 187.382 122.68 187.382 123.075L187.53 227.278C187.53 227.771 187.333 228.018 186.941 228.018Z" fill="#301D79"/>
<path d="M262.905 228.018H214.18C213.787 228.018 213.591 227.771 213.591 227.278L213.738 123.075C213.738 122.68 213.935 122.482 214.327 122.482H262.758C263.151 122.482 263.347 122.729 263.347 123.223V140.183C263.347 140.578 263.151 140.775 262.758 140.775H231.845V164.474H262.758C263.151 164.474 263.347 164.672 263.347 165.067L263.494 182.249C263.494 182.644 263.298 182.841 262.905 182.841H231.845V209.355H262.905C263.298 209.355 263.494 209.602 263.494 210.096V227.426C263.494 227.821 263.298 228.018 262.905 228.018Z" fill="#301D79"/>
<path d="M306.116 228.018H291.028C290.243 228.018 289.85 227.673 289.85 226.981L289.703 123.667C289.703 122.877 290.095 122.482 290.88 122.482H304.497L329.964 182.249L329.228 123.667C329.228 122.877 329.669 122.482 330.553 122.482H345.494C346.083 122.482 346.377 122.877 346.377 123.667L346.525 227.13C346.525 227.722 346.279 228.018 345.789 228.018H332.54L306.411 172.177L307.515 226.833C307.515 227.623 307.049 228.018 306.116 228.018Z" fill="#301D79"/>
<path d="M400.187 229.5C394.741 229.5 389.76 228.117 385.246 225.352C380.781 222.587 377.223 218.884 374.573 214.243C371.973 209.553 370.672 204.344 370.672 198.616L370.82 151.292C370.82 145.663 372.095 140.578 374.647 136.035C377.199 131.443 380.707 127.765 385.172 125C389.687 122.186 394.692 120.779 400.187 120.779C405.781 120.779 410.762 122.137 415.129 124.852C419.545 127.568 423.053 131.246 425.654 135.887C428.304 140.479 429.629 145.614 429.629 151.292V158.253C429.629 158.648 429.432 158.846 429.04 158.846H412.111C411.718 158.846 411.522 158.648 411.522 158.253V151.292C411.522 147.934 410.443 145.046 408.284 142.627C406.125 140.207 403.426 138.998 400.187 138.998C396.605 138.998 393.857 140.232 391.944 142.701C390.03 145.169 389.073 148.033 389.073 151.292V198.616C389.073 202.319 390.153 205.356 392.312 207.726C394.471 210.046 397.096 211.207 400.187 211.207C403.426 211.207 406.125 209.923 408.284 207.355C410.443 204.739 411.522 201.826 411.522 198.616V191.581C411.522 191.186 411.718 190.988 412.111 190.988H429.187C429.58 190.988 429.776 191.186 429.776 191.581V198.616C429.776 204.294 428.451 209.479 425.801 214.169C423.102 218.81 419.545 222.538 415.129 225.352C410.713 228.117 405.732 229.5 400.187 229.5Z" fill="#301D79"/>
<path d="M502.87 228.018H454.144C453.752 228.018 453.556 227.771 453.556 227.278L453.703 123.075C453.703 122.68 453.899 122.482 454.292 122.482H502.723C503.115 122.482 503.311 122.729 503.311 123.223V140.183C503.311 140.578 503.115 140.775 502.723 140.775H471.809V164.474H502.723C503.115 164.474 503.311 164.672 503.311 165.067L503.459 182.249C503.459 182.644 503.262 182.841 502.87 182.841H471.809V209.355H502.87C503.262 209.355 503.459 209.602 503.459 210.096V227.426C503.459 227.821 503.262 228.018 502.87 228.018Z" fill="#301D79"/>
<path d="M26.8347 84.7567C22.8815 84.7567 19.2666 83.7533 15.9901 81.7465C12.7492 79.7397 10.1671 77.052 8.24394 73.6834C6.35637 70.279 5.41259 66.4984 5.41259 62.3414L5.51943 27.9929C5.51943 23.9076 6.44541 20.2165 8.29736 16.9196C10.1493 13.5869 12.6958 10.9172 15.9367 8.91036C19.2132 6.86772 22.8459 5.84641 26.8347 5.84641C30.8948 5.84641 34.5096 6.83189 37.6793 8.80285C40.8846 10.7738 43.4311 13.4436 45.3186 16.8121C47.2418 20.1449 48.2034 23.8718 48.2034 27.9929V33.0457C48.2034 33.3324 48.061 33.4757 47.776 33.4757H35.489C35.2041 33.4757 35.0617 33.3324 35.0617 33.0457V27.9929C35.0617 25.5561 34.2781 23.4597 32.7111 21.7037C31.1441 19.9478 29.1853 19.0698 26.8347 19.0698C24.2349 19.0698 22.2404 19.9657 20.8515 21.7575C19.4625 23.5493 18.768 25.6277 18.768 27.9929V62.3414C18.768 65.0291 19.5515 67.233 21.1186 68.9531C22.6856 70.6374 24.591 71.4795 26.8347 71.4795C29.1853 71.4795 31.1441 70.5478 32.7111 68.6843C34.2781 66.7851 35.0617 64.6707 35.0617 62.3414V57.2348C35.0617 56.9481 35.2041 56.8048 35.489 56.8048H47.8829C48.1678 56.8048 48.3103 56.9481 48.3103 57.2348V62.3414C48.3103 66.4625 47.3487 70.2253 45.4255 73.6297C43.4667 76.9982 40.8846 79.7038 37.6793 81.7465C34.474 83.7533 30.8592 84.7567 26.8347 84.7567Z" fill="#301D79"/>
<path d="M85.8166 84.7567C81.9346 84.7567 78.3554 83.7533 75.0788 81.7465C71.8379 79.7397 69.2202 77.0699 67.2258 73.7372C65.267 70.3686 64.2876 66.6775 64.2876 62.6639L64.3945 27.7779C64.3945 23.6926 65.3739 20.0194 67.3327 16.7584C69.2559 13.4615 71.8557 10.8276 75.1323 8.85661C78.4088 6.84981 81.9702 5.84641 85.8166 5.84641C89.8054 5.84641 93.3847 6.83189 96.5544 8.80285C99.7597 10.7738 102.324 13.4257 104.247 16.7584C106.206 20.0553 107.185 23.7284 107.185 27.7779L107.292 62.6639C107.292 66.6775 106.331 70.3507 104.407 73.6834C102.449 77.052 99.8487 79.7397 96.6078 81.7465C93.3669 83.7533 89.7698 84.7567 85.8166 84.7567ZM85.8166 71.4795C88.0247 71.4795 89.9479 70.5836 91.5862 68.7919C93.2244 66.9642 94.0436 64.9216 94.0436 62.6639L93.9367 27.7779C93.9367 25.341 93.171 23.2805 91.6396 21.5962C90.1082 19.9119 88.1672 19.0698 85.8166 19.0698C83.5729 19.0698 81.6497 19.894 80.0471 21.5425C78.4444 23.1909 77.6431 25.2694 77.6431 27.7779V62.6639C77.6431 65.0649 78.4444 67.1434 80.0471 68.8994C81.6497 70.6195 83.5729 71.4795 85.8166 71.4795Z" fill="#301D79"/>
<path d="M137.693 83.6816H125.3C125.015 83.6816 124.872 83.5024 124.872 83.1441L125.086 7.51277C125.086 7.22608 125.228 7.08274 125.513 7.08274H138.869C139.154 7.08274 139.403 7.22608 139.617 7.51277L149.606 22.0262L159.543 7.51277C159.757 7.22608 160.024 7.08274 160.344 7.08274H173.753C174.074 7.08274 174.234 7.22608 174.234 7.51277L174.448 83.1441C174.448 83.5024 174.305 83.6816 174.02 83.6816H161.626C161.341 83.6816 161.199 83.5024 161.199 83.1441L161.092 26.9716L149.606 43.7427L138.228 26.9716L138.121 83.1441C138.121 83.5024 137.978 83.6816 137.693 83.6816Z" fill="#301D79"/>
<path d="M205.757 83.6816H193.363C193.078 83.6816 192.936 83.5024 192.936 83.1441L193.149 7.51277C193.149 7.22608 193.292 7.08274 193.577 7.08274H206.932C207.217 7.08274 207.466 7.22608 207.68 7.51277L217.67 22.0262L227.606 7.51277C227.82 7.22608 228.087 7.08274 228.408 7.08274H241.817C242.137 7.08274 242.297 7.22608 242.297 7.51277L242.511 83.1441C242.511 83.5024 242.369 83.6816 242.084 83.6816H229.69C229.405 83.6816 229.263 83.5024 229.263 83.1441L229.156 26.9716L217.67 43.7427L206.291 26.9716L206.184 83.1441C206.184 83.5024 206.042 83.6816 205.757 83.6816Z" fill="#301D79"/>
<path d="M281.139 84.7567C277.293 84.7567 273.732 83.7533 270.455 81.7465C267.178 79.7397 264.561 77.052 262.602 73.6834C260.679 70.279 259.717 66.57 259.717 62.5564L259.931 7.51277C259.931 7.22608 260.073 7.08274 260.358 7.08274H272.645C272.93 7.08274 273.073 7.22608 273.073 7.51277V62.5564C273.073 65.0291 273.856 67.1434 275.423 68.8994C276.99 70.6195 278.896 71.4795 281.139 71.4795C283.49 71.4795 285.449 70.6195 287.016 68.8994C288.583 67.1434 289.366 65.0291 289.366 62.5564V7.51277C289.366 7.22608 289.509 7.08274 289.794 7.08274H302.081C302.366 7.08274 302.508 7.22608 302.508 7.51277L302.722 62.5564C302.722 66.6059 301.76 70.3328 299.837 73.7372C297.878 77.1057 295.278 79.7934 292.037 81.8002C288.796 83.7712 285.164 84.7567 281.139 84.7567Z" fill="#301D79"/>
<path d="M332.535 83.6816H321.584C321.014 83.6816 320.729 83.4307 320.729 82.929L320.622 7.9428C320.622 7.36942 320.907 7.08274 321.477 7.08274H331.36L349.844 50.4619L349.31 7.9428C349.31 7.36942 349.63 7.08274 350.271 7.08274H361.116C361.543 7.08274 361.757 7.36942 361.757 7.9428L361.864 83.0366C361.864 83.4666 361.686 83.6816 361.33 83.6816H351.714L332.749 43.1514L333.55 82.8215C333.55 83.3949 333.212 83.6816 332.535 83.6816Z" fill="#301D79"/>
<path d="M393.601 83.6816H381.207C380.851 83.6816 380.673 83.5024 380.673 83.1441L380.779 7.51277C380.779 7.22608 380.922 7.08274 381.207 7.08274H393.494C393.779 7.08274 393.921 7.22608 393.921 7.51277L394.028 83.1441C394.028 83.5024 393.886 83.6816 393.601 83.6816Z" fill="#301D79"/>
<path d="M436.289 83.6816H423.949C423.628 83.6816 423.468 83.5024 423.468 83.1441V20.3599H409.258C408.901 20.3599 408.723 20.1807 408.723 19.8223L408.83 7.51277C408.83 7.22608 408.973 7.08274 409.258 7.08274H450.82C451.211 7.08274 451.407 7.22608 451.407 7.51277V19.8223C451.407 20.1807 451.265 20.3599 450.98 20.3599H436.609L436.716 83.1441C436.716 83.5024 436.574 83.6816 436.289 83.6816Z" fill="#301D79"/>
<path d="M488.86 83.6816H476.306C476.057 83.6816 475.932 83.5383 475.932 83.2516L476.039 51.967L461.401 7.51277C461.33 7.22608 461.437 7.08274 461.722 7.08274H473.902C474.258 7.08274 474.472 7.22608 474.543 7.51277L482.61 37.131L490.837 7.51277C490.908 7.22608 491.086 7.08274 491.371 7.08274H503.658C503.943 7.08274 504.05 7.22608 503.979 7.51277L489.181 51.5369L489.288 83.2516C489.288 83.5383 489.145 83.6816 488.86 83.6816Z" fill="#301D79"/>
<path d="M18.2346 372.625H0.607821C0.202607 372.625 0 372.37 0 371.86L0.30391 264.296C0.30391 263.888 0.506517 263.684 0.911731 263.684H19.9061C20.3113 263.684 20.6659 263.888 20.9698 264.296L35.1776 284.937L49.3095 264.296C49.6134 263.888 49.9933 263.684 50.4491 263.684H69.5195C69.9754 263.684 70.2033 263.888 70.2033 264.296L70.5072 371.86C70.5072 372.37 70.3046 372.625 69.8994 372.625H52.2726C51.8674 372.625 51.6648 372.37 51.6648 371.86L51.5128 291.97L35.1776 315.823L18.9944 291.97L18.8424 371.86C18.8424 372.37 18.6398 372.625 18.2346 372.625Z" fill="#F3EDF9"/>
<path d="M125.912 374.154C120.442 374.154 115.376 372.727 110.716 369.872C106.056 367.018 102.334 363.196 99.5477 358.405C96.8125 353.563 95.4449 348.288 95.4449 342.58L95.7488 264.296C95.7488 263.888 95.9514 263.684 96.3566 263.684H113.831C114.237 263.684 114.439 263.888 114.439 264.296V342.58C114.439 346.097 115.554 349.104 117.782 351.601C120.011 354.047 122.721 355.271 125.912 355.271C129.255 355.271 132.041 354.047 134.269 351.601C136.498 349.104 137.612 346.097 137.612 342.58V264.296C137.612 263.888 137.815 263.684 138.22 263.684H155.695C156.1 263.684 156.303 263.888 156.303 264.296L156.607 342.58C156.607 348.339 155.239 353.64 152.504 358.481C149.718 363.272 146.021 367.095 141.411 369.949C136.802 372.752 131.636 374.154 125.912 374.154Z" fill="#F3EDF9"/>
<path d="M208.972 374.154C203.451 374.154 198.361 372.727 193.701 369.872C189.092 367.018 185.394 363.221 182.608 358.481C179.873 353.691 178.505 348.441 178.505 342.733V335.547C178.505 334.986 178.759 334.706 179.265 334.706H196.74C197.145 334.706 197.348 334.986 197.348 335.547V342.733C197.348 346.148 198.488 349.104 200.767 351.601C203.046 354.047 205.781 355.271 208.972 355.271C212.214 355.271 214.975 354.022 217.254 351.525C219.533 348.976 220.673 346.046 220.673 342.733C220.673 338.91 218.191 335.572 213.227 332.718C212.417 332.208 211.353 331.597 210.036 330.883C208.77 330.119 207.25 329.252 205.477 328.284C203.705 327.316 201.983 326.373 200.311 325.455C198.64 324.487 197.019 323.569 195.448 322.703C189.775 319.339 185.546 315.135 182.76 310.089C180.025 304.992 178.657 299.284 178.657 292.964C178.657 287.154 180.076 281.905 182.912 277.216C185.749 272.578 189.446 268.908 194.005 266.207C198.614 263.455 203.603 262.079 208.972 262.079C214.493 262.079 219.559 263.455 224.168 266.207C228.777 269.01 232.45 272.731 235.185 277.368C237.971 282.006 239.363 287.205 239.363 292.964V305.808C239.363 306.215 239.161 306.419 238.756 306.419H221.281C220.876 306.419 220.673 306.215 220.673 305.808L220.521 292.964C220.521 289.295 219.381 286.313 217.102 284.02C214.823 281.726 212.113 280.579 208.972 280.579C205.781 280.579 203.046 281.803 200.767 284.249C198.488 286.695 197.348 289.6 197.348 292.964C197.348 296.379 198.057 299.233 199.475 301.527C200.944 303.82 203.603 306.012 207.453 308.101C207.858 308.305 208.795 308.815 210.264 309.63C211.733 310.446 213.354 311.363 215.127 312.382C216.95 313.351 218.596 314.243 220.065 315.058C221.534 315.823 222.421 316.281 222.724 316.434C227.891 319.339 231.968 322.907 234.957 327.137C237.996 331.367 239.515 336.566 239.515 342.733C239.515 348.696 238.148 354.047 235.413 358.787C232.627 363.527 228.929 367.273 224.32 370.025C219.711 372.778 214.595 374.154 208.972 374.154Z" fill="#F3EDF9"/>
<path d="M314.902 372.625H264.605C264.2 372.625 263.997 372.37 263.997 371.86L264.149 264.296C264.149 263.888 264.352 263.684 264.757 263.684H314.75C315.156 263.684 315.358 263.939 315.358 264.449V281.955C315.358 282.363 315.156 282.567 314.75 282.567H282.84V307.031H314.75C315.156 307.031 315.358 307.235 315.358 307.643L315.51 325.379C315.51 325.787 315.307 325.99 314.902 325.99H282.84V353.359H314.902C315.307 353.359 315.51 353.614 315.51 354.124V372.013C315.51 372.421 315.307 372.625 314.902 372.625Z" fill="#F3EDF9"/>
<path d="M371.675 374.154C366.204 374.154 361.139 372.727 356.479 369.872C351.819 367.018 348.096 363.196 345.31 358.405C342.575 353.563 341.208 348.288 341.208 342.58L341.511 264.296C341.511 263.888 341.714 263.684 342.119 263.684H359.594C359.999 263.684 360.202 263.888 360.202 264.296V342.58C360.202 346.097 361.316 349.104 363.545 351.601C365.774 354.047 368.483 355.271 371.675 355.271C375.018 355.271 377.803 354.047 380.032 351.601C382.261 349.104 383.375 346.097 383.375 342.58V264.296C383.375 263.888 383.578 263.684 383.983 263.684H401.458C401.863 263.684 402.066 263.888 402.066 264.296L402.369 342.58C402.369 348.339 401.002 353.64 398.267 358.481C395.481 363.272 391.783 367.095 387.174 369.949C382.565 372.752 377.398 374.154 371.675 374.154Z" fill="#F3EDF9"/>
<path d="M446.53 372.625H428.903C428.498 372.625 428.295 372.37 428.295 371.86L428.599 264.296C428.599 263.888 428.801 263.684 429.207 263.684H448.201C448.606 263.684 448.961 263.888 449.265 264.296L463.473 284.937L477.604 264.296C477.908 263.888 478.288 263.684 478.744 263.684H497.814C498.27 263.684 498.498 263.888 498.498 264.296L498.802 371.86C498.802 372.37 498.6 372.625 498.194 372.625H480.568C480.162 372.625 479.96 372.37 479.96 371.86L479.808 291.97L463.473 315.823L447.289 291.97L447.137 371.86C447.137 372.37 446.935 372.625 446.53 372.625Z" fill="#F3EDF9"/>
<path d="M30.2842 223.653C24.9357 223.653 20.0043 222.271 15.4899 219.506C11.0247 216.741 7.44264 213.062 4.74385 208.471C2.09413 203.83 0.769273 198.744 0.769273 193.214V186.253C0.769273 185.709 1.01462 185.438 1.50531 185.438H18.4341C18.8266 185.438 19.0229 185.709 19.0229 186.253V193.214C19.0229 196.522 20.1269 199.386 22.335 201.805C24.5431 204.175 27.1929 205.36 30.2842 205.36C33.4246 205.36 36.0989 204.151 38.307 201.731C40.5151 199.263 41.6191 196.424 41.6191 193.214C41.6191 189.511 39.2147 186.277 34.406 183.512C33.6209 183.019 32.5904 182.426 31.3146 181.735C30.0879 180.994 28.6159 180.155 26.8984 179.217C25.181 178.279 23.5127 177.365 21.8934 176.477C20.2742 175.539 18.7039 174.65 17.1828 173.81C11.6871 170.552 7.58985 166.478 4.89106 161.59C2.24134 156.653 0.91648 151.123 0.91648 145.001C0.91648 139.372 2.29041 134.287 5.03827 129.744C7.78612 125.251 11.3681 121.697 15.7843 119.08C20.2496 116.414 25.0829 115.08 30.2842 115.08C35.6327 115.08 40.5396 116.414 45.0049 119.08C49.4701 121.795 53.0276 125.4 55.6773 129.893C58.3761 134.386 59.7255 139.422 59.7255 145.001V157.443C59.7255 157.838 59.5292 158.036 59.1367 158.036H42.2079C41.8154 158.036 41.6191 157.838 41.6191 157.443L41.4719 145.001C41.4719 141.446 40.3679 138.558 38.1598 136.336C35.9517 134.114 33.3265 133.003 30.2842 133.003C27.1929 133.003 24.5431 134.188 22.335 136.558C20.1269 138.928 19.0229 141.742 19.0229 145.001C19.0229 148.309 19.7099 151.074 21.0838 153.296C22.5068 155.517 25.0829 157.641 28.8121 159.665C29.2047 159.862 30.1125 160.356 31.5355 161.146C32.9585 161.936 34.5287 162.825 36.2461 163.812C38.0125 164.75 39.6073 165.614 41.0303 166.404C42.4533 167.145 43.312 167.589 43.6064 167.737C48.6114 170.552 52.5615 174.008 55.4565 178.106C58.4007 182.204 59.8727 187.24 59.8727 193.214C59.8727 198.991 58.5479 204.175 55.8982 208.767C53.1994 213.359 49.6173 216.988 45.1521 219.654C40.6868 222.32 35.7308 223.653 30.2842 223.653Z" fill="#F3EDF9"/>
<path d="M110.886 223.653C105.439 223.653 100.459 222.271 95.9442 219.506C91.479 216.741 87.9215 213.038 85.2718 208.397C82.6711 203.706 81.3708 198.497 81.3708 192.77L81.518 145.445C81.518 139.817 82.7938 134.731 85.3454 130.189C87.8969 125.597 91.4054 121.919 95.8706 119.154C100.385 116.339 105.39 114.932 110.886 114.932C116.48 114.932 121.46 116.29 125.827 119.006C130.243 121.721 133.752 125.4 136.352 130.041C139.002 134.632 140.327 139.767 140.327 145.445V152.407C140.327 152.802 140.131 152.999 139.738 152.999H122.809C122.417 152.999 122.221 152.802 122.221 152.407V145.445C122.221 142.088 121.141 139.199 118.982 136.78C116.823 134.361 114.124 133.151 110.886 133.151C107.304 133.151 104.556 134.386 102.642 136.854C100.728 139.323 99.7716 142.187 99.7716 145.445V192.77C99.7716 196.473 100.851 199.509 103.01 201.879C105.169 204.2 107.794 205.36 110.886 205.36C114.124 205.36 116.823 204.076 118.982 201.509C121.141 198.892 122.221 195.979 122.221 192.77V185.734C122.221 185.339 122.417 185.142 122.809 185.142H139.885C140.278 185.142 140.474 185.339 140.474 185.734V192.77C140.474 198.448 139.149 203.632 136.5 208.323C133.801 212.964 130.243 216.691 125.827 219.506C121.411 222.271 116.43 223.653 110.886 223.653Z" fill="#F3EDF9"/>
<path d="M182.066 222.172H164.99C164.499 222.172 164.254 221.925 164.254 221.431L164.401 117.228C164.401 116.833 164.597 116.636 164.99 116.636H181.919C182.311 116.636 182.508 116.833 182.508 117.228L182.655 221.431C182.655 221.925 182.459 222.172 182.066 222.172Z" fill="#F3EDF9"/>
<path d="M258.03 222.172H209.305C208.913 222.172 208.716 221.925 208.716 221.431L208.863 117.228C208.863 116.833 209.06 116.636 209.452 116.636H257.883C258.276 116.636 258.472 116.883 258.472 117.376V134.336C258.472 134.731 258.276 134.929 257.883 134.929H226.97V158.628H257.883C258.276 158.628 258.472 158.826 258.472 159.221L258.619 176.403C258.619 176.798 258.423 176.995 258.03 176.995H226.97V203.509H258.03C258.423 203.509 258.619 203.756 258.619 204.249V221.579C258.619 221.974 258.423 222.172 258.03 222.172Z" fill="#F3EDF9"/>
<path d="M301.242 222.172H286.153C285.368 222.172 284.975 221.826 284.975 221.135L284.828 117.821C284.828 117.031 285.221 116.636 286.006 116.636H299.622L325.089 176.403L324.353 117.821C324.353 117.031 324.795 116.636 325.678 116.636H340.619C341.208 116.636 341.503 117.031 341.503 117.821L341.65 221.283C341.65 221.876 341.404 222.172 340.914 222.172H327.665L301.536 166.33L302.64 220.987C302.64 221.777 302.174 222.172 301.242 222.172Z" fill="#F3EDF9"/>
<path d="M395.312 223.653C389.866 223.653 384.885 222.271 380.371 219.506C375.906 216.741 372.348 213.038 369.699 208.397C367.098 203.706 365.798 198.497 365.798 192.77L365.945 145.445C365.945 139.817 367.221 134.731 369.772 130.189C372.324 125.597 375.832 121.919 380.297 119.154C384.812 116.339 389.817 114.932 395.312 114.932C400.906 114.932 405.887 116.29 410.254 119.006C414.67 121.721 418.179 125.4 420.779 130.041C423.429 134.632 424.754 139.767 424.754 145.445V152.407C424.754 152.802 424.557 152.999 424.165 152.999H407.236C406.844 152.999 406.647 152.802 406.647 152.407V145.445C406.647 142.088 405.568 139.199 403.409 136.78C401.25 134.361 398.551 133.151 395.312 133.151C391.73 133.151 388.983 134.386 387.069 136.854C385.155 139.323 384.198 142.187 384.198 145.445V192.77C384.198 196.473 385.278 199.509 387.437 201.879C389.596 204.2 392.221 205.36 395.312 205.36C398.551 205.36 401.25 204.076 403.409 201.509C405.568 198.892 406.647 195.979 406.647 192.77V185.734C406.647 185.339 406.844 185.142 407.236 185.142H424.312C424.705 185.142 424.901 185.339 424.901 185.734V192.77C424.901 198.448 423.576 203.632 420.926 208.323C418.228 212.964 414.67 216.691 410.254 219.506C405.838 222.271 400.857 223.653 395.312 223.653Z" fill="#F3EDF9"/>
<path d="M497.995 222.172H449.27C448.877 222.172 448.681 221.925 448.681 221.431L448.828 117.228C448.828 116.833 449.024 116.636 449.417 116.636H497.848C498.24 116.636 498.437 116.883 498.437 117.376V134.336C498.437 134.731 498.24 134.929 497.848 134.929H466.934V158.628H497.848C498.24 158.628 498.437 158.826 498.437 159.221L498.584 176.403C498.584 176.798 498.387 176.995 497.995 176.995H466.934V203.509H497.995C498.387 203.509 498.584 203.756 498.584 204.249V221.579C498.584 221.974 498.387 222.172 497.995 222.172Z" fill="#F3EDF9"/>
<path d="M21.9599 78.9103C18.0067 78.9103 14.3918 77.9069 11.1153 75.9001C7.87437 73.8933 5.29232 71.2056 3.36913 67.837C1.48156 64.4326 0.537779 60.652 0.537779 56.495L0.644623 22.1465C0.644623 18.0612 1.5706 14.3701 3.42255 11.0732C5.27451 7.74052 7.82094 5.07075 11.0619 3.06395C14.3384 1.02132 17.9711 0 21.9599 0C26.02 0 29.6348 0.985482 32.8045 2.95645C36.0098 4.92741 38.5563 7.59717 40.4438 10.9657C42.367 14.2985 43.3286 18.0254 43.3286 22.1465V27.1993C43.3286 27.486 43.1861 27.6293 42.9012 27.6293H30.6142C30.3293 27.6293 30.1869 27.486 30.1869 27.1993V22.1465C30.1869 19.7096 29.4033 17.6133 27.8363 15.8573C26.2693 14.1014 24.3105 13.2234 21.9599 13.2234C19.36 13.2234 17.3656 14.1193 15.9767 15.9111C14.5877 17.7028 13.8932 19.7813 13.8932 22.1465V56.495C13.8932 59.1827 14.6767 61.3866 16.2438 63.1067C17.8108 64.791 19.7162 65.6331 21.9599 65.6331C24.3105 65.6331 26.2693 64.7014 27.8363 62.8379C29.4033 60.9386 30.1869 58.8243 30.1869 56.495V51.3884C30.1869 51.1017 30.3293 50.9584 30.6142 50.9584H43.0081C43.293 50.9584 43.4354 51.1017 43.4354 51.3884V56.495C43.4354 60.6161 42.4739 64.3789 40.5507 67.7833C38.5919 71.1518 36.0098 73.8574 32.8045 75.9001C29.5992 77.9069 25.9843 78.9103 21.9599 78.9103Z" fill="#F3EDF9"/>
<path d="M80.9418 78.9103C77.0598 78.9103 73.4806 77.9069 70.204 75.9001C66.9631 73.8933 64.3454 71.2235 62.351 67.8908C60.3922 64.5222 59.4128 60.8311 59.4128 56.8175L59.5197 21.9315C59.5197 17.8462 60.4991 14.173 62.4579 10.912C64.3811 7.61509 66.9809 4.98117 70.2574 3.0102C73.534 1.0034 77.0954 0 80.9418 0C84.9306 0 88.5099 0.985482 91.6796 2.95645C94.8849 4.92741 97.4491 7.57925 99.3723 10.912C101.331 14.2089 102.311 17.882 102.311 21.9315L102.417 56.8175C102.417 60.8311 101.456 64.5043 99.5326 67.837C97.5738 71.2056 94.9739 73.8933 91.733 75.9001C88.4921 77.9069 84.895 78.9103 80.9418 78.9103ZM80.9418 65.6331C83.1499 65.6331 85.0731 64.7372 86.7113 62.9454C88.3496 61.1178 89.1688 59.0752 89.1688 56.8175L89.0619 21.9315C89.0619 19.4946 88.2962 17.4341 86.7648 15.7498C85.2333 14.0655 83.2924 13.2234 80.9418 13.2234C78.6981 13.2234 76.7749 14.0476 75.1722 15.696C73.5696 17.3445 72.7683 19.423 72.7683 21.9315V56.8175C72.7683 59.2185 73.5696 61.297 75.1722 63.053C76.7749 64.7731 78.6981 65.6331 80.9418 65.6331Z" fill="#F3EDF9"/>
<path d="M132.819 77.8352H120.425C120.14 77.8352 119.997 77.656 119.997 77.2977L120.211 1.66636C120.211 1.37968 120.354 1.23633 120.638 1.23633H133.994C134.279 1.23633 134.528 1.37968 134.742 1.66636L144.732 16.1798L154.668 1.66636C154.882 1.37968 155.149 1.23633 155.469 1.23633H168.878C169.199 1.23633 169.359 1.37968 169.359 1.66636L169.573 77.2977C169.573 77.656 169.43 77.8352 169.145 77.8352H156.752C156.467 77.8352 156.324 77.656 156.324 77.2977L156.217 21.1252L144.732 37.8963L133.353 21.1252L133.246 77.2977C133.246 77.656 133.104 77.8352 132.819 77.8352Z" fill="#F3EDF9"/>
<path d="M200.882 77.8352H188.488C188.203 77.8352 188.061 77.656 188.061 77.2977L188.275 1.66636C188.275 1.37968 188.417 1.23633 188.702 1.23633H202.057C202.342 1.23633 202.592 1.37968 202.805 1.66636L212.795 16.1798L222.732 1.66636C222.945 1.37968 223.212 1.23633 223.533 1.23633H236.942C237.262 1.23633 237.423 1.37968 237.423 1.66636L237.636 77.2977C237.636 77.656 237.494 77.8352 237.209 77.8352H224.815C224.53 77.8352 224.388 77.656 224.388 77.2977L224.281 21.1252L212.795 37.8963L201.416 21.1252L201.31 77.2977C201.31 77.656 201.167 77.8352 200.882 77.8352Z" fill="#F3EDF9"/>
<path d="M276.265 78.9103C272.418 78.9103 268.857 77.9069 265.58 75.9001C262.304 73.8933 259.686 71.2056 257.727 67.837C255.804 64.4326 254.842 60.7236 254.842 56.71L255.056 1.66636C255.056 1.37968 255.199 1.23633 255.483 1.23633H267.771C268.055 1.23633 268.198 1.37968 268.198 1.66636V56.71C268.198 59.1827 268.981 61.297 270.548 63.053C272.115 64.7731 274.021 65.6331 276.265 65.6331C278.615 65.6331 280.574 64.7731 282.141 63.053C283.708 61.297 284.492 59.1827 284.492 56.71V1.66636C284.492 1.37968 284.634 1.23633 284.919 1.23633H297.206C297.491 1.23633 297.633 1.37968 297.633 1.66636L297.847 56.71C297.847 60.7595 296.885 64.4864 294.962 67.8908C293.003 71.2593 290.404 73.947 287.163 75.9538C283.922 77.9248 280.289 78.9103 276.265 78.9103Z" fill="#F3EDF9"/>
<path d="M327.661 77.8352H316.709C316.139 77.8352 315.854 77.5843 315.854 77.0826L315.748 2.09639C315.748 1.52302 316.032 1.23633 316.602 1.23633H326.485L344.969 44.6155L344.435 2.09639C344.435 1.52302 344.756 1.23633 345.397 1.23633H356.241C356.669 1.23633 356.882 1.52302 356.882 2.09639L356.989 77.1901C356.989 77.6202 356.811 77.8352 356.455 77.8352H346.839L327.874 37.305L328.676 76.9751C328.676 77.5485 328.337 77.8352 327.661 77.8352Z" fill="#F3EDF9"/>
<path d="M388.726 77.8352H376.332C375.976 77.8352 375.798 77.656 375.798 77.2977L375.905 1.66636C375.905 1.37968 376.047 1.23633 376.332 1.23633H388.619C388.904 1.23633 389.046 1.37968 389.046 1.66636L389.153 77.2977C389.153 77.656 389.011 77.8352 388.726 77.8352Z" fill="#F3EDF9"/>
<path d="M431.414 77.8352H419.074C418.753 77.8352 418.593 77.656 418.593 77.2977V14.5135H404.383C404.027 14.5135 403.849 14.3343 403.849 13.9759L403.955 1.66636C403.955 1.37968 404.098 1.23633 404.383 1.23633H445.945C446.337 1.23633 446.533 1.37968 446.533 1.66636V13.9759C446.533 14.3343 446.39 14.5135 446.105 14.5135H431.735L431.842 77.2977C431.842 77.656 431.699 77.8352 431.414 77.8352Z" fill="#F3EDF9"/>
<path d="M483.985 77.8352H471.431C471.182 77.8352 471.057 77.6918 471.057 77.4052L471.164 46.1206L456.527 1.66636C456.455 1.37968 456.562 1.23633 456.847 1.23633H469.027C469.384 1.23633 469.597 1.37968 469.668 1.66636L477.735 31.2846L485.962 1.66636C486.033 1.37968 486.211 1.23633 486.496 1.23633H498.783C499.068 1.23633 499.175 1.37968 499.104 1.66636L484.306 45.6905L484.413 77.4052C484.413 77.6918 484.27 77.8352 483.985 77.8352Z" fill="#F3EDF9"/>
</svg>
