<svg width="450" height="374" viewBox="0 0 450 374" fill="none" xmlns="http://www.w3.org/2000/svg">
<path d="M77.5508 61.3499C72.6508 67.5499 67.6008 73.55 62.4008 79.35C57.2008 85.05 51.9508 90.15 46.6508 94.65C41.4508 99.05 36.2508 102.6 31.0508 105.3C25.8508 107.9 20.8508 109.2 16.0508 109.2C12.7508 109.2 10.1008 108.8 8.10078 108C6.20078 107.3 4.70078 106.45 3.60078 105.45C2.60078 104.35 1.90078 103.25 1.50078 102.15C1.20078 100.95 1.05078 99.9 1.05078 99C1.05078 97.3 1.55078 95.85 2.55078 94.65C3.55078 93.45 4.95078 92.85 6.75078 92.85C8.35078 92.85 9.60078 93.4 10.5008 94.5C11.4008 95.6 11.8508 96.9 11.8508 98.4C11.8508 99.3 11.6008 100.2 11.1008 101.1C10.6008 102 9.90078 102.55 9.00078 102.75C9.90078 104.15 11.1508 105.1 12.7508 105.6C14.3508 106 16.0008 106.2 17.7008 106.2C22.0008 106.2 26.5008 104.95 31.2008 102.45C36.0008 99.95 40.8008 96.7 45.6008 92.7C50.5008 88.6 55.3508 84 60.1508 78.9C64.9508 73.7 69.5508 68.4 73.9508 63C75.8508 60.6 78.2008 57.65 81.0008 54.1499C83.9008 50.6499 87.1508 46.8499 90.7508 42.7499C94.3508 38.6499 98.2508 34.5 102.451 30.3C106.751 25.9999 111.301 21.9499 116.101 18.1499C120.901 14.3499 125.901 10.9499 131.101 7.94994C136.301 4.94995 141.601 2.69995 147.001 1.19995L147.451 1.79995C144.051 4.89995 140.501 8.74995 136.801 13.3499C133.101 17.9499 129.451 22.9499 125.851 28.35C122.351 33.65 119.001 39.2499 115.801 45.1499C112.601 51.0499 109.751 56.95 107.251 62.8499C104.851 68.65 102.901 74.2499 101.401 79.6499C100.001 85.0499 99.3008 90 99.3008 94.5C99.3008 97.6 99.8008 100.25 100.801 102.45C101.901 104.55 104.051 105.6 107.251 105.6C109.151 105.6 111.301 104.9 113.701 103.5C116.201 102.1 118.801 100.25 121.501 97.95C124.201 95.65 126.851 93.1 129.451 90.2999C132.151 87.4999 134.701 84.7499 137.101 82.0499C139.501 79.2499 141.651 76.65 143.551 74.25C145.451 71.75 146.951 69.75 148.051 68.25L149.101 68.7C145.701 73 142.101 77.55 138.301 82.35C134.501 87.15 130.651 91.5499 126.751 95.5499C122.851 99.4499 118.901 102.7 114.901 105.3C111.001 107.9 107.251 109.2 103.651 109.2C101.251 109.2 99.2008 108.8 97.5008 108C95.9008 107.1 94.5508 105.9 93.4508 104.4C92.3508 102.9 91.5508 101.2 91.0508 99.2999C90.5508 97.3999 90.3008 95.3999 90.3008 93.2999C90.3008 87.5999 91.1008 82.15 92.7008 76.95C94.3008 71.65 96.1008 66.4499 98.1008 61.3499H77.5508ZM98.8508 59.5499C103.351 50.25 108.651 41.15 114.751 32.25C120.951 23.3499 128.251 14.8999 136.651 6.89995L136.351 6.59994C131.051 9.19995 125.851 12.3999 120.751 16.1999C115.751 20 110.851 24.2 106.051 28.8C101.251 33.4 96.5508 38.2999 91.9508 43.5C87.4508 48.6999 83.0508 54.0499 78.7508 59.5499H98.8508Z" fill="#706953"/>
<path d="M162.651 56.4L142.851 83.85L143.151 84.1499C145.251 81.6499 147.701 78.75 150.501 75.45C153.301 72.05 156.301 68.85 159.501 65.85C162.701 62.85 166.001 60.3499 169.401 58.3499C172.901 56.2499 176.351 55.1999 179.751 55.1999C182.751 55.1999 185.051 56.0499 186.651 57.75C188.351 59.35 189.201 61.45 189.201 64.0499C189.201 65.6499 188.601 67.5499 187.401 69.7499C186.301 71.9499 184.901 74.2999 183.201 76.7999C181.501 79.2999 179.651 81.85 177.651 84.45C175.651 87.05 173.801 89.55 172.101 91.95C170.401 94.25 168.951 96.4 167.751 98.4C166.651 100.3 166.101 101.9 166.101 103.2C166.101 106 167.501 107.4 170.301 107.4C173.501 107.4 176.901 106.35 180.501 104.25C184.101 102.05 188.401 98.4 193.401 93.2999C195.401 91.2999 197.401 89.1 199.401 86.7C201.501 84.3 203.501 81.9499 205.401 79.6499C207.301 77.2499 209.001 74.9999 210.501 72.8999C212.101 70.7999 213.351 69.0499 214.251 67.6499L215.301 68.25C213.301 71.25 210.701 74.8499 207.501 79.0499C204.401 83.1499 201.001 87.2 197.301 91.2C195.101 93.6 192.851 95.9 190.551 98.1C188.251 100.3 185.951 102.25 183.651 103.95C181.351 105.55 179.051 106.85 176.751 107.85C174.551 108.75 172.351 109.2 170.151 109.2C167.251 109.2 164.851 108.4 162.951 106.8C161.051 105.2 160.101 103 160.101 100.2C160.101 97.2 161.301 93.95 163.701 90.45C166.101 86.85 168.751 83.2499 171.651 79.6499C174.551 76.0499 177.201 72.6 179.601 69.2999C182.001 66 183.201 63.1 183.201 60.6C183.201 59.4 182.801 58.4999 182.001 57.8999C181.201 57.2999 180.151 57 178.851 57C176.351 57 173.551 57.95 170.451 59.85C167.351 61.65 164.151 64.1 160.851 67.2C157.651 70.2 154.401 73.5999 151.101 77.3999C147.901 81.0999 144.901 84.8499 142.101 88.6499C139.301 92.3499 136.801 95.95 134.601 99.45C132.401 102.85 130.751 105.7 129.651 108H120.351C122.951 103.6 125.751 99.15 128.751 94.65C131.651 90.05 134.551 85.55 137.451 81.15C140.351 76.65 143.101 72.35 145.701 68.25C148.401 64.05 150.801 60.2499 152.901 56.8499L162.651 56.4Z" fill="#706953"/>
<path d="M297.852 4.19995C293.952 10.3999 289.702 16.9499 285.102 23.8499C280.502 30.7499 275.902 37.5999 271.302 44.3999C266.702 51.1999 262.252 57.7999 257.952 64.1999C253.752 70.4999 250.002 76.3 246.702 81.6C243.402 86.9 240.752 91.5 238.752 95.4C236.852 99.2 235.902 102 235.902 103.8C235.902 104.9 236.152 105.8 236.652 106.5C237.252 107.1 238.102 107.4 239.202 107.4C241.702 107.4 244.552 106.4 247.752 104.4C250.952 102.4 254.802 99.25 259.302 94.95C263.202 91.15 267.002 86.95 270.702 82.35C274.402 77.65 277.602 73.0499 280.302 68.5499L281.502 69.15C280.602 70.75 279.402 72.65 277.902 74.85C276.502 76.95 274.902 79.15 273.102 81.45C271.402 83.7499 269.552 86.1 267.552 88.5C265.552 90.8 263.502 93 261.402 95.1C257.402 99.2 253.452 102.6 249.552 105.3C245.652 107.9 242.052 109.2 238.752 109.2C235.552 109.2 233.152 108.55 231.552 107.25C230.052 105.85 229.302 104.1 229.302 102C229.302 100.1 229.702 98.25 230.502 96.45C231.302 94.65 232.102 93.05 232.902 91.65L232.602 91.5C231.002 93.3 229.202 95.25 227.202 97.35C225.302 99.35 223.252 101.25 221.052 103.05C218.852 104.85 216.502 106.35 214.002 107.55C211.602 108.65 209.102 109.2 206.502 109.2C202.902 109.2 200.102 108.1 198.102 105.9C196.202 103.7 195.252 101.1 195.252 98.1C195.252 93.9 196.702 89.3 199.602 84.2999C202.502 79.3 206.102 74.65 210.402 70.35C214.802 66.05 219.502 62.45 224.502 59.5499C229.502 56.6499 234.152 55.1999 238.452 55.1999C241.652 55.1999 244.202 56.2 246.102 58.2C248.002 60.2 248.902 62.75 248.802 65.85H249.252L287.952 4.19995H297.852ZM244.602 66C244.602 63.6 244.202 61.4999 243.402 59.6999C242.602 57.8999 240.752 57 237.852 57C235.852 57 233.602 57.7 231.102 59.1C228.702 60.5 226.252 62.35 223.752 64.65C221.252 66.95 218.802 69.6 216.402 72.6C214.102 75.5 212.052 78.5 210.252 81.6C208.452 84.6 207.002 87.55 205.902 90.45C204.802 93.35 204.252 95.95 204.252 98.25C204.252 100.35 204.652 102.1 205.452 103.5C206.252 104.9 207.702 105.6 209.802 105.6C211.602 105.6 213.652 104.9 215.952 103.5C218.352 102.1 220.852 100.3 223.452 98.1C226.052 95.8 228.602 93.2 231.102 90.2999C233.602 87.4 235.852 84.5 237.852 81.6C239.852 78.7 241.452 75.9 242.652 73.2C243.952 70.4 244.602 68 244.602 66Z" fill="#706953"/>
<path d="M296.252 56.4L277.202 84.1499L277.502 84.45C278.902 82.75 280.652 80.8 282.752 78.6C284.952 76.3 287.302 74 289.802 71.7C292.402 69.3 295.102 66.95 297.902 64.65C300.702 62.35 303.452 60.3 306.152 58.5C306.652 57.5 307.202 56.7 307.802 56.0999C308.402 55.4999 309.602 55.1999 311.402 55.1999C312.502 55.1999 313.452 55.25 314.252 55.35C315.152 55.35 316.052 55.4 316.952 55.5C315.252 57.2 313.602 59.3 312.002 61.7999C310.402 64.2 309.602 66.8499 309.602 69.7499C309.602 72.0499 310.152 73.8499 311.252 75.1499C312.452 76.4499 313.902 77.1 315.602 77.1C317.102 77.1 318.552 76.8 319.952 76.2C321.452 75.6 322.852 74.85 324.152 73.95C325.452 73.05 326.702 72.1 327.902 71.1C329.102 70.1 330.152 69.2 331.052 68.4L331.952 68.9999C330.952 69.9999 329.802 71.1 328.502 72.2999C327.202 73.3999 325.802 74.45 324.302 75.45C322.802 76.45 321.202 77.3 319.502 78C317.802 78.6 316.052 78.9 314.252 78.9C311.052 78.9 308.452 77.95 306.452 76.0499C304.552 74.05 303.602 71.2999 303.602 67.7999C303.602 65.3999 304.152 63.2499 305.252 61.3499L304.952 61.0499C300.852 63.8499 296.352 67.5499 291.452 72.1499C286.552 76.6499 281.352 82 275.852 88.2C273.852 90.4 271.752 93.3 269.552 96.9C267.452 100.5 265.602 104.2 264.002 108H254.252C259.652 99.4 265.052 90.85 270.452 82.35C275.852 73.85 281.402 65.2 287.102 56.4H296.252Z" fill="#706953"/>
<path d="M357.903 61.2C357.903 59.8 357.503 58.75 356.703 58.05C356.003 57.35 355.103 57 354.003 57C351.903 57 349.603 57.85 347.103 59.5499C344.703 61.1499 342.303 63.2 339.903 65.7C337.503 68.1 335.303 70.7 333.303 73.5C331.403 76.3 329.953 78.8 328.953 81C331.153 80.6 333.903 79.85 337.203 78.75C340.503 77.55 343.653 76.1 346.653 74.4C349.753 72.7 352.403 70.7499 354.603 68.5499C356.803 66.2499 357.903 63.8 357.903 61.2ZM382.203 69.15C380.703 71.65 378.803 74.3999 376.503 77.3999C374.303 80.3999 371.753 83.3999 368.853 86.3999C366.053 89.2999 363.003 92.15 359.703 94.95C356.503 97.65 353.153 100.1 349.653 102.3C346.153 104.4 342.603 106.1 339.003 107.4C335.503 108.6 332.053 109.2 328.653 109.2C324.453 109.2 321.203 108.15 318.903 106.05C316.603 103.85 315.453 100.75 315.453 96.75C315.453 92.35 316.753 87.75 319.353 82.95C322.053 78.05 325.453 73.55 329.553 69.45C333.653 65.35 338.153 61.95 343.053 59.25C347.953 56.5499 352.653 55.1999 357.153 55.1999C359.653 55.1999 361.603 55.7499 363.003 56.8499C364.403 57.8499 365.103 59.3499 365.103 61.3499C365.103 63.75 363.803 66.1 361.203 68.4C358.603 70.6 355.403 72.6499 351.603 74.5499C347.903 76.3499 343.903 78 339.603 79.5C335.303 80.9 331.503 81.9499 328.203 82.6499C327.103 84.6499 326.203 86.9 325.503 89.4C324.803 91.9 324.453 94.4 324.453 96.9C324.453 98.1 324.553 99.3 324.753 100.5C325.053 101.6 325.453 102.65 325.953 103.65C326.553 104.55 327.303 105.3 328.203 105.9C329.203 106.5 330.403 106.8 331.803 106.8C335.103 106.8 338.953 105.75 343.353 103.65C347.853 101.45 352.403 98.55 357.003 94.95C361.603 91.35 366.003 87.2499 370.203 82.6499C374.403 78.0499 378.003 73.3 381.003 68.4L382.203 69.15Z" fill="#706953"/>
<path d="M420.904 56.4H430.654C426.954 61.6 423.404 66.6499 420.004 71.5499C416.604 76.45 413.554 81 410.854 85.2C408.254 89.3 406.154 92.95 404.554 96.15C402.954 99.25 402.154 101.7 402.154 103.5C402.154 106.1 403.504 107.4 406.204 107.4C408.304 107.4 410.954 106.4 414.154 104.4C417.454 102.3 421.004 99.45 424.804 95.85C428.604 92.25 432.504 88.05 436.504 83.25C440.504 78.45 444.304 73.35 447.904 67.95L448.804 68.25C446.104 72.35 442.904 76.8 439.204 81.6C435.604 86.3 431.804 90.6999 427.804 94.7999C423.804 98.9 419.804 102.35 415.804 105.15C411.804 107.85 408.054 109.2 404.554 109.2C401.654 109.2 399.504 108.5 398.104 107.1C396.804 105.6 396.154 103.85 396.154 101.85C396.154 100.45 396.354 99.0999 396.754 97.7999C397.254 96.3999 397.754 95 398.254 93.6L397.954 93.45C396.654 94.85 395.004 96.5 393.004 98.4C391.104 100.2 389.004 101.9 386.704 103.5C384.504 105.1 382.204 106.45 379.804 107.55C377.404 108.65 375.104 109.2 372.904 109.2C369.204 109.2 366.604 108.05 365.104 105.75C363.604 103.45 362.854 100.85 362.854 97.95C362.854 93.85 364.154 89.35 366.754 84.45C369.354 79.45 372.654 74.8 376.654 70.5C380.654 66.1 385.004 62.45 389.704 59.5499C394.404 56.6499 398.854 55.1999 403.054 55.1999C405.054 55.1999 406.804 55.4999 408.304 56.0999C409.804 56.5999 411.054 57.3499 412.054 58.3499C413.054 59.2499 413.804 60.3 414.304 61.5C414.904 62.7 415.354 63.9499 415.654 65.2499H415.954L420.904 56.4ZM371.854 98.4C371.854 100.7 372.304 102.5 373.204 103.8C374.204 105 375.554 105.6 377.254 105.6C378.954 105.6 380.954 105 383.254 103.8C385.554 102.5 387.954 100.8 390.454 98.7C392.954 96.6 395.404 94.2 397.804 91.5C400.304 88.7 402.504 85.7499 404.404 82.6499C406.304 79.5499 407.854 76.4 409.054 73.2C410.254 70 410.854 66.95 410.854 64.0499C410.854 61.7499 410.204 60 408.904 58.8C407.604 57.6 406.004 57 404.104 57C401.104 57 397.754 58.3 394.054 60.9C390.354 63.5 386.854 66.85 383.554 70.95C380.254 74.95 377.454 79.3999 375.154 84.2999C372.954 89.1999 371.854 93.9 371.854 98.4Z" fill="#706953"/>
<path d="M156.019 373V372.08L160.959 366.7C161.665 365.927 162.179 365.213 162.499 364.56C162.832 363.893 162.999 363.213 162.999 362.52C162.999 361.653 162.739 360.993 162.219 360.54C161.699 360.087 160.939 359.86 159.939 359.86C158.445 359.86 157.152 360.42 156.059 361.54L155.539 360.54C156.045 360.007 156.692 359.573 157.479 359.24C158.279 358.907 159.119 358.74 159.999 358.74C161.359 358.74 162.405 359.067 163.139 359.72C163.885 360.36 164.259 361.273 164.259 362.46C164.259 363.3 164.045 364.133 163.619 364.96C163.205 365.773 162.579 366.633 161.739 367.54L157.619 371.92H164.839V373H156.019Z" fill="#706953"/>
<path d="M168.811 373V372.08L173.751 366.7C174.458 365.927 174.971 365.213 175.291 364.56C175.624 363.893 175.791 363.213 175.791 362.52C175.791 361.653 175.531 360.993 175.011 360.54C174.491 360.087 173.731 359.86 172.731 359.86C171.238 359.86 169.944 360.42 168.851 361.54L168.331 360.54C168.838 360.007 169.484 359.573 170.271 359.24C171.071 358.907 171.911 358.74 172.791 358.74C174.151 358.74 175.198 359.067 175.931 359.72C176.678 360.36 177.051 361.273 177.051 362.46C177.051 363.3 176.838 364.133 176.411 364.96C175.998 365.773 175.371 366.633 174.531 367.54L170.411 371.92H177.631V373H168.811Z" fill="#706953"/>
<path d="M191.262 373.14L191.162 372.06L192.282 371.98C192.989 371.927 193.535 371.667 193.922 371.2C194.309 370.733 194.502 370.113 194.502 369.34V358.9H195.742V369.36C195.742 370.467 195.455 371.34 194.882 371.98C194.309 372.62 193.482 372.98 192.402 373.06L191.262 373.14Z" fill="#706953"/>
<path d="M205.594 373.16C203.794 373.16 202.427 372.68 201.494 371.72C200.56 370.747 200.094 369.34 200.094 367.5V358.9H201.314V367.4C201.314 370.493 202.74 372.04 205.594 372.04C208.447 372.04 209.874 370.493 209.874 367.4V358.9H211.094V367.5C211.094 369.34 210.627 370.747 209.694 371.72C208.76 372.68 207.394 373.16 205.594 373.16Z" fill="#706953"/>
<path d="M215.466 373V358.9H216.446L225.366 370.92V358.9H226.506V373H225.546L216.606 360.96V373H215.466Z" fill="#706953"/>
<path d="M230.993 373V358.9H232.213V373H230.993Z" fill="#706953"/>
<path d="M248.374 373V372.08L253.314 366.7C254.021 365.927 254.534 365.213 254.854 364.56C255.187 363.893 255.354 363.213 255.354 362.52C255.354 361.653 255.094 360.993 254.574 360.54C254.054 360.087 253.294 359.86 252.294 359.86C250.801 359.86 249.507 360.42 248.414 361.54L247.894 360.54C248.401 360.007 249.047 359.573 249.834 359.24C250.634 358.907 251.474 358.74 252.354 358.74C253.714 358.74 254.761 359.067 255.494 359.72C256.241 360.36 256.614 361.273 256.614 362.46C256.614 363.3 256.401 364.133 255.974 364.96C255.561 365.773 254.934 366.633 254.094 367.54L249.974 371.92H257.194V373H248.374Z" fill="#706953"/>
<path d="M265.286 373.16C263.7 373.16 262.493 372.547 261.666 371.32C260.853 370.093 260.446 368.307 260.446 365.96C260.446 363.587 260.853 361.793 261.666 360.58C262.493 359.353 263.7 358.74 265.286 358.74C266.886 358.74 268.093 359.347 268.906 360.56C269.72 361.773 270.126 363.567 270.126 365.94C270.126 368.287 269.713 370.08 268.886 371.32C268.06 372.547 266.86 373.16 265.286 373.16ZM265.286 372.06C266.5 372.06 267.4 371.56 267.986 370.56C268.573 369.56 268.866 368.02 268.866 365.94C268.866 363.833 268.573 362.293 267.986 361.32C267.413 360.333 266.513 359.84 265.286 359.84C264.073 359.84 263.173 360.333 262.586 361.32C262 362.307 261.706 363.847 261.706 365.94C261.706 368.02 262 369.56 262.586 370.56C263.173 371.56 264.073 372.06 265.286 372.06Z" fill="#706953"/>
<path d="M273.959 373V372.08L278.899 366.7C279.605 365.927 280.119 365.213 280.439 364.56C280.772 363.893 280.939 363.213 280.939 362.52C280.939 361.653 280.679 360.993 280.159 360.54C279.639 360.087 278.879 359.86 277.879 359.86C276.385 359.86 275.092 360.42 273.999 361.54L273.479 360.54C273.985 360.007 274.632 359.573 275.419 359.24C276.219 358.907 277.059 358.74 277.939 358.74C279.299 358.74 280.345 359.067 281.079 359.72C281.825 360.36 282.199 361.273 282.199 362.46C282.199 363.3 281.985 364.133 281.559 364.96C281.145 365.773 280.519 366.633 279.679 367.54L275.559 371.92H282.779V373H273.959Z" fill="#706953"/>
<path d="M292.671 373V369.82H285.991V368.88L292.871 358.9H293.911V368.74H296.071V369.82H293.911V373H292.671ZM292.671 368.74V361.04L287.351 368.74H292.671Z" fill="#706953"/>
<path d="M114.651 207.9C114.751 208.9 114.801 209.85 114.801 210.75C114.801 211.65 114.801 212.55 114.801 213.45C114.801 217.35 113.851 221.1 111.951 224.7C110.151 228.2 107.551 231.35 104.151 234.15C100.851 236.85 96.9008 239 92.3008 240.6C87.7008 242.2 82.6508 243 77.1508 243C68.9508 243 62.8008 241.15 58.7008 237.45C54.7008 233.75 52.7008 228.95 52.7008 223.05C52.7008 218.25 54.3008 213.3 57.5008 208.2C60.8008 203.1 66.2008 198.45 73.7008 194.25C81.2008 190.05 91.1008 186.6 103.401 183.9C115.701 181.1 130.951 179.7 149.151 179.7C154.751 179.7 159.851 179.85 164.451 180.15C169.051 180.45 173.001 180.6 176.301 180.6C179.201 180.6 181.601 180.45 183.501 180.15C185.501 179.85 187.201 179.7 188.601 179.7C189.801 179.7 190.901 180.1 191.901 180.9C192.901 181.6 193.401 182.65 193.401 184.05C193.401 184.95 193.101 185.7 192.501 186.3C192.001 186.8 191.051 187.15 189.651 187.35C188.251 187.55 186.351 187.7 183.951 187.8C181.651 187.8 178.701 187.8 175.101 187.8C168.101 187.8 162.251 189.05 157.551 191.55C152.951 193.95 148.651 197.65 144.651 202.65C140.651 207.55 136.501 213.75 132.201 221.25C127.901 228.65 122.551 237.3 116.151 247.2C113.951 250.6 111.151 254.45 107.751 258.75C104.451 263.05 100.501 267.1 95.9008 270.9C91.3008 274.7 86.0508 277.9 80.1508 280.5C74.2508 283.1 67.6008 284.4 60.2008 284.4C57.4008 284.4 54.4508 284.05 51.3508 283.35C48.2508 282.75 45.4008 281.75 42.8008 280.35C40.3008 278.85 38.2008 276.9 36.5008 274.5C34.9008 272.1 34.1008 269.15 34.1008 265.65C34.1008 263.45 34.7008 261.6 35.9008 260.1C37.2008 258.5 39.0008 257.7 41.3008 257.7C42.9008 257.7 44.2008 258.25 45.2008 259.35C46.3008 260.35 46.8508 261.65 46.8508 263.25C46.8508 264.75 46.3508 265.95 45.3508 266.85C44.3508 267.75 43.2008 268.2 41.9008 268.2C41.2008 268.2 40.6008 268.1 40.1008 267.9C40.6008 272.7 42.8508 276.35 46.8508 278.85C50.8508 281.35 55.8008 282.6 61.7008 282.6C67.3008 282.6 72.4508 281.35 77.1508 278.85C81.8508 276.35 86.2008 273.05 90.2008 268.95C94.3008 264.85 98.1508 260.2 101.751 255C105.351 249.7 108.901 244.25 112.401 238.65C116.001 232.95 119.601 227.35 123.201 221.85C126.801 216.25 130.601 211.15 134.601 206.55C138.601 201.95 142.851 198.05 147.351 194.85C151.951 191.55 157.001 189.4 162.501 188.4V188.1C158.001 188.1 153.101 187.9 147.801 187.5C142.501 187.1 137.601 186.9 133.101 186.9C120.501 186.9 109.301 187.85 99.5008 189.75C89.8008 191.55 81.6008 194.1 74.9008 197.4C68.2008 200.6 63.1008 204.4 59.6008 208.8C56.2008 213.2 54.5008 217.95 54.5008 223.05C54.5008 229.05 56.5008 233.6 60.5008 236.7C64.6008 239.7 70.3508 241.2 77.7508 241.2C82.9508 241.2 87.7008 240.45 92.0008 238.95C96.3008 237.35 100.001 235.3 103.101 232.8C106.201 230.2 108.601 227.25 110.301 223.95C112.101 220.65 113.001 217.25 113.001 213.75C113.001 212.75 113.001 211.8 113.001 210.9C113.001 209.9 112.951 208.9 112.851 207.9H114.651Z" fill="#706953"/>
<path d="M205.329 244.05C202.929 246.75 200.229 248.9 197.229 250.5C194.229 252.1 191.279 252.9 188.379 252.9C185.579 252.9 183.179 252.3 181.179 251.1C179.179 249.8 177.629 248.3 176.529 246.6H176.229C175.229 250.4 173.379 254.45 170.679 258.75C167.979 263.05 164.729 267 160.929 270.6C157.229 274.2 153.129 277.2 148.629 279.6C144.129 282 139.529 283.2 134.829 283.2C130.529 283.2 127.279 281.95 125.079 279.45C122.879 276.95 121.779 273.6 121.779 269.4C121.779 267.2 122.329 264.65 123.429 261.75C124.529 258.85 126.029 255.95 127.929 253.05C129.929 250.05 132.229 247.15 134.829 244.35C137.529 241.45 140.429 238.9 143.529 236.7C146.629 234.4 149.879 232.6 153.279 231.3C156.779 229.9 160.279 229.2 163.779 229.2C167.879 229.2 171.029 230.4 173.229 232.8C175.529 235.2 176.779 238.3 176.979 242.1C177.179 244.4 178.229 246.55 180.129 248.55C182.129 250.45 184.829 251.4 188.229 251.4C191.229 251.4 194.029 250.65 196.629 249.15C199.329 247.65 201.829 245.7 204.129 243.3L205.329 244.05ZM129.879 273C129.879 275.6 130.379 277.65 131.379 279.15C132.379 280.65 133.879 281.4 135.879 281.4C138.579 281.4 141.229 280.7 143.829 279.3C146.529 277.8 149.079 275.9 151.479 273.6C153.979 271.2 156.279 268.5 158.379 265.5C160.479 262.5 162.279 259.4 163.779 256.2C165.379 253 166.629 249.9 167.529 246.9C168.429 243.8 168.879 241 168.879 238.5C168.879 236.4 168.329 234.65 167.229 233.25C166.229 231.75 164.629 231 162.429 231C160.329 231 158.079 231.7 155.679 233.1C153.279 234.4 150.829 236.15 148.329 238.35C145.929 240.55 143.629 243.1 141.429 246C139.229 248.9 137.229 251.9 135.429 255C133.729 258.1 132.379 261.2 131.379 264.3C130.379 267.4 129.879 270.3 129.879 273Z" fill="#706953"/>
<path d="M219.93 230.4L200.88 258.15L201.18 258.45C202.58 256.75 204.33 254.8 206.43 252.6C208.63 250.3 210.98 248 213.48 245.7C216.08 243.3 218.78 240.95 221.58 238.65C224.38 236.35 227.13 234.3 229.83 232.5C230.33 231.5 230.88 230.7 231.48 230.1C232.08 229.5 233.28 229.2 235.08 229.2C236.18 229.2 237.13 229.25 237.93 229.35C238.83 229.35 239.73 229.4 240.63 229.5C238.93 231.2 237.28 233.3 235.68 235.8C234.08 238.2 233.28 240.85 233.28 243.75C233.28 246.05 233.83 247.85 234.93 249.15C236.13 250.45 237.58 251.1 239.28 251.1C240.78 251.1 242.23 250.8 243.63 250.2C245.13 249.6 246.53 248.85 247.83 247.95C249.13 247.05 250.38 246.1 251.58 245.1C252.78 244.1 253.83 243.2 254.73 242.4L255.63 243C254.63 244 253.48 245.1 252.18 246.3C250.88 247.4 249.48 248.45 247.98 249.45C246.48 250.45 244.88 251.3 243.18 252C241.48 252.6 239.73 252.9 237.93 252.9C234.73 252.9 232.13 251.95 230.13 250.05C228.23 248.05 227.28 245.3 227.28 241.8C227.28 239.4 227.83 237.25 228.93 235.35L228.63 235.05C224.53 237.85 220.03 241.55 215.13 246.15C210.23 250.65 205.03 256 199.53 262.2C197.53 264.4 195.43 267.3 193.23 270.9C191.13 274.5 189.28 278.2 187.68 282H177.93C183.33 273.4 188.73 264.85 194.13 256.35C199.53 247.85 205.08 239.2 210.78 230.4H219.93Z" fill="#706953"/>
<path d="M269.281 230.4L237.631 280.35C242.131 279.65 246.631 278.25 251.131 276.15C255.731 273.95 260.181 271.2 264.481 267.9C268.881 264.5 273.031 260.6 276.931 256.2C280.931 251.8 284.631 247.05 288.031 241.95L289.381 242.55C286.281 247.25 282.781 251.8 278.881 256.2C275.081 260.6 270.981 264.6 266.581 268.2C262.181 271.7 257.431 274.7 252.331 277.2C247.331 279.6 242.081 281.2 236.581 282C233.281 287.3 229.531 292.55 225.331 297.75C221.131 303.05 216.531 307.8 211.531 312C206.431 316.2 200.931 319.6 195.031 322.2C189.031 324.8 182.631 326.1 175.831 326.1C172.631 326.1 169.531 325.75 166.531 325.05C163.531 324.35 160.881 323.25 158.581 321.75C156.281 320.25 154.431 318.4 153.031 316.2C151.631 314 150.931 311.4 150.931 308.4C150.931 306.2 151.431 304.2 152.431 302.4C153.331 300.6 154.581 299.05 156.181 297.75C157.781 296.55 159.581 295.6 161.581 294.9C163.481 294.3 165.431 294 167.431 294C168.231 294 168.981 294.05 169.681 294.15C170.381 294.25 170.981 294.35 171.481 294.45V295.8H170.431C166.331 295.8 163.281 297.05 161.281 299.55C159.181 302.05 158.131 304.8 158.131 307.8C158.131 313.7 159.831 317.9 163.231 320.4C166.631 323 171.131 324.3 176.731 324.3C182.931 324.3 188.781 322.65 194.281 319.35C199.681 316.05 204.731 311.85 209.431 306.75C214.131 301.65 218.531 296.05 222.631 289.95C226.731 283.85 230.531 277.95 234.031 272.25L259.981 230.4H269.281ZM278.581 202.5C279.981 202.5 281.131 203 282.031 204C282.931 204.9 283.381 206.05 283.381 207.45C283.381 208.85 282.931 210.05 282.031 211.05C281.131 211.95 279.981 212.4 278.581 212.4C277.181 212.4 276.031 211.95 275.131 211.05C274.231 210.05 273.781 208.85 273.781 207.45C273.781 206.05 274.231 204.9 275.131 204C276.031 203 277.181 202.5 278.581 202.5Z" fill="#706953"/>
<path d="M304.633 230.4C300.733 235.7 296.983 240.75 293.383 245.55C289.783 250.35 286.583 254.75 283.783 258.75C280.983 262.75 278.733 266.25 277.033 269.25C275.433 272.15 274.633 274.45 274.633 276.15C274.633 277.75 275.033 278.95 275.833 279.75C276.633 280.45 277.683 280.8 278.983 280.8C280.883 280.8 282.933 280.2 285.133 279C287.433 277.8 289.733 276.25 292.033 274.35C294.433 272.45 296.733 270.35 298.933 268.05C301.233 265.75 303.333 263.5 305.233 261.3C307.233 259 308.933 256.9 310.333 255C311.833 253.1 312.933 251.6 313.633 250.5L326.833 230.4H337.183C331.783 237.8 327.183 244.1 323.383 249.3C319.683 254.4 316.633 258.75 314.233 262.35C311.933 265.95 310.283 268.9 309.283 271.2C308.283 273.4 307.783 275.35 307.783 277.05C307.783 278.25 308.133 279.3 308.833 280.2C309.533 281 310.533 281.4 311.833 281.4C313.833 281.4 316.133 280.7 318.733 279.3C321.333 277.8 324.033 275.9 326.833 273.6C329.633 271.2 332.383 268.55 335.083 265.65C337.883 262.65 340.483 259.7 342.883 256.8C345.383 253.9 347.633 251.2 349.633 248.7C351.633 246.1 353.183 244 354.283 242.4L355.783 242.85C354.583 244.55 352.983 246.75 350.983 249.45C348.983 252.05 346.733 254.85 344.233 257.85C341.733 260.75 339.083 263.75 336.283 266.85C333.483 269.85 330.583 272.55 327.583 274.95C324.683 277.35 321.783 279.35 318.883 280.95C316.083 282.45 313.433 283.2 310.933 283.2C308.133 283.2 305.883 282.45 304.183 280.95C302.583 279.35 301.783 277.25 301.783 274.65C301.783 272.65 302.083 270.75 302.683 268.95C303.383 267.05 303.883 265.85 304.183 265.35L303.883 265.05C301.783 267.45 299.583 269.75 297.283 271.95C294.983 274.15 292.683 276.1 290.383 277.8C288.083 279.4 285.733 280.7 283.333 281.7C281.033 282.7 278.733 283.2 276.433 283.2C273.233 283.2 270.933 282.5 269.533 281.1C268.133 279.6 267.433 277.85 267.433 275.85C267.433 273.35 268.133 270.65 269.533 267.75C270.833 264.85 272.683 261.6 275.083 258C277.483 254.4 280.333 250.35 283.633 245.85C287.033 241.35 290.733 236.2 294.733 230.4H304.633Z" fill="#706953"/>
<path d="M405.333 243.3C402.333 248.1 398.833 252.9 394.833 257.7C390.933 262.4 386.633 266.65 381.933 270.45C377.233 274.25 372.083 277.35 366.483 279.75C360.983 282.05 355.083 283.2 348.783 283.2C346.383 283.2 344.133 282.9 342.033 282.3C339.933 281.7 338.083 280.8 336.483 279.6C334.983 278.4 333.783 276.9 332.883 275.1C331.883 273.2 331.383 271 331.383 268.5C331.383 265.9 332.233 263.55 333.933 261.45C335.633 259.35 337.933 258.3 340.833 258.3C342.333 258.3 343.533 258.7 344.433 259.5C345.433 260.2 345.933 261.3 345.933 262.8C345.933 264.2 345.583 265.4 344.883 266.4C344.183 267.4 343.133 267.9 341.733 267.9C340.633 267.9 339.733 267.6 339.033 267C338.433 266.4 338.033 265.65 337.833 264.75C336.733 265.35 335.983 266.25 335.583 267.45C335.183 268.55 334.983 269.7 334.983 270.9C334.983 274.4 336.283 277.05 338.883 278.85C341.583 280.55 344.583 281.4 347.883 281.4C349.983 281.4 351.783 281 353.283 280.2C354.883 279.3 356.183 278.2 357.183 276.9C358.283 275.5 359.083 273.9 359.583 272.1C360.083 270.3 360.333 268.5 360.333 266.7C360.333 264.8 359.983 262.85 359.283 260.85C358.683 258.75 357.983 256.7 357.183 254.7C356.383 252.7 355.633 250.75 354.933 248.85C354.233 246.85 353.883 245 353.883 243.3C353.883 241.1 354.333 239.15 355.233 237.45C356.133 235.65 357.333 234.15 358.833 232.95C360.433 231.75 362.233 230.85 364.233 230.25C366.233 229.55 368.333 229.2 370.533 229.2C374.533 229.2 377.783 230.1 380.283 231.9C382.783 233.6 384.033 235.9 384.033 238.8C384.033 241.4 383.033 243.3 381.033 244.5C379.133 245.7 376.983 246.3 374.583 246.3C375.183 245.2 375.683 243.9 376.083 242.4C376.583 240.8 376.833 239.35 376.833 238.05C376.833 236.05 376.183 234.4 374.883 233.1C373.683 231.7 371.933 231 369.633 231C366.733 231 364.583 231.9 363.183 233.7C361.783 235.4 361.083 237.5 361.083 240C361.083 242.2 361.433 244.3 362.133 246.3C362.933 248.3 363.833 250.3 364.833 252.3C365.733 254.3 366.533 256.35 367.233 258.45C368.033 260.55 368.433 262.9 368.433 265.5C368.433 267.4 367.983 269.25 367.083 271.05C366.283 272.75 365.183 274.35 363.783 275.85C362.383 277.25 360.783 278.45 358.983 279.45C357.283 280.45 355.533 281.1 353.733 281.4L354.033 281.7C359.433 281.1 364.583 279.55 369.483 277.05C374.383 274.45 378.933 271.35 383.133 267.75C387.433 264.05 391.383 260.05 394.983 255.75C398.583 251.35 401.733 247.05 404.433 242.85L405.333 243.3Z" fill="#706953"/>
<path d="M222.488 163.375C221.48 163.375 220.555 163.233 219.713 162.95C218.872 162.658 218.163 162.208 217.588 161.6C217.155 161.133 216.83 160.608 216.613 160.025C216.397 159.433 216.276 158.812 216.251 158.162C216.242 157.546 216.33 156.933 216.513 156.325C216.697 155.708 216.992 155.158 217.401 154.675C217.667 154.342 217.972 154.067 218.313 153.85C218.655 153.633 219.005 153.45 219.363 153.3C218.697 152.617 218.188 151.992 217.838 151.425C217.488 150.858 217.313 150.158 217.313 149.325C217.313 148.433 217.53 147.617 217.963 146.875C218.405 146.125 219.017 145.567 219.801 145.2C220.226 144.992 220.663 144.846 221.113 144.762C221.563 144.679 222.009 144.637 222.451 144.637C223.092 144.637 223.726 144.721 224.351 144.887C224.976 145.054 225.513 145.317 225.963 145.675C226.263 145.9 226.53 146.167 226.763 146.475C227.005 146.783 227.197 147.104 227.338 147.437L225.963 147.925C225.763 147.45 225.442 147.054 225.001 146.737C224.659 146.487 224.272 146.308 223.838 146.2C223.405 146.092 222.967 146.037 222.526 146.037C221.759 146.037 221.055 146.192 220.413 146.5C219.888 146.767 219.488 147.142 219.213 147.625C218.947 148.1 218.813 148.654 218.813 149.287C218.813 149.829 218.897 150.279 219.063 150.637C219.238 150.987 219.505 151.375 219.863 151.8C220.055 152.008 220.263 152.217 220.488 152.425C220.722 152.625 220.955 152.833 221.188 153.05L227.263 158.712C227.305 158.462 227.334 158.221 227.351 157.987C227.367 157.754 227.376 157.521 227.376 157.287L227.351 154.512H228.776V157.1C228.776 157.833 228.747 158.408 228.688 158.825C228.638 159.242 228.572 159.583 228.488 159.85L230.826 162.025L229.863 163.062L227.801 161.112C227.567 161.454 227.255 161.775 226.863 162.075C226.48 162.367 226.097 162.6 225.713 162.775C225.23 163.008 224.709 163.167 224.151 163.25C223.601 163.333 223.047 163.375 222.488 163.375ZM222.463 161.962C223.013 161.962 223.505 161.929 223.938 161.862C224.38 161.787 224.797 161.642 225.188 161.425C225.672 161.142 226.022 160.887 226.238 160.662C226.455 160.429 226.622 160.229 226.738 160.062L220.526 154.387C220.142 154.504 219.776 154.667 219.426 154.875C219.084 155.075 218.788 155.321 218.538 155.612C218.263 155.946 218.063 156.329 217.938 156.762C217.813 157.196 217.755 157.646 217.763 158.112C217.772 158.587 217.851 159.037 218.001 159.462C218.151 159.879 218.372 160.25 218.663 160.575C219.088 161.05 219.647 161.4 220.338 161.625C221.038 161.85 221.747 161.962 222.463 161.962Z" fill="#706953"/>
<path d="M60.0008 155L205.001 155M245.001 155L390.001 155M77.5508 61.3499C72.6508 67.5499 67.6008 73.55 62.4008 79.35C57.2008 85.05 51.9508 90.15 46.6508 94.65C41.4508 99.05 36.2508 102.6 31.0508 105.3C25.8508 107.9 20.8508 109.2 16.0508 109.2C12.7508 109.2 10.1008 108.8 8.10078 108C6.20078 107.3 4.70078 106.45 3.60078 105.45C2.60078 104.35 1.90078 103.25 1.50078 102.15C1.20078 100.95 1.05078 99.9 1.05078 99C1.05078 97.3 1.55078 95.85 2.55078 94.65C3.55078 93.45 4.95078 92.85 6.75078 92.85C8.35078 92.85 9.60078 93.4 10.5008 94.5C11.4008 95.6 11.8508 96.9 11.8508 98.4C11.8508 99.3 11.6008 100.2 11.1008 101.1C10.6008 102 9.90078 102.55 9.00078 102.75C9.90078 104.15 11.1508 105.1 12.7508 105.6C14.3508 106 16.0008 106.2 17.7008 106.2C22.0008 106.2 26.5008 104.95 31.2008 102.45C36.0008 99.95 40.8008 96.7 45.6008 92.7C50.5008 88.6 55.3508 84 60.1508 78.9C64.9508 73.7 69.5508 68.4 73.9508 63C75.8508 60.6 78.2008 57.65 81.0008 54.1499C83.9008 50.6499 87.1508 46.8499 90.7508 42.7499C94.3508 38.6499 98.2508 34.5 102.451 30.3C106.751 25.9999 111.301 21.9499 116.101 18.1499C120.901 14.3499 125.901 10.9499 131.101 7.94994C136.301 4.94995 141.601 2.69995 147.001 1.19995L147.451 1.79995C144.051 4.89995 140.501 8.74995 136.801 13.3499C133.101 17.9499 129.451 22.9499 125.851 28.35C122.351 33.65 119.001 39.2499 115.801 45.1499C112.601 51.0499 109.751 56.95 107.251 62.8499C104.851 68.65 102.901 74.2499 101.401 79.6499C100.001 85.0499 99.3008 90 99.3008 94.5C99.3008 97.6 99.8008 100.25 100.801 102.45C101.901 104.55 104.051 105.6 107.251 105.6C109.151 105.6 111.301 104.9 113.701 103.5C116.201 102.1 118.801 100.25 121.501 97.95C124.201 95.65 126.851 93.1 129.451 90.2999C132.151 87.4999 134.701 84.7499 137.101 82.0499C139.501 79.2499 141.651 76.65 143.551 74.25C145.451 71.75 146.951 69.75 148.051 68.25L149.101 68.7C145.701 73 142.101 77.55 138.301 82.35C134.501 87.15 130.651 91.5499 126.751 95.5499C122.851 99.4499 118.901 102.7 114.901 105.3C111.001 107.9 107.251 109.2 103.651 109.2C101.251 109.2 99.2008 108.8 97.5008 108C95.9008 107.1 94.5508 105.9 93.4508 104.4C92.3508 102.9 91.5508 101.2 91.0508 99.2999C90.5508 97.3999 90.3008 95.3999 90.3008 93.2999C90.3008 87.5999 91.1008 82.15 92.7008 76.95C94.3008 71.65 96.1008 66.4499 98.1008 61.3499H77.5508ZM98.8508 59.5499C103.351 50.25 108.651 41.15 114.751 32.25C120.951 23.3499 128.251 14.8999 136.651 6.89995L136.351 6.59994C131.051 9.19995 125.851 12.3999 120.751 16.1999C115.751 20 110.851 24.2 106.051 28.8C101.251 33.4 96.5508 38.2999 91.9508 43.5C87.4508 48.6999 83.0508 54.0499 78.7508 59.5499H98.8508ZM162.651 56.4L142.851 83.85L143.151 84.1499C145.251 81.6499 147.701 78.75 150.501 75.45C153.301 72.05 156.301 68.85 159.501 65.85C162.701 62.85 166.001 60.3499 169.401 58.3499C172.901 56.2499 176.351 55.1999 179.751 55.1999C182.751 55.1999 185.051 56.0499 186.651 57.75C188.351 59.35 189.201 61.45 189.201 64.0499C189.201 65.6499 188.601 67.5499 187.401 69.7499C186.301 71.9499 184.901 74.2999 183.201 76.7999C181.501 79.2999 179.651 81.85 177.651 84.45C175.651 87.05 173.801 89.55 172.101 91.95C170.401 94.25 168.951 96.4 167.751 98.4C166.651 100.3 166.101 101.9 166.101 103.2C166.101 106 167.501 107.4 170.301 107.4C173.501 107.4 176.901 106.35 180.501 104.25C184.101 102.05 188.401 98.4 193.401 93.2999C195.401 91.2999 197.401 89.1 199.401 86.7C201.501 84.3 203.501 81.9499 205.401 79.6499C207.301 77.2499 209.001 74.9999 210.501 72.8999C212.101 70.7999 213.351 69.0499 214.251 67.6499L215.301 68.25C213.301 71.25 210.701 74.8499 207.501 79.0499C204.401 83.1499 201.001 87.2 197.301 91.2C195.101 93.6 192.851 95.9 190.551 98.1C188.251 100.3 185.951 102.25 183.651 103.95C181.351 105.55 179.051 106.85 176.751 107.85C174.551 108.75 172.351 109.2 170.151 109.2C167.251 109.2 164.851 108.4 162.951 106.8C161.051 105.2 160.101 103 160.101 100.2C160.101 97.2 161.301 93.95 163.701 90.45C166.101 86.85 168.751 83.2499 171.651 79.6499C174.551 76.0499 177.201 72.6 179.601 69.2999C182.001 66 183.201 63.1 183.201 60.6C183.201 59.4 182.801 58.4999 182.001 57.8999C181.201 57.2999 180.151 57 178.851 57C176.351 57 173.551 57.95 170.451 59.85C167.351 61.65 164.151 64.1 160.851 67.2C157.651 70.2 154.401 73.5999 151.101 77.3999C147.901 81.0999 144.901 84.8499 142.101 88.6499C139.301 92.3499 136.801 95.95 134.601 99.45C132.401 102.85 130.751 105.7 129.651 108H120.351C122.951 103.6 125.751 99.15 128.751 94.65C131.651 90.05 134.551 85.55 137.451 81.15C140.351 76.65 143.101 72.35 145.701 68.25C148.401 64.05 150.801 60.2499 152.901 56.8499L162.651 56.4ZM297.852 4.19995C293.952 10.3999 289.702 16.9499 285.102 23.8499C280.502 30.7499 275.902 37.5999 271.302 44.3999C266.702 51.1999 262.252 57.7999 257.952 64.1999C253.752 70.4999 250.002 76.3 246.702 81.6C243.402 86.9 240.752 91.5 238.752 95.4C236.852 99.2 235.902 102 235.902 103.8C235.902 104.9 236.152 105.8 236.652 106.5C237.252 107.1 238.102 107.4 239.202 107.4C241.702 107.4 244.552 106.4 247.752 104.4C250.952 102.4 254.802 99.25 259.302 94.95C263.202 91.15 267.002 86.95 270.702 82.35C274.402 77.65 277.602 73.0499 280.302 68.5499L281.502 69.15C280.602 70.75 279.402 72.65 277.902 74.85C276.502 76.95 274.902 79.15 273.102 81.45C271.402 83.7499 269.552 86.1 267.552 88.5C265.552 90.8 263.502 93 261.402 95.1C257.402 99.2 253.452 102.6 249.552 105.3C245.652 107.9 242.052 109.2 238.752 109.2C235.552 109.2 233.152 108.55 231.552 107.25C230.052 105.85 229.302 104.1 229.302 102C229.302 100.1 229.702 98.25 230.502 96.45C231.302 94.65 232.102 93.05 232.902 91.65L232.602 91.5C231.002 93.3 229.202 95.25 227.202 97.35C225.302 99.35 223.252 101.25 221.052 103.05C218.852 104.85 216.502 106.35 214.002 107.55C211.602 108.65 209.102 109.2 206.502 109.2C202.902 109.2 200.102 108.1 198.102 105.9C196.202 103.7 195.252 101.1 195.252 98.1C195.252 93.9 196.702 89.3 199.602 84.2999C202.502 79.3 206.102 74.65 210.402 70.35C214.802 66.05 219.502 62.45 224.502 59.5499C229.502 56.6499 234.152 55.1999 238.452 55.1999C241.652 55.1999 244.202 56.2 246.102 58.2C248.002 60.2 248.902 62.75 248.802 65.85H249.252L287.952 4.19995H297.852ZM244.602 66C244.602 63.6 244.202 61.4999 243.402 59.6999C242.602 57.8999 240.752 57 237.852 57C235.852 57 233.602 57.7 231.102 59.1C228.702 60.5 226.252 62.35 223.752 64.65C221.252 66.95 218.802 69.6 216.402 72.6C214.102 75.5 212.052 78.5 210.252 81.6C208.452 84.6 207.002 87.55 205.902 90.45C204.802 93.35 204.252 95.95 204.252 98.25C204.252 100.35 204.652 102.1 205.452 103.5C206.252 104.9 207.702 105.6 209.802 105.6C211.602 105.6 213.652 104.9 215.952 103.5C218.352 102.1 220.852 100.3 223.452 98.1C226.052 95.8 228.602 93.2 231.102 90.2999C233.602 87.4 235.852 84.5 237.852 81.6C239.852 78.7 241.452 75.9 242.652 73.2C243.952 70.4 244.602 68 244.602 66ZM296.252 56.4L277.202 84.1499L277.502 84.45C278.902 82.75 280.652 80.8 282.752 78.6C284.952 76.3 287.302 74 289.802 71.7C292.402 69.3 295.102 66.95 297.902 64.65C300.702 62.35 303.452 60.3 306.152 58.5C306.652 57.5 307.202 56.7 307.802 56.0999C308.402 55.4999 309.602 55.1999 311.402 55.1999C312.502 55.1999 313.452 55.25 314.252 55.35C315.152 55.35 316.052 55.4 316.952 55.5C315.252 57.2 313.602 59.3 312.002 61.7999C310.402 64.2 309.602 66.8499 309.602 69.7499C309.602 72.0499 310.152 73.8499 311.252 75.1499C312.452 76.4499 313.902 77.1 315.602 77.1C317.102 77.1 318.552 76.8 319.952 76.2C321.452 75.6 322.852 74.85 324.152 73.95C325.452 73.05 326.702 72.1 327.902 71.1C329.102 70.1 330.152 69.2 331.052 68.4L331.952 68.9999C330.952 69.9999 329.802 71.1 328.502 72.2999C327.202 73.3999 325.802 74.45 324.302 75.45C322.802 76.45 321.202 77.3 319.502 78C317.802 78.6 316.052 78.9 314.252 78.9C311.052 78.9 308.452 77.95 306.452 76.0499C304.552 74.05 303.602 71.2999 303.602 67.7999C303.602 65.3999 304.152 63.2499 305.252 61.3499L304.952 61.0499C300.852 63.8499 296.352 67.5499 291.452 72.1499C286.552 76.6499 281.352 82 275.852 88.2C273.852 90.4 271.752 93.3 269.552 96.9C267.452 100.5 265.602 104.2 264.002 108H254.252C259.652 99.4 265.052 90.85 270.452 82.35C275.852 73.85 281.402 65.2 287.102 56.4H296.252ZM357.903 61.2C357.903 59.8 357.503 58.75 356.703 58.05C356.003 57.35 355.103 57 354.003 57C351.903 57 349.603 57.85 347.103 59.5499C344.703 61.1499 342.303 63.2 339.903 65.7C337.503 68.1 335.303 70.7 333.303 73.5C331.403 76.3 329.953 78.8 328.953 81C331.153 80.6 333.903 79.85 337.203 78.75C340.503 77.55 343.653 76.1 346.653 74.4C349.753 72.7 352.403 70.7499 354.603 68.5499C356.803 66.2499 357.903 63.8 357.903 61.2ZM382.203 69.15C380.703 71.65 378.803 74.3999 376.503 77.3999C374.303 80.3999 371.753 83.3999 368.853 86.3999C366.053 89.2999 363.003 92.15 359.703 94.95C356.503 97.65 353.153 100.1 349.653 102.3C346.153 104.4 342.603 106.1 339.003 107.4C335.503 108.6 332.053 109.2 328.653 109.2C324.453 109.2 321.203 108.15 318.903 106.05C316.603 103.85 315.453 100.75 315.453 96.75C315.453 92.35 316.753 87.75 319.353 82.95C322.053 78.05 325.453 73.55 329.553 69.45C333.653 65.35 338.153 61.95 343.053 59.25C347.953 56.5499 352.653 55.1999 357.153 55.1999C359.653 55.1999 361.603 55.7499 363.003 56.8499C364.403 57.8499 365.103 59.3499 365.103 61.3499C365.103 63.75 363.803 66.1 361.203 68.4C358.603 70.6 355.403 72.6499 351.603 74.5499C347.903 76.3499 343.903 78 339.603 79.5C335.303 80.9 331.503 81.9499 328.203 82.6499C327.103 84.6499 326.203 86.9 325.503 89.4C324.803 91.9 324.453 94.4 324.453 96.9C324.453 98.1 324.553 99.3 324.753 100.5C325.053 101.6 325.453 102.65 325.953 103.65C326.553 104.55 327.303 105.3 328.203 105.9C329.203 106.5 330.403 106.8 331.803 106.8C335.103 106.8 338.953 105.75 343.353 103.65C347.853 101.45 352.403 98.55 357.003 94.95C361.603 91.35 366.003 87.2499 370.203 82.6499C374.403 78.0499 378.003 73.3 381.003 68.4L382.203 69.15ZM420.904 56.4H430.654C426.954 61.6 423.404 66.6499 420.004 71.5499C416.604 76.45 413.554 81 410.854 85.2C408.254 89.3 406.154 92.95 404.554 96.15C402.954 99.25 402.154 101.7 402.154 103.5C402.154 106.1 403.504 107.4 406.204 107.4C408.304 107.4 410.954 106.4 414.154 104.4C417.454 102.3 421.004 99.45 424.804 95.85C428.604 92.25 432.504 88.05 436.504 83.25C440.504 78.45 444.304 73.35 447.904 67.95L448.804 68.25C446.104 72.35 442.904 76.8 439.204 81.6C435.604 86.3 431.804 90.6999 427.804 94.7999C423.804 98.9 419.804 102.35 415.804 105.15C411.804 107.85 408.054 109.2 404.554 109.2C401.654 109.2 399.504 108.5 398.104 107.1C396.804 105.6 396.154 103.85 396.154 101.85C396.154 100.45 396.354 99.0999 396.754 97.7999C397.254 96.3999 397.754 95 398.254 93.6L397.954 93.45C396.654 94.85 395.004 96.5 393.004 98.4C391.104 100.2 389.004 101.9 386.704 103.5C384.504 105.1 382.204 106.45 379.804 107.55C377.404 108.65 375.104 109.2 372.904 109.2C369.204 109.2 366.604 108.05 365.104 105.75C363.604 103.45 362.854 100.85 362.854 97.95C362.854 93.85 364.154 89.35 366.754 84.45C369.354 79.45 372.654 74.8 376.654 70.5C380.654 66.1 385.004 62.45 389.704 59.5499C394.404 56.6499 398.854 55.1999 403.054 55.1999C405.054 55.1999 406.804 55.4999 408.304 56.0999C409.804 56.5999 411.054 57.3499 412.054 58.3499C413.054 59.2499 413.804 60.3 414.304 61.5C414.904 62.7 415.354 63.9499 415.654 65.2499H415.954L420.904 56.4ZM371.854 98.4C371.854 100.7 372.304 102.5 373.204 103.8C374.204 105 375.554 105.6 377.254 105.6C378.954 105.6 380.954 105 383.254 103.8C385.554 102.5 387.954 100.8 390.454 98.7C392.954 96.6 395.404 94.2 397.804 91.5C400.304 88.7 402.504 85.7499 404.404 82.6499C406.304 79.5499 407.854 76.4 409.054 73.2C410.254 70 410.854 66.95 410.854 64.0499C410.854 61.7499 410.204 60 408.904 58.8C407.604 57.6 406.004 57 404.104 57C401.104 57 397.754 58.3 394.054 60.9C390.354 63.5 386.854 66.85 383.554 70.95C380.254 74.95 377.454 79.3999 375.154 84.2999C372.954 89.1999 371.854 93.9 371.854 98.4ZM156.019 373V372.08L160.959 366.7C161.665 365.927 162.179 365.213 162.499 364.56C162.832 363.893 162.999 363.213 162.999 362.52C162.999 361.653 162.739 360.993 162.219 360.54C161.699 360.087 160.939 359.86 159.939 359.86C158.445 359.86 157.152 360.42 156.059 361.54L155.539 360.54C156.045 360.007 156.692 359.573 157.479 359.24C158.279 358.907 159.119 358.74 159.999 358.74C161.359 358.74 162.405 359.067 163.139 359.72C163.885 360.36 164.259 361.273 164.259 362.46C164.259 363.3 164.045 364.133 163.619 364.96C163.205 365.773 162.579 366.633 161.739 367.54L157.619 371.92H164.839V373H156.019ZM168.811 373V372.08L173.751 366.7C174.458 365.927 174.971 365.213 175.291 364.56C175.624 363.893 175.791 363.213 175.791 362.52C175.791 361.653 175.531 360.993 175.011 360.54C174.491 360.087 173.731 359.86 172.731 359.86C171.238 359.86 169.944 360.42 168.851 361.54L168.331 360.54C168.838 360.007 169.484 359.573 170.271 359.24C171.071 358.907 171.911 358.74 172.791 358.74C174.151 358.74 175.198 359.067 175.931 359.72C176.678 360.36 177.051 361.273 177.051 362.46C177.051 363.3 176.838 364.133 176.411 364.96C175.998 365.773 175.371 366.633 174.531 367.54L170.411 371.92H177.631V373H168.811ZM191.262 373.14L191.162 372.06L192.282 371.98C192.989 371.927 193.535 371.667 193.922 371.2C194.309 370.733 194.502 370.113 194.502 369.34V358.9H195.742V369.36C195.742 370.467 195.455 371.34 194.882 371.98C194.309 372.62 193.482 372.98 192.402 373.06L191.262 373.14ZM205.594 373.16C203.794 373.16 202.427 372.68 201.494 371.72C200.56 370.747 200.094 369.34 200.094 367.5V358.9H201.314V367.4C201.314 370.493 202.74 372.04 205.594 372.04C208.447 372.04 209.874 370.493 209.874 367.4V358.9H211.094V367.5C211.094 369.34 210.627 370.747 209.694 371.72C208.76 372.68 207.394 373.16 205.594 373.16ZM215.466 373V358.9H216.446L225.366 370.92V358.9H226.506V373H225.546L216.606 360.96V373H215.466ZM230.993 373V358.9H232.213V373H230.993ZM248.374 373V372.08L253.314 366.7C254.021 365.927 254.534 365.213 254.854 364.56C255.187 363.893 255.354 363.213 255.354 362.52C255.354 361.653 255.094 360.993 254.574 360.54C254.054 360.087 253.294 359.86 252.294 359.86C250.801 359.86 249.507 360.42 248.414 361.54L247.894 360.54C248.401 360.007 249.047 359.573 249.834 359.24C250.634 358.907 251.474 358.74 252.354 358.74C253.714 358.74 254.761 359.067 255.494 359.72C256.241 360.36 256.614 361.273 256.614 362.46C256.614 363.3 256.401 364.133 255.974 364.96C255.561 365.773 254.934 366.633 254.094 367.54L249.974 371.92H257.194V373H248.374ZM265.286 373.16C263.7 373.16 262.493 372.547 261.666 371.32C260.853 370.093 260.446 368.307 260.446 365.96C260.446 363.587 260.853 361.793 261.666 360.58C262.493 359.353 263.7 358.74 265.286 358.74C266.886 358.74 268.093 359.347 268.906 360.56C269.72 361.773 270.126 363.567 270.126 365.94C270.126 368.287 269.713 370.08 268.886 371.32C268.06 372.547 266.86 373.16 265.286 373.16ZM265.286 372.06C266.5 372.06 267.4 371.56 267.986 370.56C268.573 369.56 268.866 368.02 268.866 365.94C268.866 363.833 268.573 362.293 267.986 361.32C267.413 360.333 266.513 359.84 265.286 359.84C264.073 359.84 263.173 360.333 262.586 361.32C262 362.307 261.706 363.847 261.706 365.94C261.706 368.02 262 369.56 262.586 370.56C263.173 371.56 264.073 372.06 265.286 372.06ZM273.959 373V372.08L278.899 366.7C279.605 365.927 280.119 365.213 280.439 364.56C280.772 363.893 280.939 363.213 280.939 362.52C280.939 361.653 280.679 360.993 280.159 360.54C279.639 360.087 278.879 359.86 277.879 359.86C276.385 359.86 275.092 360.42 273.999 361.54L273.479 360.54C273.985 360.007 274.632 359.573 275.419 359.24C276.219 358.907 277.059 358.74 277.939 358.74C279.299 358.74 280.345 359.067 281.079 359.72C281.825 360.36 282.199 361.273 282.199 362.46C282.199 363.3 281.985 364.133 281.559 364.96C281.145 365.773 280.519 366.633 279.679 367.54L275.559 371.92H282.779V373H273.959ZM292.671 373V369.82H285.991V368.88L292.871 358.9H293.911V368.74H296.071V369.82H293.911V373H292.671ZM292.671 368.74V361.04L287.351 368.74H292.671ZM114.651 207.9C114.751 208.9 114.801 209.85 114.801 210.75C114.801 211.65 114.801 212.55 114.801 213.45C114.801 217.35 113.851 221.1 111.951 224.7C110.151 228.2 107.551 231.35 104.151 234.15C100.851 236.85 96.9008 239 92.3008 240.6C87.7008 242.2 82.6508 243 77.1508 243C68.9508 243 62.8008 241.15 58.7008 237.45C54.7008 233.75 52.7008 228.95 52.7008 223.05C52.7008 218.25 54.3008 213.3 57.5008 208.2C60.8008 203.1 66.2008 198.45 73.7008 194.25C81.2008 190.05 91.1008 186.6 103.401 183.9C115.701 181.1 130.951 179.7 149.151 179.7C154.751 179.7 159.851 179.85 164.451 180.15C169.051 180.45 173.001 180.6 176.301 180.6C179.201 180.6 181.601 180.45 183.501 180.15C185.501 179.85 187.201 179.7 188.601 179.7C189.801 179.7 190.901 180.1 191.901 180.9C192.901 181.6 193.401 182.65 193.401 184.05C193.401 184.95 193.101 185.7 192.501 186.3C192.001 186.8 191.051 187.15 189.651 187.35C188.251 187.55 186.351 187.7 183.951 187.8C181.651 187.8 178.701 187.8 175.101 187.8C168.101 187.8 162.251 189.05 157.551 191.55C152.951 193.95 148.651 197.65 144.651 202.65C140.651 207.55 136.501 213.75 132.201 221.25C127.901 228.65 122.551 237.3 116.151 247.2C113.951 250.6 111.151 254.45 107.751 258.75C104.451 263.05 100.501 267.1 95.9008 270.9C91.3008 274.7 86.0508 277.9 80.1508 280.5C74.2508 283.1 67.6008 284.4 60.2008 284.4C57.4008 284.4 54.4508 284.05 51.3508 283.35C48.2508 282.75 45.4008 281.75 42.8008 280.35C40.3008 278.85 38.2008 276.9 36.5008 274.5C34.9008 272.1 34.1008 269.15 34.1008 265.65C34.1008 263.45 34.7008 261.6 35.9008 260.1C37.2008 258.5 39.0008 257.7 41.3008 257.7C42.9008 257.7 44.2008 258.25 45.2008 259.35C46.3008 260.35 46.8508 261.65 46.8508 263.25C46.8508 264.75 46.3508 265.95 45.3508 266.85C44.3508 267.75 43.2008 268.2 41.9008 268.2C41.2008 268.2 40.6008 268.1 40.1008 267.9C40.6008 272.7 42.8508 276.35 46.8508 278.85C50.8508 281.35 55.8008 282.6 61.7008 282.6C67.3008 282.6 72.4508 281.35 77.1508 278.85C81.8508 276.35 86.2008 273.05 90.2008 268.95C94.3008 264.85 98.1508 260.2 101.751 255C105.351 249.7 108.901 244.25 112.401 238.65C116.001 232.95 119.601 227.35 123.201 221.85C126.801 216.25 130.601 211.15 134.601 206.55C138.601 201.95 142.851 198.05 147.351 194.85C151.951 191.55 157.001 189.4 162.501 188.4V188.1C158.001 188.1 153.101 187.9 147.801 187.5C142.501 187.1 137.601 186.9 133.101 186.9C120.501 186.9 109.301 187.85 99.5008 189.75C89.8008 191.55 81.6008 194.1 74.9008 197.4C68.2008 200.6 63.1008 204.4 59.6008 208.8C56.2008 213.2 54.5008 217.95 54.5008 223.05C54.5008 229.05 56.5008 233.6 60.5008 236.7C64.6008 239.7 70.3508 241.2 77.7508 241.2C82.9508 241.2 87.7008 240.45 92.0008 238.95C96.3008 237.35 100.001 235.3 103.101 232.8C106.201 230.2 108.601 227.25 110.301 223.95C112.101 220.65 113.001 217.25 113.001 213.75C113.001 212.75 113.001 211.8 113.001 210.9C113.001 209.9 112.951 208.9 112.851 207.9H114.651ZM205.329 244.05C202.929 246.75 200.229 248.9 197.229 250.5C194.229 252.1 191.279 252.9 188.379 252.9C185.579 252.9 183.179 252.3 181.179 251.1C179.179 249.8 177.629 248.3 176.529 246.6H176.229C175.229 250.4 173.379 254.45 170.679 258.75C167.979 263.05 164.729 267 160.929 270.6C157.229 274.2 153.129 277.2 148.629 279.6C144.129 282 139.529 283.2 134.829 283.2C130.529 283.2 127.279 281.95 125.079 279.45C122.879 276.95 121.779 273.6 121.779 269.4C121.779 267.2 122.329 264.65 123.429 261.75C124.529 258.85 126.029 255.95 127.929 253.05C129.929 250.05 132.229 247.15 134.829 244.35C137.529 241.45 140.429 238.9 143.529 236.7C146.629 234.4 149.879 232.6 153.279 231.3C156.779 229.9 160.279 229.2 163.779 229.2C167.879 229.2 171.029 230.4 173.229 232.8C175.529 235.2 176.779 238.3 176.979 242.1C177.179 244.4 178.229 246.55 180.129 248.55C182.129 250.45 184.829 251.4 188.229 251.4C191.229 251.4 194.029 250.65 196.629 249.15C199.329 247.65 201.829 245.7 204.129 243.3L205.329 244.05ZM129.879 273C129.879 275.6 130.379 277.65 131.379 279.15C132.379 280.65 133.879 281.4 135.879 281.4C138.579 281.4 141.229 280.7 143.829 279.3C146.529 277.8 149.079 275.9 151.479 273.6C153.979 271.2 156.279 268.5 158.379 265.5C160.479 262.5 162.279 259.4 163.779 256.2C165.379 253 166.629 249.9 167.529 246.9C168.429 243.8 168.879 241 168.879 238.5C168.879 236.4 168.329 234.65 167.229 233.25C166.229 231.75 164.629 231 162.429 231C160.329 231 158.079 231.7 155.679 233.1C153.279 234.4 150.829 236.15 148.329 238.35C145.929 240.55 143.629 243.1 141.429 246C139.229 248.9 137.229 251.9 135.429 255C133.729 258.1 132.379 261.2 131.379 264.3C130.379 267.4 129.879 270.3 129.879 273ZM219.93 230.4L200.88 258.15L201.18 258.45C202.58 256.75 204.33 254.8 206.43 252.6C208.63 250.3 210.98 248 213.48 245.7C216.08 243.3 218.78 240.95 221.58 238.65C224.38 236.35 227.13 234.3 229.83 232.5C230.33 231.5 230.88 230.7 231.48 230.1C232.08 229.5 233.28 229.2 235.08 229.2C236.18 229.2 237.13 229.25 237.93 229.35C238.83 229.35 239.73 229.4 240.63 229.5C238.93 231.2 237.28 233.3 235.68 235.8C234.08 238.2 233.28 240.85 233.28 243.75C233.28 246.05 233.83 247.85 234.93 249.15C236.13 250.45 237.58 251.1 239.28 251.1C240.78 251.1 242.23 250.8 243.63 250.2C245.13 249.6 246.53 248.85 247.83 247.95C249.13 247.05 250.38 246.1 251.58 245.1C252.78 244.1 253.83 243.2 254.73 242.4L255.63 243C254.63 244 253.48 245.1 252.18 246.3C250.88 247.4 249.48 248.45 247.98 249.45C246.48 250.45 244.88 251.3 243.18 252C241.48 252.6 239.73 252.9 237.93 252.9C234.73 252.9 232.13 251.95 230.13 250.05C228.23 248.05 227.28 245.3 227.28 241.8C227.28 239.4 227.83 237.25 228.93 235.35L228.63 235.05C224.53 237.85 220.03 241.55 215.13 246.15C210.23 250.65 205.03 256 199.53 262.2C197.53 264.4 195.43 267.3 193.23 270.9C191.13 274.5 189.28 278.2 187.68 282H177.93C183.33 273.4 188.73 264.85 194.13 256.35C199.53 247.85 205.08 239.2 210.78 230.4H219.93ZM269.281 230.4L237.631 280.35C242.131 279.65 246.631 278.25 251.131 276.15C255.731 273.95 260.181 271.2 264.481 267.9C268.881 264.5 273.031 260.6 276.931 256.2C280.931 251.8 284.631 247.05 288.031 241.95L289.381 242.55C286.281 247.25 282.781 251.8 278.881 256.2C275.081 260.6 270.981 264.6 266.581 268.2C262.181 271.7 257.431 274.7 252.331 277.2C247.331 279.6 242.081 281.2 236.581 282C233.281 287.3 229.531 292.55 225.331 297.75C221.131 303.05 216.531 307.8 211.531 312C206.431 316.2 200.931 319.6 195.031 322.2C189.031 324.8 182.631 326.1 175.831 326.1C172.631 326.1 169.531 325.75 166.531 325.05C163.531 324.35 160.881 323.25 158.581 321.75C156.281 320.25 154.431 318.4 153.031 316.2C151.631 314 150.931 311.4 150.931 308.4C150.931 306.2 151.431 304.2 152.431 302.4C153.331 300.6 154.581 299.05 156.181 297.75C157.781 296.55 159.581 295.6 161.581 294.9C163.481 294.3 165.431 294 167.431 294C168.231 294 168.981 294.05 169.681 294.15C170.381 294.25 170.981 294.35 171.481 294.45V295.8H170.431C166.331 295.8 163.281 297.05 161.281 299.55C159.181 302.05 158.131 304.8 158.131 307.8C158.131 313.7 159.831 317.9 163.231 320.4C166.631 323 171.131 324.3 176.731 324.3C182.931 324.3 188.781 322.65 194.281 319.35C199.681 316.05 204.731 311.85 209.431 306.75C214.131 301.65 218.531 296.05 222.631 289.95C226.731 283.85 230.531 277.95 234.031 272.25L259.981 230.4H269.281ZM278.581 202.5C279.981 202.5 281.131 203 282.031 204C282.931 204.9 283.381 206.05 283.381 207.45C283.381 208.85 282.931 210.05 282.031 211.05C281.131 211.95 279.981 212.4 278.581 212.4C277.181 212.4 276.031 211.95 275.131 211.05C274.231 210.05 273.781 208.85 273.781 207.45C273.781 206.05 274.231 204.9 275.131 204C276.031 203 277.181 202.5 278.581 202.5ZM304.633 230.4C300.733 235.7 296.983 240.75 293.383 245.55C289.783 250.35 286.583 254.75 283.783 258.75C280.983 262.75 278.733 266.25 277.033 269.25C275.433 272.15 274.633 274.45 274.633 276.15C274.633 277.75 275.033 278.95 275.833 279.75C276.633 280.45 277.683 280.8 278.983 280.8C280.883 280.8 282.933 280.2 285.133 279C287.433 277.8 289.733 276.25 292.033 274.35C294.433 272.45 296.733 270.35 298.933 268.05C301.233 265.75 303.333 263.5 305.233 261.3C307.233 259 308.933 256.9 310.333 255C311.833 253.1 312.933 251.6 313.633 250.5L326.833 230.4H337.183C331.783 237.8 327.183 244.1 323.383 249.3C319.683 254.4 316.633 258.75 314.233 262.35C311.933 265.95 310.283 268.9 309.283 271.2C308.283 273.4 307.783 275.35 307.783 277.05C307.783 278.25 308.133 279.3 308.833 280.2C309.533 281 310.533 281.4 311.833 281.4C313.833 281.4 316.133 280.7 318.733 279.3C321.333 277.8 324.033 275.9 326.833 273.6C329.633 271.2 332.383 268.55 335.083 265.65C337.883 262.65 340.483 259.7 342.883 256.8C345.383 253.9 347.633 251.2 349.633 248.7C351.633 246.1 353.183 244 354.283 242.4L355.783 242.85C354.583 244.55 352.983 246.75 350.983 249.45C348.983 252.05 346.733 254.85 344.233 257.85C341.733 260.75 339.083 263.75 336.283 266.85C333.483 269.85 330.583 272.55 327.583 274.95C324.683 277.35 321.783 279.35 318.883 280.95C316.083 282.45 313.433 283.2 310.933 283.2C308.133 283.2 305.883 282.45 304.183 280.95C302.583 279.35 301.783 277.25 301.783 274.65C301.783 272.65 302.083 270.75 302.683 268.95C303.383 267.05 303.883 265.85 304.183 265.35L303.883 265.05C301.783 267.45 299.583 269.75 297.283 271.95C294.983 274.15 292.683 276.1 290.383 277.8C288.083 279.4 285.733 280.7 283.333 281.7C281.033 282.7 278.733 283.2 276.433 283.2C273.233 283.2 270.933 282.5 269.533 281.1C268.133 279.6 267.433 277.85 267.433 275.85C267.433 273.35 268.133 270.65 269.533 267.75C270.833 264.85 272.683 261.6 275.083 258C277.483 254.4 280.333 250.35 283.633 245.85C287.033 241.35 290.733 236.2 294.733 230.4H304.633ZM405.333 243.3C402.333 248.1 398.833 252.9 394.833 257.7C390.933 262.4 386.633 266.65 381.933 270.45C377.233 274.25 372.083 277.35 366.483 279.75C360.983 282.05 355.083 283.2 348.783 283.2C346.383 283.2 344.133 282.9 342.033 282.3C339.933 281.7 338.083 280.8 336.483 279.6C334.983 278.4 333.783 276.9 332.883 275.1C331.883 273.2 331.383 271 331.383 268.5C331.383 265.9 332.233 263.55 333.933 261.45C335.633 259.35 337.933 258.3 340.833 258.3C342.333 258.3 343.533 258.7 344.433 259.5C345.433 260.2 345.933 261.3 345.933 262.8C345.933 264.2 345.583 265.4 344.883 266.4C344.183 267.4 343.133 267.9 341.733 267.9C340.633 267.9 339.733 267.6 339.033 267C338.433 266.4 338.033 265.65 337.833 264.75C336.733 265.35 335.983 266.25 335.583 267.45C335.183 268.55 334.983 269.7 334.983 270.9C334.983 274.4 336.283 277.05 338.883 278.85C341.583 280.55 344.583 281.4 347.883 281.4C349.983 281.4 351.783 281 353.283 280.2C354.883 279.3 356.183 278.2 357.183 276.9C358.283 275.5 359.083 273.9 359.583 272.1C360.083 270.3 360.333 268.5 360.333 266.7C360.333 264.8 359.983 262.85 359.283 260.85C358.683 258.75 357.983 256.7 357.183 254.7C356.383 252.7 355.633 250.75 354.933 248.85C354.233 246.85 353.883 245 353.883 243.3C353.883 241.1 354.333 239.15 355.233 237.45C356.133 235.65 357.333 234.15 358.833 232.95C360.433 231.75 362.233 230.85 364.233 230.25C366.233 229.55 368.333 229.2 370.533 229.2C374.533 229.2 377.783 230.1 380.283 231.9C382.783 233.6 384.033 235.9 384.033 238.8C384.033 241.4 383.033 243.3 381.033 244.5C379.133 245.7 376.983 246.3 374.583 246.3C375.183 245.2 375.683 243.9 376.083 242.4C376.583 240.8 376.833 239.35 376.833 238.05C376.833 236.05 376.183 234.4 374.883 233.1C373.683 231.7 371.933 231 369.633 231C366.733 231 364.583 231.9 363.183 233.7C361.783 235.4 361.083 237.5 361.083 240C361.083 242.2 361.433 244.3 362.133 246.3C362.933 248.3 363.833 250.3 364.833 252.3C365.733 254.3 366.533 256.35 367.233 258.45C368.033 260.55 368.433 262.9 368.433 265.5C368.433 267.4 367.983 269.25 367.083 271.05C366.283 272.75 365.183 274.35 363.783 275.85C362.383 277.25 360.783 278.45 358.983 279.45C357.283 280.45 355.533 281.1 353.733 281.4L354.033 281.7C359.433 281.1 364.583 279.55 369.483 277.05C374.383 274.45 378.933 271.35 383.133 267.75C387.433 264.05 391.383 260.05 394.983 255.75C398.583 251.35 401.733 247.05 404.433 242.85L405.333 243.3ZM222.488 163.375C221.48 163.375 220.555 163.233 219.713 162.95C218.872 162.658 218.163 162.208 217.588 161.6C217.155 161.133 216.83 160.608 216.613 160.025C216.397 159.433 216.276 158.812 216.251 158.162C216.242 157.546 216.33 156.933 216.513 156.325C216.697 155.708 216.992 155.158 217.401 154.675C217.667 154.342 217.972 154.067 218.313 153.85C218.655 153.633 219.005 153.45 219.363 153.3C218.697 152.617 218.188 151.992 217.838 151.425C217.488 150.858 217.313 150.158 217.313 149.325C217.313 148.433 217.53 147.617 217.963 146.875C218.405 146.125 219.017 145.567 219.801 145.2C220.226 144.992 220.663 144.846 221.113 144.762C221.563 144.679 222.009 144.637 222.451 144.637C223.092 144.637 223.726 144.721 224.351 144.887C224.976 145.054 225.513 145.317 225.963 145.675C226.263 145.9 226.53 146.167 226.763 146.475C227.005 146.783 227.197 147.104 227.338 147.437L225.963 147.925C225.763 147.45 225.442 147.054 225.001 146.737C224.659 146.487 224.272 146.308 223.838 146.2C223.405 146.092 222.967 146.037 222.526 146.037C221.759 146.037 221.055 146.192 220.413 146.5C219.888 146.767 219.488 147.142 219.213 147.625C218.947 148.1 218.813 148.654 218.813 149.287C218.813 149.829 218.897 150.279 219.063 150.637C219.238 150.987 219.505 151.375 219.863 151.8C220.055 152.008 220.263 152.217 220.488 152.425C220.722 152.625 220.955 152.833 221.188 153.05L227.263 158.712C227.305 158.462 227.334 158.221 227.351 157.987C227.367 157.754 227.376 157.521 227.376 157.287L227.351 154.512H228.776V157.1C228.776 157.833 228.747 158.408 228.688 158.825C228.638 159.242 228.572 159.583 228.488 159.85L230.826 162.025L229.863 163.062L227.801 161.112C227.567 161.454 227.255 161.775 226.863 162.075C226.48 162.367 226.097 162.6 225.713 162.775C225.23 163.008 224.709 163.167 224.151 163.25C223.601 163.333 223.047 163.375 222.488 163.375ZM222.463 161.962C223.013 161.962 223.505 161.929 223.938 161.862C224.38 161.787 224.797 161.642 225.188 161.425C225.672 161.142 226.022 160.887 226.238 160.662C226.455 160.429 226.622 160.229 226.738 160.062L220.526 154.387C220.142 154.504 219.776 154.667 219.426 154.875C219.084 155.075 218.788 155.321 218.538 155.612C218.263 155.946 218.063 156.329 217.938 156.762C217.813 157.196 217.755 157.646 217.763 158.112C217.772 158.587 217.851 159.037 218.001 159.462C218.151 159.879 218.372 160.25 218.663 160.575C219.088 161.05 219.647 161.4 220.338 161.625C221.038 161.85 221.747 161.962 222.463 161.962Z" stroke="#706953"/>
</svg>
